Louise.ufo
<glyph name="exclam" format="2">
	<advance width="643"/>
	<unicode hex="0021"/>
	<guideline x="809" y="-11" angle="0"/>
	<outline>
		<contour>
			<point x="248" y="196" type="line"/>
			<point x="666" y="875" type="line" smooth="yes"/>
			<point x="687" y="910"/>
			<point x="704" y="936"/>
			<point x="700" y="969" type="curve" smooth="yes"/>
			<point x="696" y="1003"/>
			<point x="662" y="1022"/>
			<point x="628" y="1016" type="curve" smooth="yes"/>
			<point x="599" y="1011"/>
			<point x="578" y="987"/>
			<point x="551" y="928" type="curve" smooth="yes"/>
			<point x="225" y="209" type="line"/>
		</contour>
		<contour>
			<point x="166" y="-13" type="curve" smooth="yes"/>
			<point x="194" y="-10"/>
			<point x="208" y="15"/>
			<point x="206" y="39" type="curve" smooth="yes"/>
			<point x="204" y="62"/>
			<point x="184" y="83"/>
			<point x="154" y="79" type="curve" smooth="yes"/>
			<point x="124" y="75"/>
			<point x="110" y="50"/>
			<point x="114" y="27" type="curve" smooth="yes"/>
			<point x="118" y="4"/>
			<point x="140" y="-16"/>
		</contour>
	</outline>
</glyph>
<glyph name="quotedbl" format="2">
	<advance width="420"/>
	<unicode hex="0022"/>
	<outline>
		<contour>
			<point x="376" y="509" type="line"/>
			<point x="529" y="688" type="line" smooth="yes"/>
			<point x="558" y="721"/>
			<point x="553" y="754"/>
			<point x="529" y="767" type="curve" smooth="yes"/>
			<point x="503" y="781"/>
			<point x="477" y="768"/>
			<point x="459" y="732" type="curve" smooth="yes"/>
			<point x="353" y="524" type="line"/>
		</contour>
		<contour>
			<point x="274" y="541" type="line"/>
			<point x="414" y="730" type="line" smooth="yes"/>
			<point x="440" y="765"/>
			<point x="433" y="798"/>
			<point x="409" y="809" type="curve" smooth="yes"/>
			<point x="382" y="821"/>
			<point x="357" y="806"/>
			<point x="341" y="769" type="curve" smooth="yes"/>
			<point x="250" y="555" type="line"/>
		</contour>
	</outline>
</glyph>
<glyph name="numbersign" format="2">
	<advance width="600"/>
	<unicode hex="0023"/>
	<outline>
		<contour>
			<point x="251" y="-7" type="line"/>
			<point x="649" y="678" type="line"/>
			<point x="626" y="693" type="line"/>
			<point x="226" y="10" type="line"/>
		</contour>
		<contour>
			<point x="-29" y="235" type="line"/>
			<point x="580" y="235" type="line"/>
			<point x="580" y="264" type="line"/>
			<point x="-29" y="263" type="line"/>
		</contour>
		<contour>
			<point x="33" y="-1" type="line"/>
			<point x="431" y="684" type="line"/>
			<point x="408" y="699" type="line"/>
			<point x="8" y="16" type="line"/>
		</contour>
		<contour>
			<point x="78" y="426" type="line"/>
			<point x="687" y="426" type="line"/>
			<point x="687" y="455" type="line"/>
			<point x="78" y="455" type="line"/>
		</contour>
	</outline>
</glyph>
<glyph name="dollar" format="2">
	<advance width="634"/>
	<unicode hex="0024"/>
	<outline>
		<contour>
			<point x="316" y="-26" type="curve" smooth="yes"/>
			<point x="418" y="-26"/>
			<point x="522" y="55"/>
			<point x="522" y="169" type="curve" smooth="yes"/>
			<point x="522" y="307"/>
			<point x="408" y="406"/>
			<point x="409" y="505" type="curve" smooth="yes"/>
			<point x="410" y="590"/>
			<point x="473" y="639"/>
			<point x="546" y="639" type="curve" smooth="yes"/>
			<point x="603" y="639"/>
			<point x="675" y="594"/>
			<point x="675" y="487" type="curve" smooth="yes"/>
			<point x="675" y="487" type="line"/>
			<point x="706" y="487" type="line"/>
			<point x="706" y="489" type="line" smooth="yes"/>
			<point x="706" y="616"/>
			<point x="621" y="666"/>
			<point x="550" y="668" type="curve" smooth="yes"/>
			<point x="467" y="670"/>
			<point x="377" y="616"/>
			<point x="377" y="506" type="curve" smooth="yes"/>
			<point x="377" y="388"/>
			<point x="491" y="299"/>
			<point x="491" y="168" type="curve" smooth="yes"/>
			<point x="491" y="72"/>
			<point x="403" y="5"/>
			<point x="318" y="3" type="curve" smooth="yes"/>
			<point x="255" y="3"/>
			<point x="132" y="43"/>
			<point x="132" y="168" type="curve" smooth="yes"/>
			<point x="132" y="237"/>
			<point x="168" y="268"/>
			<point x="208" y="268" type="curve" smooth="yes"/>
			<point x="246" y="268"/>
			<point x="256" y="249"/>
			<point x="288" y="249" type="curve" smooth="yes"/>
			<point x="318" y="249"/>
			<point x="346" y="271"/>
			<point x="346" y="299" type="curve" smooth="yes"/>
			<point x="346" y="338"/>
			<point x="310" y="355"/>
			<point x="268" y="355" type="curve" smooth="yes"/>
			<point x="189" y="355"/>
			<point x="101" y="290"/>
			<point x="101" y="169" type="curve" smooth="yes"/>
			<point x="101" y="34"/>
			<point x="222" y="-26"/>
		</contour>
		<contour>
			<point x="204" y="-114" type="line"/>
			<point x="219" y="-88"/>
			<point x="234" y="-64"/>
			<point x="271" y="-1" type="curve"/>
			<point x="244" y="15" type="line"/>
			<point x="208" y="-48"/>
			<point x="194" y="-71"/>
			<point x="178" y="-97" type="curve"/>
		</contour>
		<contour>
			<point x="643" y="603" type="line"/>
			<point x="658" y="629"/>
			<point x="673" y="653"/>
			<point x="710" y="716" type="curve"/>
			<point x="683" y="732" type="line"/>
			<point x="647" y="669"/>
			<point x="633" y="646"/>
			<point x="617" y="620" type="curve"/>
		</contour>
	</outline>
</glyph>
<glyph name="percent" format="2">
	<advance width="808"/>
	<unicode hex="0025"/>
	<guideline x="648" y="0" angle="0"/>
	<guideline x="974" y="711" angle="0"/>
	<outline>
		<contour>
			<point x="154" y="-6" type="line"/>
			<point x="661" y="597" type="line"/>
			<point x="639" y="619" type="line"/>
			<point x="132" y="14" type="line"/>
		</contour>
		<contour>
			<point x="502" y="-8" type="curve" smooth="yes"/>
			<point x="552" y="-41"/>
			<point x="638" y="-14"/>
			<point x="682" y="55" type="curve" smooth="yes"/>
			<point x="727" y="125"/>
			<point x="714" y="212"/>
			<point x="662" y="245" type="curve" smooth="yes"/>
			<point x="607" y="280"/>
			<point x="525" y="253"/>
			<point x="480" y="182" type="curve" smooth="yes"/>
			<point x="436" y="113"/>
			<point x="447" y="28"/>
		</contour>
		<contour>
			<point x="522" y="15" type="curve" smooth="yes"/>
			<point x="481" y="34"/>
			<point x="467" y="110"/>
			<point x="504" y="166" type="curve" smooth="yes"/>
			<point x="539" y="219"/>
			<point x="601" y="246"/>
			<point x="644" y="220" type="curve" smooth="yes"/>
			<point x="681" y="198"/>
			<point x="696" y="125"/>
			<point x="656" y="68" type="curve" smooth="yes"/>
			<point x="620" y="16"/>
			<point x="566" y="-5"/>
		</contour>
		<contour>
			<point x="174" y="366" type="curve" smooth="yes"/>
			<point x="224" y="333"/>
			<point x="310" y="360"/>
			<point x="354" y="429" type="curve" smooth="yes"/>
			<point x="399" y="499"/>
			<point x="386" y="586"/>
			<point x="334" y="619" type="curve" smooth="yes"/>
			<point x="279" y="654"/>
			<point x="197" y="627"/>
			<point x="152" y="556" type="curve" smooth="yes"/>
			<point x="108" y="487"/>
			<point x="119" y="402"/>
		</contour>
		<contour>
			<point x="194" y="389" type="curve" smooth="yes"/>
			<point x="153" y="408"/>
			<point x="138" y="484"/>
			<point x="176" y="540" type="curve" smooth="yes"/>
			<point x="211" y="591"/>
			<point x="273" y="619"/>
			<point x="316" y="594" type="curve" smooth="yes"/>
			<point x="354" y="572"/>
			<point x="368" y="499"/>
			<point x="328" y="442" type="curve" smooth="yes"/>
			<point x="291" y="390"/>
			<point x="237" y="369"/>
		</contour>
	</outline>
</glyph>
<glyph name="ampersand" format="2">
	<advance width="1267"/>
	<unicode hex="0026"/>
	<guideline x="274" y="-290" angle="0"/>
	<guideline x="895" y="0" angle="0"/>
	<outline>
		<contour>
			<point x="610" y="-299" type="line"/>
			<point x="736" y="-299"/>
			<point x="852" y="-226"/>
			<point x="860" y="-56" type="curve" smooth="yes"/>
			<point x="871" y="175"/>
			<point x="606" y="405"/>
			<point x="633" y="663" type="curve" smooth="yes"/>
			<point x="653" y="853"/>
			<point x="791" y="956"/>
			<point x="878" y="941" type="curve" smooth="yes"/>
			<point x="929" y="932"/>
			<point x="962" y="882"/>
			<point x="946" y="799" type="curve" smooth="yes"/>
			<point x="875" y="430"/>
			<point x="232" y="516"/>
			<point x="232" y="195" type="curve" smooth="yes"/>
			<point x="232" y="39"/>
			<point x="402" y="-9"/>
			<point x="524" y="-15" type="curve" smooth="yes"/>
			<point x="893" y="-34"/>
			<point x="1144" y="137"/>
			<point x="1176" y="324" type="curve" smooth="yes"/>
			<point x="1195" y="435"/>
			<point x="1150" y="527"/>
			<point x="1090" y="558" type="curve" smooth="yes"/>
			<point x="1034" y="587"/>
			<point x="990" y="558"/>
			<point x="989" y="528" type="curve" smooth="yes"/>
			<point x="988" y="490"/>
			<point x="1023" y="475"/>
			<point x="1050" y="468" type="curve" smooth="yes"/>
			<point x="1117" y="451"/>
			<point x="1149" y="397"/>
			<point x="1143" y="330" type="curve" smooth="yes"/>
			<point x="1122" y="105"/>
			<point x="782" y="-4"/>
			<point x="537" y="9" type="curve" smooth="yes"/>
			<point x="407" y="16"/>
			<point x="259" y="65"/>
			<point x="259" y="195" type="curve" smooth="yes"/>
			<point x="259" y="491"/>
			<point x="888" y="409"/>
			<point x="972" y="792" type="curve" smooth="yes"/>
			<point x="990" y="874"/>
			<point x="965" y="953"/>
			<point x="882" y="965" type="curve" smooth="yes"/>
			<point x="741" y="985"/>
			<point x="617" y="823"/>
			<point x="606" y="662" type="curve" smooth="yes"/>
			<point x="587" y="383"/>
			<point x="840" y="178"/>
			<point x="833" y="-55" type="curve" smooth="yes"/>
			<point x="828" y="-216"/>
			<point x="709" y="-271"/>
			<point x="610" y="-271" type="curve"/>
		</contour>
	</outline>
</glyph>
<glyph name="quotesingle" format="2">
	<advance width="323"/>
	<unicode hex="0027"/>
	<outline>
		<contour>
			<point x="382" y="592" type="line"/>
			<point x="485" y="638"/>
			<point x="559" y="736"/>
			<point x="569" y="800" type="curve" smooth="yes"/>
			<point x="576" y="846"/>
			<point x="561" y="878"/>
			<point x="531" y="878" type="curve" smooth="yes"/>
			<point x="498" y="878"/>
			<point x="482" y="852"/>
			<point x="478" y="826" type="curve" smooth="yes"/>
			<point x="472" y="785"/>
			<point x="487" y="669"/>
			<point x="370" y="618" type="curve"/>
		</contour>
	</outline>
</glyph>
<glyph name="parenleft" format="2">
	<advance width="485"/>
	<unicode hex="0028"/>
	<guideline x="397" y="770" angle="0"/>
	<outline>
		<contour>
			<point x="334" y="-108" type="curve" smooth="yes"/>
			<point x="371" y="-96"/>
			<point x="363" y="-57"/>
			<point x="353" y="-38" type="curve" smooth="yes"/>
			<point x="203" y="245"/>
			<point x="468" y="638"/>
			<point x="769" y="778" type="curve"/>
			<point x="757" y="802" type="line"/>
			<point x="443" y="652"/>
			<point x="160" y="246"/>
			<point x="279" y="-70" type="curve" smooth="yes"/>
			<point x="285" y="-86"/>
			<point x="310" y="-116"/>
		</contour>
	</outline>
</glyph>
<glyph name="parenright" format="2">
	<advance width="506"/>
	<unicode hex="0029"/>
	<outline>
		<contour>
			<point x="23" y="-171" type="line"/>
			<point x="329" y="-5"/>
			<point x="589" y="416"/>
			<point x="454" y="725" type="curve" smooth="yes"/>
			<point x="447" y="741"/>
			<point x="420" y="769"/>
			<point x="397" y="760" type="curve" smooth="yes"/>
			<point x="360" y="746"/>
			<point x="370" y="707"/>
			<point x="381" y="689" type="curve" smooth="yes"/>
			<point x="548" y="416"/>
			<point x="303" y="8"/>
			<point x="10" y="-148" type="curve"/>
		</contour>
	</outline>
</glyph>
<glyph name="asterisk" format="2">
	<advance width="662"/>
	<unicode hex="002A"/>
	<guideline x="453" y="559" angle="30.919"/>
	<guideline x="406" y="478" angle="329.2329"/>
	<outline>
		<contour>
			<point x="275" y="397" type="curve" smooth="yes"/>
			<point x="288" y="388"/>
			<point x="303" y="398"/>
			<point x="312" y="412" type="curve" smooth="yes"/>
			<point x="379" y="519" type="line"/>
			<point x="358" y="533" type="line"/>
			<point x="276" y="435" type="line" smooth="yes"/>
			<point x="265" y="422"/>
			<point x="265" y="404"/>
		</contour>
		<contour>
			<point x="242" y="512" type="curve" smooth="yes"/>
			<point x="367" y="513" type="line"/>
			<point x="368" y="538" type="line"/>
			<point x="241" y="555" type="line" smooth="yes"/>
			<point x="224" y="557"/>
			<point x="210" y="547"/>
			<point x="209" y="535" type="curve" smooth="yes"/>
			<point x="208" y="520"/>
			<point x="224" y="512"/>
		</contour>
		<contour>
			<point x="443" y="386" type="curve" smooth="yes"/>
			<point x="454" y="391"/>
			<point x="456" y="409"/>
			<point x="447" y="424" type="curve" smooth="yes"/>
			<point x="379" y="532" type="line"/>
			<point x="357" y="521" type="line"/>
			<point x="408" y="406" type="line" smooth="yes"/>
			<point x="415" y="391"/>
			<point x="429" y="380"/>
		</contour>
		<contour>
			<point x="357" y="521" type="line"/>
			<point x="379" y="532" type="line"/>
			<point x="328" y="647" type="line" smooth="yes"/>
			<point x="321" y="662"/>
			<point x="307" y="673"/>
			<point x="293" y="667" type="curve" smooth="yes"/>
			<point x="282" y="662"/>
			<point x="280" y="644"/>
			<point x="289" y="629" type="curve" smooth="yes"/>
		</contour>
		<contour>
			<point x="494" y="497" type="line" smooth="yes"/>
			<point x="511" y="495"/>
			<point x="527" y="504"/>
			<point x="526" y="516" type="curve" smooth="yes"/>
			<point x="525" y="532"/>
			<point x="510" y="540"/>
			<point x="494" y="540" type="curve" smooth="yes"/>
			<point x="368" y="538" type="line"/>
			<point x="367" y="513" type="line"/>
		</contour>
		<contour>
			<point x="379" y="519" type="line"/>
			<point x="461" y="617" type="line" smooth="yes"/>
			<point x="472" y="630"/>
			<point x="472" y="648"/>
			<point x="462" y="655" type="curve" smooth="yes"/>
			<point x="449" y="664"/>
			<point x="434" y="654"/>
			<point x="425" y="640" type="curve" smooth="yes"/>
			<point x="358" y="533" type="line"/>
		</contour>
	</outline>
</glyph>
<glyph name="plus" format="2">
	<advance width="673"/>
	<unicode hex="002B"/>
	<guideline x="719" y="524" angle="0"/>
	<guideline x="692" y="321" angle="0"/>
	<guideline x="642" y="36" angle="0"/>
	<outline>
		<contour>
			<point x="287" y="36" type="line"/>
			<point x="322" y="36" type="line"/>
			<point x="568" y="470" type="line"/>
			<point x="534" y="470" type="line"/>
		</contour>
		<contour>
			<point x="209" y="253" type="line"/>
			<point x="668" y="253" type="line"/>
			<point x="668" y="285" type="line"/>
			<point x="209" y="285" type="line"/>
		</contour>
	</outline>
</glyph>
<glyph name="comma" format="2">
	<advance width="310"/>
	<unicode hex="002C"/>
	<guideline x="215" y="88" angle="0"/>
	<guideline x="148" y="0" angle="60"/>
	<guideline x="115" y="0" angle="60"/>
	<outline>
		<contour>
			<point x="11" y="-191" type="line"/>
			<point x="116" y="-150"/>
			<point x="196" y="-55"/>
			<point x="208" y="7" type="curve" smooth="yes"/>
			<point x="217" y="53"/>
			<point x="199" y="88"/>
			<point x="167" y="88" type="curve" smooth="yes"/>
			<point x="141" y="88"/>
			<point x="123" y="65"/>
			<point x="119" y="39" type="curve" smooth="yes"/>
			<point x="113" y="-2"/>
			<point x="120" y="-120"/>
			<point x="0" y="-164" type="curve"/>
		</contour>
	</outline>
</glyph>
<glyph name="hyphen" format="2">
	<advance width="590"/>
	<unicode hex="002D"/>
	<outline>
		<contour>
			<point x="200" y="283" type="line"/>
			<point x="490" y="283" type="line"/>
			<point x="490" y="324" type="line"/>
			<point x="201" y="324" type="line"/>
		</contour>
	</outline>
</glyph>
<glyph name="period" format="2">
	<advance width="226"/>
	<unicode hex="002E"/>
	<guideline x="189" y="88" angle="0"/>
	<guideline x="182" y="-16" angle="0"/>
	<outline>
		<contour>
			<point x="139" y="-16" type="curve" smooth="yes"/>
			<point x="167" y="-16"/>
			<point x="190" y="7"/>
			<point x="190" y="36" type="curve" smooth="yes"/>
			<point x="190" y="65"/>
			<point x="167" y="88"/>
			<point x="139" y="88" type="curve" smooth="yes"/>
			<point x="110" y="88"/>
			<point x="87" y="65"/>
			<point x="87" y="36" type="curve" smooth="yes"/>
			<point x="87" y="7"/>
			<point x="110" y="-16"/>
		</contour>
	</outline>
</glyph>
<glyph name="slash" format="2">
	<advance width="348"/>
	<unicode hex="002F"/>
	<outline>
		<contour>
			<point x="126" y="-3" type="line"/>
			<point x="648" y="896" type="line"/>
			<point x="622" y="914" type="line"/>
			<point x="98" y="17" type="line"/>
		</contour>
	</outline>
</glyph>
<glyph name="zero" format="2">
	<advance width="496"/>
	<unicode hex="0030"/>
	<guideline x="-55" y="0" angle="60"/>
	<guideline x="-89" y="0" angle="60"/>
	<guideline x="257" y="686" angle="0"/>
	<outline>
		<contour>
			<point x="155" y="-13" type="curve" smooth="yes"/>
			<point x="368" y="-42"/>
			<point x="583" y="329"/>
			<point x="583" y="543" type="curve" smooth="yes"/>
			<point x="583" y="676"/>
			<point x="505" y="690"/>
			<point x="466" y="690" type="curve" smooth="yes"/>
			<point x="274" y="690"/>
			<point x="52" y="329"/>
			<point x="54" y="140" type="curve" smooth="yes"/>
			<point x="55" y="44"/>
			<point x="103" y="-6"/>
		</contour>
		<contour>
			<point x="164" y="20" type="curve" smooth="yes"/>
			<point x="117" y="26"/>
			<point x="88" y="75"/>
			<point x="88" y="141" type="curve" smooth="yes"/>
			<point x="88" y="329"/>
			<point x="302" y="656"/>
			<point x="465" y="656" type="curve" smooth="yes"/>
			<point x="515" y="656"/>
			<point x="554" y="622"/>
			<point x="550" y="538" type="curve" smooth="yes"/>
			<point x="539" y="312"/>
			<point x="335" y="-2"/>
		</contour>
	</outline>
</glyph>
<glyph name="one" format="2">
	<advance width="543"/>
	<unicode hex="0031"/>
	<guideline x="182" y="0" angle="60"/>
	<guideline x="148" y="0" angle="60"/>
	<guideline x="476" y="853" angle="32.3744"/>
	<guideline x="494" y="826" angle="32.3744"/>
	<outline>
		<contour>
			<point x="218" y="0" type="line"/>
			<point x="602" y="668" type="line"/>
			<point x="578" y="689" type="line"/>
			<point x="225" y="503" type="line"/>
			<point x="241" y="471" type="line"/>
			<point x="539" y="627" type="line"/>
			<point x="188" y="20" type="line"/>
		</contour>
		<contour>
			<point x="50" y="0" type="line"/>
			<point x="431" y="0" type="line"/>
			<point x="431" y="30" type="line"/>
			<point x="50" y="30" type="line"/>
		</contour>
	</outline>
</glyph>
<glyph name="two" format="2">
	<advance width="669"/>
	<unicode hex="0032"/>
	<guideline x="116" y="0" angle="60"/>
	<guideline x="82" y="0" angle="60"/>
	<outline>
		<contour>
			<point x="74" y="1" type="line"/>
			<point x="84" y="73"/>
			<point x="209" y="199"/>
			<point x="377" y="275" type="curve" smooth="yes"/>
			<point x="483" y="323"/>
			<point x="660" y="399"/>
			<point x="660" y="557" type="curve" smooth="yes"/>
			<point x="660" y="618"/>
			<point x="613" y="686"/>
			<point x="505" y="686" type="curve" smooth="yes"/>
			<point x="357" y="686"/>
			<point x="264" y="588"/>
			<point x="264" y="512" type="curve" smooth="yes"/>
			<point x="264" y="476"/>
			<point x="284" y="459"/>
			<point x="308" y="459" type="curve" smooth="yes"/>
			<point x="335" y="459"/>
			<point x="351" y="476"/>
			<point x="351" y="512" type="curve" smooth="yes"/>
			<point x="351" y="576"/>
			<point x="387" y="653"/>
			<point x="505" y="653" type="curve" smooth="yes"/>
			<point x="585" y="653"/>
			<point x="625" y="602"/>
			<point x="625" y="557" type="curve" smooth="yes"/>
			<point x="625" y="420"/>
			<point x="470" y="355"/>
			<point x="350" y="296" type="curve" smooth="yes"/>
			<point x="167" y="206"/>
			<point x="57" y="91"/>
			<point x="47" y="13" type="curve"/>
		</contour>
		<contour>
			<point x="416" y="-7" type="curve" smooth="yes"/>
			<point x="470" y="-7"/>
			<point x="584" y="81"/>
			<point x="653" y="146" type="curve"/>
			<point x="632" y="167" type="line"/>
			<point x="572" y="115"/>
			<point x="463" y="29"/>
			<point x="417" y="29" type="curve" smooth="yes"/>
			<point x="383" y="29"/>
			<point x="381" y="108"/>
			<point x="284" y="115" type="curve" smooth="yes"/>
			<point x="215" y="120"/>
			<point x="84" y="58"/>
			<point x="47" y="13" type="curve"/>
			<point x="74" y="0" type="line"/>
			<point x="110" y="25"/>
			<point x="215" y="82"/>
			<point x="279" y="80" type="curve" smooth="yes"/>
			<point x="363" y="78"/>
			<point x="355" y="-7"/>
		</contour>
	</outline>
</glyph>
<glyph name="three" format="2">
	<advance width="526"/>
	<unicode hex="0033"/>
	<guideline x="-151" y="0" angle="60"/>
	<guideline x="-185" y="0" angle="60"/>
	<guideline x="65" y="-291" angle="0"/>
	<outline>
		<contour>
			<point x="-42" y="-248" type="line"/>
			<point x="232" y="-216"/>
			<point x="449" y="-97"/>
			<point x="449" y="91" type="curve" smooth="yes"/>
			<point x="449" y="183"/>
			<point x="386" y="272"/>
			<point x="285" y="274" type="curve"/>
			<point x="459" y="315"/>
			<point x="575" y="414"/>
			<point x="575" y="534" type="curve" smooth="yes"/>
			<point x="575" y="607"/>
			<point x="525" y="685"/>
			<point x="409" y="685" type="curve" smooth="yes"/>
			<point x="262" y="685"/>
			<point x="179" y="587"/>
			<point x="179" y="511" type="curve" smooth="yes"/>
			<point x="179" y="475"/>
			<point x="199" y="459"/>
			<point x="223" y="459" type="curve" smooth="yes"/>
			<point x="250" y="459"/>
			<point x="267" y="475"/>
			<point x="267" y="511" type="curve" smooth="yes"/>
			<point x="267" y="575"/>
			<point x="288" y="652"/>
			<point x="409" y="652" type="curve" smooth="yes"/>
			<point x="498" y="652"/>
			<point x="541" y="594"/>
			<point x="541" y="534" type="curve" smooth="yes"/>
			<point x="541" y="422"/>
			<point x="441" y="333"/>
			<point x="167" y="273" type="curve"/>
			<point x="173" y="243" type="line"/>
			<point x="358" y="279"/>
			<point x="416" y="172"/>
			<point x="416" y="88" type="curve" smooth="yes"/>
			<point x="416" y="-67"/>
			<point x="226" y="-181"/>
			<point x="-48" y="-218" type="curve"/>
		</contour>
	</outline>
</glyph>
<glyph name="four" format="2">
	<advance width="592"/>
	<unicode hex="0034"/>
	<guideline x="45" y="0" angle="60"/>
	<guideline x="11" y="0" angle="60"/>
	<guideline x="309" y="0" angle="60"/>
	<guideline x="275" y="0" angle="60"/>
	<guideline x="183" y="-291" angle="0"/>
	<guideline x="92" y="145" angle="0"/>
	<guideline x="92" y="173" angle="0"/>
	<guideline x="-48" y="-246" angle="0"/>
	<outline>
		<contour>
			<point x="166" y="-250" type="line"/>
			<point x="370" y="108" type="line"/>
			<point x="582" y="106" type="line"/>
			<point x="582" y="141" type="line"/>
			<point x="389" y="141" type="line"/>
			<point x="549" y="415" type="line"/>
			<point x="517" y="433" type="line"/>
			<point x="348" y="141" type="line"/>
			<point x="115" y="141" type="line"/>
			<point x="179" y="217"/>
			<point x="260" y="312"/>
			<point x="326" y="395" type="curve" smooth="yes"/>
			<point x="409" y="500"/>
			<point x="492" y="632"/>
			<point x="492" y="700" type="curve"/>
			<point x="457" y="700" type="line"/>
			<point x="455" y="646"/>
			<point x="392" y="535"/>
			<point x="299" y="415" type="curve" smooth="yes"/>
			<point x="226" y="320"/>
			<point x="130" y="213"/>
			<point x="59" y="127" type="curve"/>
			<point x="67" y="108" type="line"/>
			<point x="329" y="108" type="line"/>
			<point x="136" y="-232" type="line"/>
		</contour>
	</outline>
</glyph>
<glyph name="five" format="2">
	<advance width="605"/>
	<unicode hex="0035"/>
	<guideline x="-57" y="-23" angle="60"/>
	<guideline x="-91" y="-23" angle="60"/>
	<guideline x="126" y="-291" angle="0"/>
	<guideline x="-792" y="-244" angle="0"/>
	<outline>
		<contour>
			<point x="17" y="-196" type="line"/>
			<point x="291" y="-164"/>
			<point x="508" y="-45"/>
			<point x="508" y="143" type="curve" smooth="yes"/>
			<point x="508" y="254"/>
			<point x="421" y="333"/>
			<point x="317" y="333" type="curve" smooth="yes"/>
			<point x="262" y="333"/>
			<point x="214" y="314"/>
			<point x="175" y="287" type="curve"/>
			<point x="397" y="669" type="line"/>
			<point x="679" y="669" type="line"/>
			<point x="679" y="700" type="line"/>
			<point x="378" y="700" type="line"/>
			<point x="110" y="239" type="line"/>
			<point x="140" y="221" type="line"/>
			<point x="196" y="269"/>
			<point x="245" y="303"/>
			<point x="317" y="302" type="curve" smooth="yes"/>
			<point x="405" y="302"/>
			<point x="475" y="233"/>
			<point x="475" y="140" type="curve" smooth="yes"/>
			<point x="475" y="-15"/>
			<point x="285" y="-129"/>
			<point x="11" y="-166" type="curve"/>
		</contour>
	</outline>
</glyph>
<glyph name="six" format="2">
	<advance width="537"/>
	<unicode hex="0036"/>
	<guideline x="87" y="0" angle="60"/>
	<guideline x="53" y="0" angle="60"/>
	<guideline x="489" y="1019" angle="0"/>
	<guideline x="699" y="921" angle="0"/>
	<guideline x="1196" y="723" angle="0"/>
	<outline>
		<contour>
			<point x="254" y="55" type="curve" smooth="yes"/>
			<point x="355" y="37"/>
			<point x="460" y="125"/>
			<point x="497" y="254" type="curve" smooth="yes"/>
			<point x="526" y="355"/>
			<point x="506" y="494"/>
			<point x="394" y="509" type="curve" smooth="yes"/>
			<point x="302" y="521"/>
			<point x="199" y="451"/>
			<point x="146" y="305" type="curve"/>
			<point x="166" y="234" type="line"/>
			<point x="172" y="409"/>
			<point x="315" y="498"/>
			<point x="397" y="481" type="curve" smooth="yes"/>
			<point x="495" y="461"/>
			<point x="489" y="324"/>
			<point x="470" y="259" type="curve" smooth="yes"/>
			<point x="442" y="164"/>
			<point x="356" y="65"/>
			<point x="258" y="84" type="curve" smooth="yes"/>
			<point x="184" y="98"/>
			<point x="165" y="179"/>
			<point x="166" y="234" type="curve" smooth="yes"/>
			<point x="171" y="498"/>
			<point x="461" y="739"/>
			<point x="569" y="743" type="curve" smooth="yes"/>
			<point x="599" y="744"/>
			<point x="619" y="705"/>
			<point x="657" y="705" type="curve" smooth="yes"/>
			<point x="685" y="705"/>
			<point x="708" y="724"/>
			<point x="704" y="753" type="curve" smooth="yes"/>
			<point x="700" y="779"/>
			<point x="668" y="791"/>
			<point x="631" y="791" type="curve" smooth="yes"/>
			<point x="476" y="791"/>
			<point x="149" y="541"/>
			<point x="136" y="234" type="curve" smooth="yes"/>
			<point x="133" y="162"/>
			<point x="166" y="71"/>
		</contour>
	</outline>
</glyph>
<glyph name="seven" format="2">
	<advance width="556"/>
	<unicode hex="0037"/>
	<guideline x="270" y="-21" angle="60"/>
	<guideline x="236" y="-21" angle="60"/>
	<guideline x="203" y="-291" angle="0"/>
	<outline>
		<contour>
			<point x="205" y="-291" type="curve" smooth="yes"/>
			<point x="229" y="-291"/>
			<point x="253" y="-269"/>
			<point x="254" y="-238" type="curve" smooth="yes"/>
			<point x="256" y="-179"/>
			<point x="208" y="-120"/>
			<point x="305" y="61" type="curve"/>
			<point x="629" y="632" type="line"/>
			<point x="629" y="661" type="line"/>
			<point x="209" y="661" type="line"/>
			<point x="209" y="628" type="line"/>
			<point x="593" y="629" type="line"/>
			<point x="362" y="227"/>
			<point x="288" y="101"/>
			<point x="248" y="32" type="curve" smooth="yes"/>
			<point x="204" y="-44"/>
			<point x="156" y="-143"/>
			<point x="156" y="-227" type="curve" smooth="yes"/>
			<point x="156" y="-254"/>
			<point x="170" y="-291"/>
		</contour>
	</outline>
</glyph>
<glyph name="eight" format="2">
	<advance width="465"/>
	<unicode hex="0038"/>
	<guideline x="21" y="0" angle="60"/>
	<guideline x="-13" y="0" angle="60"/>
	<guideline x="506" y="1019" angle="0"/>
	<guideline x="746" y="921" angle="0"/>
	<guideline x="410" y="991" angle="0"/>
	<outline>
		<contour>
			<point x="189" y="-18" type="curve" smooth="yes"/>
			<point x="352" y="-30"/>
			<point x="460" y="82"/>
			<point x="460" y="216" type="curve" smooth="yes"/>
			<point x="460" y="306.222"/>
			<point x="418.181" y="364.142"/>
			<point x="379.46" y="416.711" type="curve"/>
			<point x="468.245" y="454.146"/>
			<point x="540.561" y="500.426"/>
			<point x="541" y="597" type="curve" smooth="yes"/>
			<point x="541" y="654"/>
			<point x="509" y="710"/>
			<point x="432" y="710" type="curve" smooth="yes"/>
			<point x="360" y="710"/>
			<point x="289" y="652"/>
			<point x="289" y="556" type="curve" smooth="yes"/>
			<point x="289" y="503.561"/>
			<point x="312.431" y="464.464"/>
			<point x="340.39" y="425.911" type="curve"/>
			<point x="229.536" y="382.64"/>
			<point x="98.036" y="345.922"/>
			<point x="49" y="243" type="curve" smooth="yes"/>
			<point x="-18" y="103"/>
			<point x="80" y="-10"/>
		</contour>
		<contour>
			<point x="190" y="9" type="curve" smooth="yes"/>
			<point x="100" y="17"/>
			<point x="19" y="117"/>
			<point x="74" y="230" type="curve" smooth="yes"/>
			<point x="121.912" y="327.907"/>
			<point x="246.307" y="363.706"/>
			<point x="354.669" y="406.607" type="curve"/>
			<point x="392.651" y="355.785"/>
			<point x="433" y="302.224"/>
			<point x="433" y="217" type="curve" smooth="yes"/>
			<point x="433" y="99"/>
			<point x="335" y="-4"/>
		</contour>
		<contour>
			<point x="365.361" y="435.964" type="curve"/>
			<point x="337.824" y="474.128"/>
			<point x="315" y="511.184"/>
			<point x="315" y="558" type="curve" smooth="yes"/>
			<point x="315" y="619"/>
			<point x="361" y="682"/>
			<point x="430" y="684" type="curve" smooth="yes"/>
			<point x="504" y="686"/>
			<point x="515" y="619"/>
			<point x="515" y="597" type="curve" smooth="yes"/>
			<point x="515" y="512.996"/>
			<point x="448.843" y="470.802"/>
		</contour>
	</outline>
</glyph>
<glyph name="nine" format="2">
	<advance width="499"/>
	<unicode hex="0039"/>
	<guideline x="120" y="0" angle="60"/>
	<guideline x="86" y="0" angle="60"/>
	<guideline x="227" y="-291" angle="0"/>
	<guideline x="427" y="726" angle="0"/>
	<outline>
		<contour>
			<point x="91" y="-16" type="curve" smooth="yes"/>
			<point x="246" y="-16"/>
			<point x="573" y="234"/>
			<point x="586" y="541" type="curve" smooth="yes"/>
			<point x="589" y="613"/>
			<point x="556" y="704"/>
			<point x="468" y="720" type="curve" smooth="yes"/>
			<point x="367" y="738"/>
			<point x="262" y="650"/>
			<point x="225" y="521" type="curve" smooth="yes"/>
			<point x="196" y="420"/>
			<point x="216" y="281"/>
			<point x="328" y="266" type="curve" smooth="yes"/>
			<point x="420" y="254"/>
			<point x="523" y="324"/>
			<point x="576" y="470" type="curve"/>
			<point x="556" y="541" type="line"/>
			<point x="550" y="366"/>
			<point x="407" y="277"/>
			<point x="325" y="294" type="curve" smooth="yes"/>
			<point x="227" y="314"/>
			<point x="233" y="451"/>
			<point x="252" y="516" type="curve" smooth="yes"/>
			<point x="280" y="611"/>
			<point x="366" y="710"/>
			<point x="464" y="691" type="curve" smooth="yes"/>
			<point x="538" y="677"/>
			<point x="557" y="596"/>
			<point x="556" y="541" type="curve" smooth="yes"/>
			<point x="551" y="277"/>
			<point x="261" y="36"/>
			<point x="153" y="32" type="curve" smooth="yes"/>
			<point x="123" y="31"/>
			<point x="103" y="70"/>
			<point x="65" y="70" type="curve" smooth="yes"/>
			<point x="37" y="70"/>
			<point x="14" y="51"/>
			<point x="18" y="22" type="curve" smooth="yes"/>
			<point x="22" y="-4"/>
			<point x="54" y="-16"/>
		</contour>
	</outline>
</glyph>
<glyph name="colon" format="2">
	<advance width="533"/>
	<unicode hex="003A"/>
	<guideline x="148" y="0" angle="60"/>
	<guideline x="116" y="0" angle="60"/>
	<outline>
		<contour>
			<point x="295" y="331" type="curve" smooth="yes"/>
			<point x="323" y="331"/>
			<point x="346" y="354"/>
			<point x="346" y="383" type="curve" smooth="yes"/>
			<point x="346" y="412"/>
			<point x="323" y="435"/>
			<point x="295" y="435" type="curve" smooth="yes"/>
			<point x="266" y="435"/>
			<point x="243" y="412"/>
			<point x="243" y="383" type="curve" smooth="yes"/>
			<point x="243" y="354"/>
			<point x="266" y="331"/>
		</contour>
		<contour>
			<point x="152" y="3" type="curve" smooth="yes"/>
			<point x="180" y="3"/>
			<point x="203" y="26"/>
			<point x="203" y="55" type="curve" smooth="yes"/>
			<point x="203" y="84"/>
			<point x="180" y="107"/>
			<point x="152" y="107" type="curve" smooth="yes"/>
			<point x="123" y="107"/>
			<point x="100" y="84"/>
			<point x="100" y="55" type="curve" smooth="yes"/>
			<point x="100" y="26"/>
			<point x="123" y="3"/>
		</contour>
	</outline>
</glyph>
<glyph name="semicolon" format="2">
	<advance width="600"/>
	<unicode hex="003B"/>
	<outline>
		<contour>
			<point x="-2" y="-191" type="line"/>
			<point x="103" y="-150"/>
			<point x="183" y="-55"/>
			<point x="195" y="7" type="curve" smooth="yes"/>
			<point x="204" y="53"/>
			<point x="186" y="88"/>
			<point x="154" y="88" type="curve" smooth="yes"/>
			<point x="128" y="88"/>
			<point x="110" y="65"/>
			<point x="106" y="39" type="curve" smooth="yes"/>
			<point x="100" y="-2"/>
			<point x="107" y="-120"/>
			<point x="-13" y="-164" type="curve"/>
		</contour>
		<contour>
			<point x="382" y="396" type="curve" smooth="yes"/>
			<point x="410" y="396"/>
			<point x="433" y="419"/>
			<point x="433" y="448" type="curve" smooth="yes"/>
			<point x="433" y="477"/>
			<point x="410" y="500"/>
			<point x="382" y="500" type="curve" smooth="yes"/>
			<point x="353" y="500"/>
			<point x="330" y="477"/>
			<point x="330" y="448" type="curve" smooth="yes"/>
			<point x="330" y="419"/>
			<point x="353" y="396"/>
		</contour>
	</outline>
</glyph>
<glyph name="less" format="2">
	<advance width="707"/>
	<unicode hex="003C"/>
	<guideline x="483" y="452" angle="0"/>
	<outline>
		<contour>
			<point x="268" y="282" type="line"/>
			<point x="635" y="427" type="line"/>
			<point x="625" y="452" type="line"/>
			<point x="260" y="306" type="line"/>
		</contour>
		<contour>
			<point x="557" y="127" type="line"/>
			<point x="567" y="152" type="line"/>
			<point x="260" y="306" type="line"/>
			<point x="252" y="281" type="line"/>
		</contour>
	</outline>
</glyph>
<glyph name="equal" format="2">
	<advance width="762"/>
	<unicode hex="003D"/>
	<guideline x="796" y="422" angle="0"/>
	<guideline x="743" y="212" angle="0"/>
	<outline>
		<contour>
			<point x="265" y="325" type="line"/>
			<point x="721" y="325" type="line"/>
			<point x="721" y="351" type="line"/>
			<point x="265" y="351" type="line"/>
		</contour>
		<contour>
			<point x="183" y="125" type="line"/>
			<point x="639" y="125" type="line"/>
			<point x="639" y="151" type="line"/>
			<point x="183" y="151" type="line"/>
		</contour>
	</outline>
</glyph>
<glyph name="greater" format="2">
	<advance width="684"/>
	<unicode hex="003E"/>
	<guideline x="483" y="452" angle="0"/>
	<outline>
		<contour>
			<point x="215" y="127" type="line"/>
			<point x="580" y="273" type="line"/>
			<point x="572" y="297" type="line"/>
			<point x="205" y="152" type="line"/>
		</contour>
		<contour>
			<point x="580" y="273" type="line"/>
			<point x="588" y="298" type="line"/>
			<point x="283" y="452" type="line"/>
			<point x="273" y="427" type="line"/>
		</contour>
	</outline>
</glyph>
<glyph name="question" format="2">
	<advance width="586"/>
	<unicode hex="003F"/>
	<guideline x="1650" y="1024" angle="0"/>
	<outline>
		<contour>
			<point x="468" y="270" type="curve"/>
			<point x="457" y="294" type="line"/>
			<point x="404" y="272"/>
			<point x="374" y="283"/>
			<point x="362" y="307" type="curve" smooth="yes"/>
			<point x="343" y="344"/>
			<point x="363" y="401"/>
			<point x="455" y="471" type="curve" smooth="yes"/>
			<point x="614" y="592"/>
			<point x="782" y="697"/>
			<point x="782" y="838" type="curve" smooth="yes"/>
			<point x="782" y="938"/>
			<point x="714" y="1017"/>
			<point x="607" y="1019" type="curve" smooth="yes"/>
			<point x="435" y="1022"/>
			<point x="356" y="878"/>
			<point x="356" y="816" type="curve" smooth="yes"/>
			<point x="356" y="757"/>
			<point x="385" y="720"/>
			<point x="429" y="728" type="curve" smooth="yes"/>
			<point x="455" y="733"/>
			<point x="470" y="756"/>
			<point x="472" y="785" type="curve" smooth="yes"/>
			<point x="474" y="833"/>
			<point x="442" y="857"/>
			<point x="454" y="895" type="curve" smooth="yes"/>
			<point x="477" y="967"/>
			<point x="533" y="993"/>
			<point x="607" y="992" type="curve" smooth="yes"/>
			<point x="697" y="991"/>
			<point x="755" y="927"/>
			<point x="755" y="838" type="curve" smooth="yes"/>
			<point x="755" y="703"/>
			<point x="584" y="605"/>
			<point x="434" y="488" type="curve" smooth="yes"/>
			<point x="332" y="409"/>
			<point x="310" y="343"/>
			<point x="338" y="291" type="curve" smooth="yes"/>
			<point x="363" y="245"/>
			<point x="425" y="249"/>
		</contour>
		<contour>
			<point x="248" y="-16" type="curve" smooth="yes"/>
			<point x="276" y="-16"/>
			<point x="299" y="7"/>
			<point x="299" y="36" type="curve" smooth="yes"/>
			<point x="299" y="65"/>
			<point x="276" y="88"/>
			<point x="248" y="88" type="curve" smooth="yes"/>
			<point x="219" y="88"/>
			<point x="196" y="65"/>
			<point x="196" y="36" type="curve" smooth="yes"/>
			<point x="196" y="7"/>
			<point x="219" y="-16"/>
		</contour>
	</outline>
</glyph>
<glyph name="at" format="2">
	<advance width="1246"/>
	<unicode hex="0040"/>
	<guideline x="1008" y="-114" angle="0"/>
	<guideline x="848" y="700" angle="0"/>
	<anchor x="1717" y="696" name="top"/>
	<outline>
		<contour>
			<point x="512" y="-250" type="curve" smooth="yes"/>
			<point x="605" y="-249"/>
			<point x="811" y="-248"/>
			<point x="1111" y="155" type="curve"/>
			<point x="1087" y="176" type="line"/>
			<point x="795" y="-215"/>
			<point x="600" y="-217"/>
			<point x="516" y="-219" type="curve" smooth="yes"/>
			<point x="334" y="-223"/>
			<point x="176" y="-88"/>
			<point x="176" y="115" type="curve" smooth="yes"/>
			<point x="176" y="418"/>
			<point x="446" y="681"/>
			<point x="690" y="679" type="curve" smooth="yes"/>
			<point x="828" y="678"/>
			<point x="948" y="599"/>
			<point x="953" y="434" type="curve" smooth="yes"/>
			<point x="963" y="106"/>
			<point x="660" y="-67"/>
			<point x="592" y="19" type="curve" smooth="yes"/>
			<point x="554" y="67"/>
			<point x="601" y="153"/>
			<point x="619" y="183" type="curve" smooth="yes"/>
			<point x="742" y="395" type="line"/>
			<point x="764" y="403"/>
			<point x="777" y="420"/>
			<point x="777" y="446" type="curve" smooth="yes"/>
			<point x="777" y="477"/>
			<point x="749" y="494"/>
			<point x="714" y="494" type="curve" smooth="yes"/>
			<point x="574" y="494"/>
			<point x="460" y="359"/>
			<point x="366" y="151" type="curve" smooth="yes"/>
			<point x="334" y="80"/>
			<point x="323" y="-19"/>
			<point x="409" y="-19" type="curve" smooth="yes"/>
			<point x="458" y="-19"/>
			<point x="503" y="14"/>
			<point x="544" y="75" type="curve"/>
			<point x="544" y="26"/>
			<point x="558" y="-4"/>
			<point x="588" y="-19" type="curve" smooth="yes"/>
			<point x="714" y="-82"/>
			<point x="982" y="99"/>
			<point x="984" y="427" type="curve" smooth="yes"/>
			<point x="985" y="613"/>
			<point x="856" y="708"/>
			<point x="691" y="710" type="curve" smooth="yes"/>
			<point x="418" y="713"/>
			<point x="141" y="417"/>
			<point x="144" y="120" type="curve" smooth="yes"/>
			<point x="146" y="-104"/>
			<point x="309" y="-252"/>
		</contour>
		<contour>
			<point x="413" y="9" type="curve" smooth="yes"/>
			<point x="352" y="9"/>
			<point x="369" y="91"/>
			<point x="397" y="151" type="curve" smooth="yes"/>
			<point x="453" y="271"/>
			<point x="549" y="389"/>
			<point x="705" y="390" type="curve"/>
			<point x="591" y="191" type="line" smooth="yes"/>
			<point x="531" y="86"/>
			<point x="464" y="9"/>
		</contour>
	</outline>
</glyph>
<glyph name="B" format="2">
	<advance width="1012"/>
	<unicode hex="0042"/>
	<guideline x="1064" y="1019" angle="0"/>
	<guideline x="384" y="-15" angle="0"/>
	<guideline x="383" y="0" angle="60"/>
	<guideline x="350" y="0" angle="60"/>
	<guideline x="391" y="13" angle="0"/>
	<outline>
		<contour>
			<point x="267" y="-15" type="curve" smooth="yes"/>
			<point x="303" y="-14"/>
			<point x="357" y="6"/>
			<point x="399" y="54" type="curve" smooth="yes"/>
			<point x="431" y="90"/>
			<point x="463" y="139"/>
			<point x="503" y="208" type="curve" smooth="yes"/>
			<point x="538" y="269"/>
			<point x="577" y="340"/>
			<point x="632" y="431" type="curve" smooth="yes"/>
			<point x="709" y="564"/>
			<point x="781" y="699"/>
			<point x="914" y="777" type="curve" smooth="yes"/>
			<point x="1001" y="828"/>
			<point x="944" y="912"/>
			<point x="886" y="882" type="curve" smooth="yes"/>
			<point x="857" y="867"/>
			<point x="848" y="860"/>
			<point x="787" y="756" type="curve" smooth="yes"/>
			<point x="599" y="431" type="line" smooth="yes"/>
			<point x="558" y="361"/>
			<point x="518" y="288"/>
			<point x="479" y="223" type="curve" smooth="yes"/>
			<point x="446" y="168"/>
			<point x="413" y="110"/>
			<point x="378" y="71" type="curve" smooth="yes"/>
			<point x="342" y="32"/>
			<point x="296" y="14"/>
			<point x="266" y="13" type="curve" smooth="yes"/>
			<point x="181" y="12"/>
			<point x="138" y="102"/>
			<point x="141" y="237" type="curve" smooth="yes"/>
			<point x="150" y="612"/>
			<point x="501" y="990"/>
			<point x="880" y="990" type="curve" smooth="yes"/>
			<point x="1027" y="990"/>
			<point x="1128" y="920"/>
			<point x="1128" y="809" type="curve" smooth="yes"/>
			<point x="1128" y="624"/>
			<point x="885" y="599"/>
			<point x="884" y="483" type="curve" smooth="yes"/>
			<point x="883" y="380"/>
			<point x="947" y="327"/>
			<point x="947" y="201" type="curve" smooth="yes"/>
			<point x="947" y="104"/>
			<point x="876" y="13"/>
			<point x="727" y="13" type="curve" smooth="yes"/>
			<point x="673" y="13"/>
			<point x="642" y="32"/>
			<point x="642" y="62" type="curve" smooth="yes"/>
			<point x="642" y="95"/>
			<point x="695" y="110"/>
			<point x="736" y="117" type="curve" smooth="yes"/>
			<point x="781" y="125"/>
			<point x="922" y="150"/>
			<point x="956" y="162" type="curve" smooth="yes"/>
			<point x="1020" y="184"/>
			<point x="1068" y="213"/>
			<point x="1135" y="270" type="curve"/>
			<point x="1115" y="290" type="line" smooth="yes"/>
			<point x="1075" y="245"/>
			<point x="1012" y="209"/>
			<point x="951" y="191" type="curve" smooth="yes"/>
			<point x="907" y="178"/>
			<point x="777" y="152"/>
			<point x="738" y="145" type="curve" smooth="yes"/>
			<point x="677" y="134"/>
			<point x="614" y="109"/>
			<point x="614" y="65" type="curve" smooth="yes"/>
			<point x="614" y="21"/>
			<point x="656" y="-15"/>
			<point x="731" y="-15" type="curve" smooth="yes"/>
			<point x="877" y="-15"/>
			<point x="974" y="74"/>
			<point x="974" y="203" type="curve" smooth="yes"/>
			<point x="974" y="329"/>
			<point x="911" y="387"/>
			<point x="912" y="483" type="curve" smooth="yes"/>
			<point x="913" y="571"/>
			<point x="1156" y="614"/>
			<point x="1156" y="810" type="curve" smooth="yes"/>
			<point x="1156" y="945"/>
			<point x="1038" y="1018"/>
			<point x="880" y="1018" type="curve" smooth="yes"/>
			<point x="484" y="1018"/>
			<point x="123" y="637"/>
			<point x="110" y="242" type="curve" smooth="yes"/>
			<point x="105" y="87"/>
			<point x="161" y="-17"/>
		</contour>
	</outline>
</glyph>
<glyph name="C" format="2">
	<advance width="521"/>
	<unicode hex="0043"/>
	<guideline x="400" y="-9" angle="0"/>
	<guideline x="407" y="19" angle="0"/>
	<outline>
		<contour>
			<point x="206" y="-9" type="curve" smooth="yes"/>
			<point x="349" y="-9"/>
			<point x="502" y="117"/>
			<point x="644" y="270" type="curve"/>
			<point x="624" y="290" type="line"/>
			<point x="502" y="153"/>
			<point x="341" y="19"/>
			<point x="207" y="19" type="curve" smooth="yes"/>
			<point x="75" y="19"/>
			<point x="28" y="104"/>
			<point x="28" y="239" type="curve" smooth="yes"/>
			<point x="28" y="554"/>
			<point x="348" y="996"/>
			<point x="612" y="993" type="curve" smooth="yes"/>
			<point x="699" y="992"/>
			<point x="752" y="942"/>
			<point x="752" y="863" type="curve" smooth="yes"/>
			<point x="752" y="728"/>
			<point x="631" y="637"/>
			<point x="471" y="667" type="curve" smooth="yes"/>
			<point x="430" y="675"/>
			<point x="408" y="650"/>
			<point x="408" y="622" type="curve" smooth="yes"/>
			<point x="408" y="590"/>
			<point x="435" y="570"/>
			<point x="477" y="569" type="curve" smooth="yes"/>
			<point x="608" y="566"/>
			<point x="779" y="703"/>
			<point x="779" y="863" type="curve" smooth="yes"/>
			<point x="779" y="959"/>
			<point x="712" y="1019"/>
			<point x="611" y="1019" type="curve" smooth="yes"/>
			<point x="330" y="1019"/>
			<point x="0" y="564"/>
			<point x="0" y="245" type="curve" smooth="yes"/>
			<point x="0" y="85"/>
			<point x="64" y="-9"/>
		</contour>
	</outline>
</glyph>
<glyph name="D" format="2">
	<advance width="1047"/>
	<unicode hex="0044"/>
	<guideline x="367" y="0" angle="60"/>
	<guideline x="334" y="0" angle="60"/>
	<guideline x="401" y="-15" angle="0"/>
	<outline>
		<contour>
			<point x="247" y="-15" type="curve" smooth="yes"/>
			<point x="330" y="-12"/>
			<point x="387" y="35"/>
			<point x="493" y="217" type="curve" smooth="yes"/>
			<point x="524" y="270"/>
			<point x="572" y="357"/>
			<point x="615" y="431" type="curve" smooth="yes"/>
			<point x="693" y="565"/>
			<point x="763" y="699"/>
			<point x="896" y="777" type="curve" smooth="yes"/>
			<point x="983" y="828"/>
			<point x="926" y="912"/>
			<point x="868" y="882" type="curve" smooth="yes"/>
			<point x="839" y="867"/>
			<point x="830" y="861"/>
			<point x="770" y="756" type="curve" smooth="yes"/>
			<point x="730" y="686"/>
			<point x="662" y="568"/>
			<point x="589" y="442" type="curve" smooth="yes"/>
			<point x="553" y="380"/>
			<point x="505" y="293"/>
			<point x="470" y="236" type="curve" smooth="yes"/>
			<point x="389" y="103"/>
			<point x="330" y="14"/>
			<point x="246" y="13" type="curve" smooth="yes"/>
			<point x="181" y="12"/>
			<point x="134" y="100"/>
			<point x="137" y="235" type="curve" smooth="yes"/>
			<point x="144" y="579"/>
			<point x="453" y="992"/>
			<point x="803" y="992" type="curve" smooth="yes"/>
			<point x="967" y="992"/>
			<point x="1114" y="863"/>
			<point x="1114" y="645" type="curve" smooth="yes"/>
			<point x="1114" y="347"/>
			<point x="884" y="13"/>
			<point x="635" y="13" type="curve" smooth="yes"/>
			<point x="595" y="13"/>
			<point x="557" y="22"/>
			<point x="557" y="48" type="curve" smooth="yes"/>
			<point x="557" y="142"/>
			<point x="1016" y="101"/>
			<point x="1169" y="270" type="curve"/>
			<point x="1149" y="290" type="line"/>
			<point x="993" y="120"/>
			<point x="526" y="181"/>
			<point x="529" y="47" type="curve" smooth="yes"/>
			<point x="530" y="8"/>
			<point x="579" y="-15"/>
			<point x="632" y="-15" type="curve" smooth="yes"/>
			<point x="905" y="-15"/>
			<point x="1142" y="329"/>
			<point x="1142" y="648" type="curve" smooth="yes"/>
			<point x="1142" y="888"/>
			<point x="984" y="1019"/>
			<point x="803" y="1018" type="curve" smooth="yes"/>
			<point x="435" y="1016"/>
			<point x="118" y="602"/>
			<point x="106" y="235" type="curve" smooth="yes"/>
			<point x="101" y="80"/>
			<point x="156" y="-18"/>
		</contour>
	</outline>
</glyph>
<glyph name="F" format="2">
	<advance width="997"/>
	<unicode hex="0046"/>
	<guideline x="665" y="0" angle="60"/>
	<guideline x="632" y="0" angle="60"/>
	<outline>
		<contour>
			<point x="341" y="-10" type="curve" smooth="yes"/>
			<point x="571" y="-15"/>
			<point x="785" y="208"/>
			<point x="954" y="500" type="curve" smooth="yes"/>
			<point x="1086" y="728" type="line" smooth="yes"/>
			<point x="1213" y="947"/>
			<point x="1352" y="990"/>
			<point x="1420" y="990" type="curve" smooth="yes"/>
			<point x="1442" y="990"/>
			<point x="1453" y="983"/>
			<point x="1453" y="971" type="curve" smooth="yes"/>
			<point x="1453" y="945"/>
			<point x="1407" y="913"/>
			<point x="1288" y="913" type="curve" smooth="yes"/>
			<point x="1068" y="913"/>
			<point x="893" y="1019"/>
			<point x="671" y="1018" type="curve" smooth="yes"/>
			<point x="439" y="1017"/>
			<point x="327" y="864"/>
			<point x="326" y="728" type="curve" smooth="yes"/>
			<point x="325" y="590"/>
			<point x="417" y="478"/>
			<point x="589" y="478" type="curve" smooth="yes"/>
			<point x="745" y="478"/>
			<point x="856" y="612"/>
			<point x="849" y="738" type="curve"/>
			<point x="822" y="737" type="line"/>
			<point x="827" y="612"/>
			<point x="718" y="503"/>
			<point x="589" y="503" type="curve" smooth="yes"/>
			<point x="432" y="503"/>
			<point x="353" y="602"/>
			<point x="353" y="728" type="curve" smooth="yes"/>
			<point x="353" y="842"/>
			<point x="448" y="993"/>
			<point x="671" y="993" type="curve" smooth="yes"/>
			<point x="893" y="993"/>
			<point x="1061" y="885"/>
			<point x="1288" y="885" type="curve" smooth="yes"/>
			<point x="1430" y="885"/>
			<point x="1487" y="933"/>
			<point x="1487" y="970" type="curve" smooth="yes"/>
			<point x="1487" y="999"/>
			<point x="1461" y="1019"/>
			<point x="1420" y="1019" type="curve" smooth="yes"/>
			<point x="1352" y="1019"/>
			<point x="1203" y="989"/>
			<point x="1055" y="732" type="curve" smooth="yes"/>
			<point x="921" y="500" type="line" smooth="yes"/>
			<point x="755" y="211"/>
			<point x="559" y="19"/>
			<point x="341" y="19" type="curve" smooth="yes"/>
			<point x="220" y="19"/>
			<point x="141" y="115"/>
			<point x="141" y="205" type="curve" smooth="yes"/>
			<point x="141" y="309"/>
			<point x="201" y="344"/>
			<point x="224" y="345" type="curve" smooth="yes"/>
			<point x="275" y="347"/>
			<point x="317" y="321"/>
			<point x="360" y="321" type="curve" smooth="yes"/>
			<point x="399" y="321"/>
			<point x="435" y="347"/>
			<point x="435" y="385" type="curve" smooth="yes"/>
			<point x="435" y="436"/>
			<point x="389" y="464"/>
			<point x="333" y="464" type="curve" smooth="yes"/>
			<point x="229" y="464"/>
			<point x="110" y="380"/>
			<point x="110" y="206" type="curve" smooth="yes"/>
			<point x="110" y="96"/>
			<point x="208" y="-7"/>
		</contour>
		<contour>
			<point x="905" y="422" type="move"/>
		</contour>
		<contour>
			<point x="884" y="391" type="line"/>
			<point x="947" y="489"/>
			<point x="1050" y="421"/>
			<point x="1081" y="414" type="curve" smooth="yes"/>
			<point x="1100" y="410"/>
			<point x="1128" y="419"/>
			<point x="1133" y="441" type="curve" smooth="yes"/>
			<point x="1138" y="465"/>
			<point x="1126" y="488"/>
			<point x="1090" y="495" type="curve" smooth="yes"/>
			<point x="1028" y="507"/>
			<point x="954" y="491"/>
			<point x="883" y="422" type="curve"/>
		</contour>
	</outline>
</glyph>
<glyph name="G" format="2">
	<advance width="1024"/>
	<unicode hex="0047"/>
	<outline>
		<contour>
			<point x="240" y="-287" type="curve" smooth="yes"/>
			<point x="374" y="-287"/>
			<point x="612" y="-194"/>
			<point x="825" y="248" type="curve"/>
			<point x="954" y="360" type="line" smooth="yes"/>
			<point x="1004" y="403"/>
			<point x="1014" y="460"/>
			<point x="975" y="482" type="curve" smooth="yes"/>
			<point x="925" y="510"/>
			<point x="886" y="465"/>
			<point x="864" y="414" type="curve" smooth="yes"/>
			<point x="800" y="266" type="line"/>
			<point x="619" y="108"/>
			<point x="495" y="32"/>
			<point x="377" y="32" type="curve" smooth="yes"/>
			<point x="285" y="32"/>
			<point x="244" y="115"/>
			<point x="244" y="222" type="curve" smooth="yes"/>
			<point x="244" y="595"/>
			<point x="636" y="991"/>
			<point x="991" y="991" type="curve" smooth="yes"/>
			<point x="1129" y="991"/>
			<point x="1183" y="912"/>
			<point x="1183" y="837" type="curve" smooth="yes"/>
			<point x="1183" y="723"/>
			<point x="1046" y="611"/>
			<point x="856" y="589" type="curve"/>
			<point x="857" y="556" type="line"/>
			<point x="1067" y="581"/>
			<point x="1214" y="697"/>
			<point x="1214" y="839" type="curve" smooth="yes"/>
			<point x="1214" y="942"/>
			<point x="1141" y="1018"/>
			<point x="988" y="1018" type="curve" smooth="yes"/>
			<point x="614" y="1018"/>
			<point x="215" y="607"/>
			<point x="215" y="224" type="curve" smooth="yes"/>
			<point x="215" y="90"/>
			<point x="269" y="2"/>
			<point x="380" y="2" type="curve" smooth="yes"/>
			<point x="487" y="2"/>
			<point x="627" y="75"/>
			<point x="768" y="204" type="curve"/>
			<point x="590" y="-161"/>
			<point x="362" y="-257"/>
			<point x="239" y="-257" type="curve" smooth="yes"/>
			<point x="169" y="-257"/>
			<point x="141" y="-220"/>
			<point x="141" y="-184" type="curve" smooth="yes"/>
			<point x="141" y="-127"/>
			<point x="187" y="-103"/>
			<point x="288" y="-98" type="curve" smooth="yes"/>
			<point x="767" y="-74"/>
			<point x="935" y="34"/>
			<point x="1147" y="271" type="curve"/>
			<point x="1127" y="290" type="line"/>
			<point x="915" y="55"/>
			<point x="760" y="-41"/>
			<point x="288" y="-71" type="curve" smooth="yes"/>
			<point x="159" y="-79"/>
			<point x="110" y="-118"/>
			<point x="110" y="-183" type="curve" smooth="yes"/>
			<point x="110" y="-244"/>
			<point x="162" y="-287"/>
		</contour>
	</outline>
</glyph>
<glyph name="H" format="2">
	<advance width="1231"/>
	<unicode hex="0048"/>
	<guideline x="671" y="-12" angle="60"/>
	<guideline x="701" y="-21" angle="60"/>
	<guideline x="968" y="-52" angle="60"/>
	<guideline x="998" y="-61" angle="60"/>
	<outline>
		<contour>
			<point x="361" y="-10" type="curve" smooth="yes"/>
			<point x="647" y="-8"/>
			<point x="776" y="108"/>
			<point x="972" y="448" type="curve" smooth="yes"/>
			<point x="1080" y="636"/>
			<point x="1160" y="772"/>
			<point x="1263" y="954" type="curve" smooth="yes"/>
			<point x="1289" y="1001"/>
			<point x="1268" y="1017"/>
			<point x="1209" y="1019" type="curve" smooth="yes"/>
			<point x="964" y="1028"/>
			<point x="864" y="867"/>
			<point x="837" y="790" type="curve"/>
			<point x="866" y="782" type="line"/>
			<point x="889" y="846"/>
			<point x="985" y="998"/>
			<point x="1206" y="991" type="curve" smooth="yes"/>
			<point x="1238" y="990"/>
			<point x="1249" y="989"/>
			<point x="1236" y="967" type="curve" smooth="yes"/>
			<point x="1135" y="791"/>
			<point x="1054" y="652"/>
			<point x="939" y="453" type="curve" smooth="yes"/>
			<point x="775" y="169"/>
			<point x="637" y="19"/>
			<point x="361" y="19" type="curve" smooth="yes"/>
			<point x="220" y="19"/>
			<point x="141" y="115"/>
			<point x="141" y="205" type="curve" smooth="yes"/>
			<point x="141" y="309"/>
			<point x="201" y="344"/>
			<point x="254" y="345" type="curve" smooth="yes"/>
			<point x="305" y="346"/>
			<point x="317" y="321"/>
			<point x="360" y="321" type="curve" smooth="yes"/>
			<point x="399" y="321"/>
			<point x="435" y="347"/>
			<point x="435" y="385" type="curve" smooth="yes"/>
			<point x="435" y="436"/>
			<point x="389" y="464"/>
			<point x="333" y="464" type="curve" smooth="yes"/>
			<point x="229" y="464"/>
			<point x="110" y="380"/>
			<point x="110" y="206" type="curve" smooth="yes"/>
			<point x="110" y="96"/>
			<point x="208" y="-11"/>
		</contour>
		<contour>
			<point x="1033" y="0" type="line"/>
			<point x="1058" y="79" type="line"/>
			<point x="1107" y="349"/>
			<point x="960" y="558"/>
			<point x="826" y="558" type="curve" smooth="yes"/>
			<point x="739" y="558"/>
			<point x="700" y="501"/>
			<point x="700" y="435" type="curve" smooth="yes"/>
			<point x="700" y="281"/>
			<point x="934" y="150"/>
			<point x="1111" y="150" type="curve" smooth="yes"/>
			<point x="1204" y="150"/>
			<point x="1301" y="198"/>
			<point x="1374" y="270" type="curve"/>
			<point x="1354" y="290" type="line"/>
			<point x="1267" y="209"/>
			<point x="1190" y="180"/>
			<point x="1110" y="180" type="curve" smooth="yes"/>
			<point x="978" y="180"/>
			<point x="733" y="284"/>
			<point x="733" y="435" type="curve" smooth="yes"/>
			<point x="733" y="495"/>
			<point x="769" y="525"/>
			<point x="826" y="525" type="curve" smooth="yes"/>
			<point x="958" y="525"/>
			<point x="1099" y="280"/>
			<point x="1007" y="16" type="curve"/>
		</contour>
		<contour>
			<point x="1033" y="0" type="line"/>
			<point x="1137" y="180"/>
			<point x="1231" y="343"/>
			<point x="1309" y="478" type="curve" smooth="yes"/>
			<point x="1370" y="584"/>
			<point x="1426" y="681"/>
			<point x="1456" y="733" type="curve" smooth="yes"/>
			<point x="1577" y="945"/>
			<point x="1699" y="1017"/>
			<point x="1826" y="1017" type="curve" smooth="yes"/>
			<point x="1933" y="1017"/>
			<point x="1977" y="950"/>
			<point x="1977" y="882" type="curve" smooth="yes"/>
			<point x="1977" y="802"/>
			<point x="1920" y="751"/>
			<point x="1855" y="725" type="curve"/>
			<point x="1865" y="694" type="line"/>
			<point x="1942" y="722"/>
			<point x="2009" y="786"/>
			<point x="2009" y="884" type="curve" smooth="yes"/>
			<point x="2009" y="965"/>
			<point x="1950" y="1049"/>
			<point x="1825" y="1047" type="curve" smooth="yes"/>
			<point x="1685" y="1045"/>
			<point x="1561" y="968"/>
			<point x="1426" y="743" type="curve" smooth="yes"/>
			<point x="1395" y="690"/>
			<point x="1339" y="592"/>
			<point x="1278" y="485" type="curve" smooth="yes"/>
			<point x="1200" y="348"/>
			<point x="1116" y="204"/>
			<point x="1007" y="16" type="curve"/>
		</contour>
	</outline>
</glyph>
<glyph name="J" format="2">
	<advance width="813"/>
	<unicode hex="004A"/>
	<guideline x="565" y="0" angle="60"/>
	<guideline x="532" y="0" angle="60"/>
	<guideline x="174" y="-290" angle="0"/>
	<outline>
		<contour>
			<point x="196" y="-297" type="curve" smooth="yes"/>
			<point x="264" y="-297"/>
			<point x="356" y="-274"/>
			<point x="428" y="-206" type="curve" smooth="yes"/>
			<point x="473" y="-163"/>
			<point x="509" y="-100"/>
			<point x="560" y="-10" type="curve" smooth="yes"/>
			<point x="909" y="595" type="line" smooth="yes"/>
			<point x="983" y="724"/>
			<point x="1042" y="813"/>
			<point x="1094" y="876" type="curve"/>
			<point x="1277" y="940"/>
			<point x="1319" y="990"/>
			<point x="1294" y="1033" type="curve" smooth="yes"/>
			<point x="1269" y="1077"/>
			<point x="1211" y="1059"/>
			<point x="1177" y="1017" type="curve" smooth="yes"/>
			<point x="1085" y="906" type="line"/>
			<point x="930" y="931"/>
			<point x="844" y="1019"/>
			<point x="671" y="1018" type="curve" smooth="yes"/>
			<point x="469" y="1017"/>
			<point x="387" y="905"/>
			<point x="386" y="777" type="curve" smooth="yes"/>
			<point x="385" y="659"/>
			<point x="477" y="558"/>
			<point x="649" y="558" type="curve"/>
			<point x="649" y="583" type="line"/>
			<point x="492" y="583"/>
			<point x="413" y="671"/>
			<point x="413" y="777" type="curve" smooth="yes"/>
			<point x="413" y="883"/>
			<point x="478" y="993"/>
			<point x="671" y="993" type="curve" smooth="yes"/>
			<point x="837" y="993"/>
			<point x="919" y="910"/>
			<point x="1065" y="881" type="curve"/>
			<point x="1013" y="816"/>
			<point x="952" y="725"/>
			<point x="879" y="598" type="curve" smooth="yes"/>
			<point x="694" y="278" type="line" smooth="yes"/>
			<point x="662" y="223"/>
			<point x="607" y="124"/>
			<point x="528" y="-8" type="curve" smooth="yes"/>
			<point x="509" y="-41"/>
			<point x="456" y="-133"/>
			<point x="410" y="-181" type="curve" smooth="yes"/>
			<point x="353" y="-240"/>
			<point x="250" y="-267"/>
			<point x="193" y="-267" type="curve" smooth="yes"/>
			<point x="133" y="-267"/>
			<point x="67" y="-252"/>
			<point x="67" y="-205" type="curve" smooth="yes"/>
			<point x="67" y="-127"/>
			<point x="185" y="-91"/>
			<point x="279" y="-71" type="curve" smooth="yes"/>
			<point x="334" y="-60"/>
			<point x="435" y="-31"/>
			<point x="501" y="-9" type="curve" smooth="yes"/>
			<point x="559" y="10"/>
			<point x="646" y="46"/>
			<point x="685" y="65" type="curve" smooth="yes"/>
			<point x="732" y="88"/>
			<point x="822" y="146"/>
			<point x="898" y="229" type="curve" smooth="yes"/>
			<point x="936" y="270" type="line"/>
			<point x="916" y="290" type="line"/>
			<point x="871" y="241" type="line" smooth="yes"/>
			<point x="784" y="146"/>
			<point x="693" y="97"/>
			<point x="671" y="88" type="curve" smooth="yes"/>
			<point x="625" y="69"/>
			<point x="537" y="32"/>
			<point x="488" y="17" type="curve" smooth="yes"/>
			<point x="423" y="-3"/>
			<point x="328" y="-29"/>
			<point x="271" y="-42" type="curve" smooth="yes"/>
			<point x="166" y="-66"/>
			<point x="37" y="-110"/>
			<point x="37" y="-205" type="curve" smooth="yes"/>
			<point x="37" y="-276"/>
			<point x="113" y="-297"/>
		</contour>
		<contour>
			<point x="565" y="0" type="move"/>
		</contour>
	</outline>
</glyph>
<glyph name="K" format="2">
	<advance width="1311"/>
	<unicode hex="004B"/>
	<guideline x="988" y="-78" angle="60"/>
	<guideline x="960" y="-66" angle="60"/>
	<guideline x="1461" y="0" angle="60"/>
	<guideline x="1428" y="0" angle="60"/>
	<outline>
		<contour>
			<point x="1113" y="-10" type="curve" smooth="yes"/>
			<point x="1217" y="-8"/>
			<point x="1405" y="242"/>
			<point x="1434" y="270" type="curve"/>
			<point x="1414" y="290" type="line"/>
			<point x="1341" y="211"/>
			<point x="1199" y="19"/>
			<point x="1114" y="19" type="curve" smooth="yes"/>
			<point x="1049" y="19"/>
			<point x="1069" y="115"/>
			<point x="1086" y="279" type="curve" smooth="yes"/>
			<point x="1106" y="466"/>
			<point x="967" y="527"/>
			<point x="898" y="523" type="curve" smooth="yes"/>
			<point x="851" y="520"/>
			<point x="828" y="501"/>
			<point x="830" y="465" type="curve" smooth="yes"/>
			<point x="833" y="408"/>
			<point x="908" y="376"/>
			<point x="962" y="377" type="curve" smooth="yes"/>
			<point x="1100" y="380"/>
			<point x="1264" y="441"/>
			<point x="1456" y="733" type="curve" smooth="yes"/>
			<point x="1592" y="939"/>
			<point x="1699" y="1017"/>
			<point x="1826" y="1017" type="curve" smooth="yes"/>
			<point x="1933" y="1017"/>
			<point x="1977" y="950"/>
			<point x="1977" y="882" type="curve" smooth="yes"/>
			<point x="1977" y="787"/>
			<point x="1871" y="732"/>
			<point x="1800" y="726" type="curve"/>
			<point x="1803" y="698" type="line"/>
			<point x="1889" y="698"/>
			<point x="2009" y="768"/>
			<point x="2009" y="884" type="curve" smooth="yes"/>
			<point x="2009" y="965"/>
			<point x="1950" y="1049"/>
			<point x="1825" y="1047" type="curve" smooth="yes"/>
			<point x="1685" y="1045"/>
			<point x="1570" y="961"/>
			<point x="1426" y="743" type="curve" smooth="yes"/>
			<point x="1213" y="421"/>
			<point x="1037" y="403"/>
			<point x="964" y="403" type="curve" smooth="yes"/>
			<point x="914" y="403"/>
			<point x="859" y="434"/>
			<point x="859" y="466" type="curve" smooth="yes"/>
			<point x="859" y="484"/>
			<point x="866" y="498"/>
			<point x="905" y="498" type="curve" smooth="yes"/>
			<point x="993" y="498"/>
			<point x="1068" y="404"/>
			<point x="1058" y="304" type="curve" smooth="yes"/>
			<point x="1047" y="192"/>
			<point x="992" y="-12"/>
		</contour>
		<contour>
			<point x="361" y="-10" type="curve" smooth="yes"/>
			<point x="647" y="-8"/>
			<point x="776" y="108"/>
			<point x="972" y="448" type="curve" smooth="yes"/>
			<point x="1080" y="636"/>
			<point x="1160" y="772"/>
			<point x="1263" y="954" type="curve" smooth="yes"/>
			<point x="1289" y="1001"/>
			<point x="1268" y="1017"/>
			<point x="1209" y="1019" type="curve" smooth="yes"/>
			<point x="964" y="1028"/>
			<point x="864" y="867"/>
			<point x="837" y="790" type="curve"/>
			<point x="866" y="782" type="line"/>
			<point x="889" y="846"/>
			<point x="985" y="998"/>
			<point x="1206" y="991" type="curve" smooth="yes"/>
			<point x="1238" y="990"/>
			<point x="1249" y="989"/>
			<point x="1236" y="967" type="curve" smooth="yes"/>
			<point x="1135" y="791"/>
			<point x="1054" y="652"/>
			<point x="939" y="453" type="curve" smooth="yes"/>
			<point x="775" y="169"/>
			<point x="637" y="19"/>
			<point x="361" y="19" type="curve" smooth="yes"/>
			<point x="220" y="19"/>
			<point x="141" y="115"/>
			<point x="141" y="205" type="curve" smooth="yes"/>
			<point x="141" y="309"/>
			<point x="201" y="344"/>
			<point x="254" y="345" type="curve" smooth="yes"/>
			<point x="305" y="346"/>
			<point x="317" y="321"/>
			<point x="360" y="321" type="curve" smooth="yes"/>
			<point x="399" y="321"/>
			<point x="435" y="347"/>
			<point x="435" y="385" type="curve" smooth="yes"/>
			<point x="435" y="436"/>
			<point x="389" y="464"/>
			<point x="333" y="464" type="curve" smooth="yes"/>
			<point x="229" y="464"/>
			<point x="110" y="380"/>
			<point x="110" y="206" type="curve" smooth="yes"/>
			<point x="110" y="96"/>
			<point x="208" y="-11"/>
		</contour>
	</outline>
</glyph>
<glyph name="L" format="2">
	<advance width="1070"/>
	<unicode hex="004C"/>
	<guideline x="499" y="-12" angle="60"/>
	<guideline x="529" y="-21" angle="60"/>
	<guideline x="557" y="-21" angle="0"/>
	<guideline x="561" y="7" angle="0"/>
	<outline>
		<contour>
			<point x="432" y="41" type="line"/>
			<point x="588" y="91"/>
			<point x="724" y="316"/>
			<point x="806" y="459" type="curve" smooth="yes"/>
			<point x="987" y="774"/>
			<point x="1161" y="994"/>
			<point x="1322" y="1004" type="curve" smooth="yes"/>
			<point x="1371" y="1007"/>
			<point x="1403" y="972"/>
			<point x="1403" y="931" type="curve" smooth="yes"/>
			<point x="1403" y="781"/>
			<point x="1174" y="574"/>
			<point x="924" y="564" type="curve"/>
			<point x="924" y="531" type="line"/>
			<point x="1193" y="541"/>
			<point x="1434" y="762"/>
			<point x="1434" y="932" type="curve" smooth="yes"/>
			<point x="1434" y="994"/>
			<point x="1391" y="1034"/>
			<point x="1322" y="1033" type="curve" smooth="yes"/>
			<point x="1145" y="1030"/>
			<point x="956" y="784"/>
			<point x="775" y="469" type="curve" smooth="yes"/>
			<point x="691" y="323"/>
			<point x="552" y="88"/>
			<point x="371" y="51" type="curve"/>
		</contour>
		<contour>
			<point x="179" y="-7" type="curve" smooth="yes"/>
			<point x="639" y="-4" type="line" smooth="yes"/>
			<point x="838" y="-3"/>
			<point x="990" y="49"/>
			<point x="1126" y="197" type="curve" smooth="yes"/>
			<point x="1193" y="270" type="line"/>
			<point x="1173" y="290" type="line"/>
			<point x="1105" y="215" type="line" smooth="yes"/>
			<point x="973" y="69"/>
			<point x="787" y="4"/>
			<point x="526" y="51" type="curve" smooth="yes"/>
			<point x="195" y="111" type="line" smooth="yes"/>
			<point x="145" y="120"/>
			<point x="110" y="94"/>
			<point x="110" y="58" type="curve" smooth="yes"/>
			<point x="110" y="23"/>
			<point x="137" y="-7"/>
		</contour>
	</outline>
</glyph>
<glyph name="M" format="2">
	<advance width="1535"/>
	<unicode hex="004D"/>
	<guideline x="1506" y="-9" angle="60"/>
	<guideline x="1536" y="-18" angle="60"/>
	<guideline x="870" y="-43" angle="50"/>
	<guideline x="921" y="-29" angle="50"/>
	<outline>
		<contour>
			<point x="396" y="-10" type="curve" smooth="yes"/>
			<point x="622" y="-17"/>
			<point x="799" y="185"/>
			<point x="982" y="477" type="curve" smooth="yes"/>
			<point x="1244" y="894" type="line"/>
			<point x="1119" y="604"/>
			<point x="957" y="249"/>
			<point x="917" y="82" type="curve" smooth="yes"/>
			<point x="904" y="27"/>
			<point x="923" y="0"/>
			<point x="945" y="0" type="curve" smooth="yes"/>
			<point x="964" y="0"/>
			<point x="980" y="19"/>
			<point x="1003" y="51" type="curve" smooth="yes"/>
			<point x="1197" y="322"/>
			<point x="1433" y="638"/>
			<point x="1642" y="894" type="curve"/>
			<point x="1348" y="343" type="line" smooth="yes"/>
			<point x="1200" y="65"/>
			<point x="1218" y="-9"/>
			<point x="1311" y="-9" type="curve" smooth="yes"/>
			<point x="1396" y="-9"/>
			<point x="1490" y="85"/>
			<point x="1588" y="193" type="curve" smooth="yes"/>
			<point x="1658" y="270" type="line"/>
			<point x="1638" y="290" type="line"/>
			<point x="1567" y="211" type="line" smooth="yes"/>
			<point x="1482" y="116"/>
			<point x="1388" y="22"/>
			<point x="1311" y="22" type="curve" smooth="yes"/>
			<point x="1229" y="22"/>
			<point x="1273" y="136"/>
			<point x="1384" y="342" type="curve" smooth="yes"/>
			<point x="1744" y="1012" type="line"/>
			<point x="1713" y="1028" type="line"/>
			<point x="1412" y="663"/>
			<point x="1175" y="341"/>
			<point x="974" y="62" type="curve" smooth="yes"/>
			<point x="962" y="46"/>
			<point x="954" y="33"/>
			<point x="948" y="33" type="curve" smooth="yes"/>
			<point x="942" y="33"/>
			<point x="938" y="40"/>
			<point x="947" y="75" type="curve" smooth="yes"/>
			<point x="986" y="227"/>
			<point x="1145" y="602"/>
			<point x="1330" y="1016" type="curve"/>
			<point x="1295" y="1028" type="line"/>
			<point x="947" y="476" type="line" smooth="yes"/>
			<point x="715" y="109"/>
			<point x="550" y="18"/>
			<point x="396" y="18" type="curve" smooth="yes"/>
			<point x="275" y="18"/>
			<point x="195" y="115"/>
			<point x="195" y="205" type="curve" smooth="yes"/>
			<point x="195" y="309"/>
			<point x="256" y="344"/>
			<point x="309" y="345" type="curve" smooth="yes"/>
			<point x="360" y="346"/>
			<point x="372" y="321"/>
			<point x="415" y="321" type="curve" smooth="yes"/>
			<point x="454" y="321"/>
			<point x="490" y="347"/>
			<point x="490" y="385" type="curve" smooth="yes"/>
			<point x="490" y="436"/>
			<point x="444" y="464"/>
			<point x="388" y="464" type="curve" smooth="yes"/>
			<point x="284" y="464"/>
			<point x="165" y="380"/>
			<point x="165" y="206" type="curve" smooth="yes"/>
			<point x="165" y="96"/>
			<point x="263" y="-6"/>
		</contour>
	</outline>
</glyph>
<glyph name="N" format="2">
	<advance width="1190"/>
	<unicode hex="004E"/>
	<guideline x="659" y="0" angle="60"/>
	<guideline x="623" y="0" angle="60"/>
	<guideline x="1152" y="1019" angle="0"/>
	<guideline x="1006" y="0" angle="60"/>
	<guideline x="973" y="0" angle="60"/>
	<outline>
		<contour>
			<point x="331" y="-10" type="curve" smooth="yes"/>
			<point x="594" y="-16"/>
			<point x="760" y="177"/>
			<point x="947" y="500" type="curve" smooth="yes"/>
			<point x="1019" y="624"/>
			<point x="1094" y="755"/>
			<point x="1157" y="866" type="curve"/>
			<point x="1041" y="528"/>
			<point x="1005" y="262"/>
			<point x="973" y="1" type="curve"/>
			<point x="1003" y="-5" type="line"/>
			<point x="1287" y="486" type="line" smooth="yes"/>
			<point x="1499" y="853"/>
			<point x="1695" y="1051"/>
			<point x="1896" y="1051" type="curve" smooth="yes"/>
			<point x="1993" y="1051"/>
			<point x="2044" y="990"/>
			<point x="2039" y="919" type="curve"/>
			<point x="2065" y="917" type="line"/>
			<point x="2073" y="997"/>
			<point x="2015" y="1081"/>
			<point x="1896" y="1081" type="curve" smooth="yes"/>
			<point x="1674" y="1081"/>
			<point x="1469" y="859"/>
			<point x="1252" y="486" type="curve" smooth="yes"/>
			<point x="1013" y="75" type="line"/>
			<point x="1038" y="279"/>
			<point x="1080" y="574"/>
			<point x="1245" y="1019" type="curve"/>
			<point x="1217" y="1030" type="line"/>
			<point x="911" y="499" type="line" smooth="yes"/>
			<point x="680" y="97"/>
			<point x="513" y="19"/>
			<point x="332" y="21" type="curve" smooth="yes"/>
			<point x="215" y="22"/>
			<point x="131" y="115"/>
			<point x="131" y="205" type="curve" smooth="yes"/>
			<point x="131" y="309"/>
			<point x="191" y="344"/>
			<point x="244" y="345" type="curve" smooth="yes"/>
			<point x="295" y="346"/>
			<point x="307" y="321"/>
			<point x="350" y="321" type="curve" smooth="yes"/>
			<point x="389" y="321"/>
			<point x="425" y="347"/>
			<point x="425" y="385" type="curve" smooth="yes"/>
			<point x="425" y="436"/>
			<point x="379" y="464"/>
			<point x="323" y="464" type="curve" smooth="yes"/>
			<point x="219" y="464"/>
			<point x="100" y="380"/>
			<point x="100" y="206" type="curve" smooth="yes"/>
			<point x="100" y="96"/>
			<point x="194" y="-7"/>
		</contour>
	</outline>
</glyph>
<glyph name="O" format="2">
	<advance width="825"/>
	<unicode hex="004F"/>
	<outline>
		<contour>
			<point x="318" y="-9" type="curve" smooth="yes"/>
			<point x="578" y="-9"/>
			<point x="811" y="243"/>
			<point x="811" y="547" type="curve" smooth="yes"/>
			<point x="811" y="717"/>
			<point x="734" y="827"/>
			<point x="624" y="824" type="curve" smooth="yes"/>
			<point x="486" y="820"/>
			<point x="421" y="668"/>
			<point x="421" y="500" type="curve" smooth="yes"/>
			<point x="421" y="313"/>
			<point x="556" y="162"/>
			<point x="700" y="162" type="curve" smooth="yes"/>
			<point x="793" y="162"/>
			<point x="868" y="196"/>
			<point x="949" y="270" type="curve"/>
			<point x="929" y="290" type="line"/>
			<point x="857" y="225"/>
			<point x="799" y="190"/>
			<point x="700" y="190" type="curve" smooth="yes"/>
			<point x="580" y="190"/>
			<point x="446" y="323"/>
			<point x="447" y="500" type="curve" smooth="yes"/>
			<point x="448" y="683"/>
			<point x="534" y="797"/>
			<point x="624" y="797" type="curve" smooth="yes"/>
			<point x="716" y="797"/>
			<point x="784" y="699"/>
			<point x="784" y="547" type="curve" smooth="yes"/>
			<point x="784" y="248"/>
			<point x="542" y="17"/>
			<point x="319" y="19" type="curve" smooth="yes"/>
			<point x="191" y="20"/>
			<point x="133" y="108"/>
			<point x="133" y="239" type="curve" smooth="yes"/>
			<point x="133" y="549"/>
			<point x="453" y="995"/>
			<point x="717" y="992" type="curve" smooth="yes"/>
			<point x="804" y="991"/>
			<point x="856" y="942"/>
			<point x="856" y="863" type="curve" smooth="yes"/>
			<point x="856" y="728"/>
			<point x="736" y="636"/>
			<point x="576" y="667" type="curve" smooth="yes"/>
			<point x="535" y="675"/>
			<point x="513" y="650"/>
			<point x="513" y="622" type="curve" smooth="yes"/>
			<point x="513" y="590"/>
			<point x="540" y="570"/>
			<point x="582" y="569" type="curve" smooth="yes"/>
			<point x="713" y="566"/>
			<point x="884" y="703"/>
			<point x="884" y="863" type="curve" smooth="yes"/>
			<point x="884" y="959"/>
			<point x="817" y="1019"/>
			<point x="716" y="1019" type="curve" smooth="yes"/>
			<point x="435" y="1019"/>
			<point x="105" y="564"/>
			<point x="105" y="245" type="curve" smooth="yes"/>
			<point x="105" y="78"/>
			<point x="171" y="-9"/>
		</contour>
	</outline>
</glyph>
<glyph name="P" format="2">
	<advance width="1070"/>
	<unicode hex="0050"/>
	<outline>
		<contour>
			<point x="432" y="41" type="line"/>
			<point x="588" y="91"/>
			<point x="724" y="316"/>
			<point x="806" y="459" type="curve" smooth="yes"/>
			<point x="973" y="750"/>
			<point x="1063" y="908"/>
			<point x="1165" y="975" type="curve"/>
			<point x="1139" y="993" type="line"/>
			<point x="1030" y="915"/>
			<point x="935" y="747"/>
			<point x="775" y="469" type="curve" smooth="yes"/>
			<point x="691" y="323"/>
			<point x="552" y="88"/>
			<point x="371" y="51" type="curve"/>
		</contour>
		<contour>
			<point x="179" y="-7" type="curve" smooth="yes"/>
			<point x="639" y="-4" type="line" smooth="yes"/>
			<point x="838" y="-3"/>
			<point x="990" y="49"/>
			<point x="1126" y="197" type="curve" smooth="yes"/>
			<point x="1193" y="270" type="line"/>
			<point x="1173" y="290" type="line"/>
			<point x="1105" y="215" type="line" smooth="yes"/>
			<point x="973" y="69"/>
			<point x="743" y="-2"/>
			<point x="481" y="46" type="curve" smooth="yes"/>
			<point x="200" y="98" type="line" smooth="yes"/>
			<point x="154" y="106"/>
			<point x="121" y="88"/>
			<point x="119" y="51" type="curve" smooth="yes"/>
			<point x="117" y="16"/>
			<point x="137" y="-7"/>
		</contour>
		<contour>
			<point x="324" y="307" type="line"/>
			<point x="294" y="675"/>
			<point x="639" y="990"/>
			<point x="1011" y="990" type="curve" smooth="yes"/>
			<point x="1175" y="990"/>
			<point x="1276" y="908"/>
			<point x="1277" y="762" type="curve" smooth="yes"/>
			<point x="1278" y="551"/>
			<point x="1020" y="364"/>
			<point x="807" y="360" type="curve" smooth="yes"/>
			<point x="656" y="357"/>
			<point x="571" y="407"/>
			<point x="571" y="471" type="curve" smooth="yes"/>
			<point x="571" y="525"/>
			<point x="635" y="552"/>
			<point x="636" y="593" type="curve" smooth="yes"/>
			<point x="637" y="626"/>
			<point x="619" y="647"/>
			<point x="586" y="647" type="curve" smooth="yes"/>
			<point x="552" y="647"/>
			<point x="508" y="604"/>
			<point x="502" y="551" type="curve" smooth="yes"/>
			<point x="491" y="456"/>
			<point x="559" y="327"/>
			<point x="807" y="332" type="curve" smooth="yes"/>
			<point x="1037" y="337"/>
			<point x="1309" y="520"/>
			<point x="1309" y="763" type="curve" smooth="yes"/>
			<point x="1309" y="937"/>
			<point x="1178" y="1018"/>
			<point x="1011" y="1018" type="curve" smooth="yes"/>
			<point x="622" y="1018"/>
			<point x="266" y="692"/>
			<point x="293" y="312" type="curve"/>
		</contour>
	</outline>
</glyph>
<glyph name="Q" format="2">
	<advance width="985"/>
	<unicode hex="0051"/>
	<outline>
		<contour>
			<point x="276" y="-11" type="curve" smooth="yes"/>
			<point x="629" y="-11"/>
			<point x="1017" y="351"/>
			<point x="1022" y="748" type="curve" smooth="yes"/>
			<point x="1024" y="880"/>
			<point x="951" y="1019"/>
			<point x="780" y="1019" type="curve" smooth="yes"/>
			<point x="495" y="1019"/>
			<point x="299" y="759"/>
			<point x="299" y="504" type="curve" smooth="yes"/>
			<point x="299" y="337"/>
			<point x="401" y="261"/>
			<point x="492" y="261" type="curve" smooth="yes"/>
			<point x="646" y="261"/>
			<point x="745" y="361"/>
			<point x="745" y="453" type="curve" smooth="yes"/>
			<point x="745" y="492"/>
			<point x="728" y="510"/>
			<point x="697" y="510" type="curve" smooth="yes"/>
			<point x="670" y="510"/>
			<point x="644" y="491"/>
			<point x="644" y="452" type="curve" smooth="yes"/>
			<point x="644" y="369"/>
			<point x="610" y="286"/>
			<point x="492" y="286" type="curve" smooth="yes"/>
			<point x="424" y="286"/>
			<point x="329" y="357"/>
			<point x="329" y="506" type="curve" smooth="yes"/>
			<point x="329" y="750"/>
			<point x="520" y="991"/>
			<point x="780" y="993" type="curve" smooth="yes"/>
			<point x="931" y="994"/>
			<point x="991" y="859"/>
			<point x="989" y="748" type="curve" smooth="yes"/>
			<point x="982" y="367"/>
			<point x="607" y="18"/>
			<point x="279" y="18" type="curve" smooth="yes"/>
			<point x="246" y="18"/>
			<point x="144" y="25"/>
			<point x="140" y="84" type="curve" smooth="yes"/>
			<point x="138" y="115"/>
			<point x="163" y="129"/>
			<point x="193" y="129" type="curve" smooth="yes"/>
			<point x="305" y="129"/>
			<point x="447" y="-12"/>
			<point x="621" y="-11" type="curve" smooth="yes"/>
			<point x="749" y="-10"/>
			<point x="888" y="28"/>
			<point x="1048" y="204" type="curve" smooth="yes"/>
			<point x="1108" y="270" type="line"/>
			<point x="1088" y="290" type="line"/>
			<point x="1027" y="222" type="line" smooth="yes"/>
			<point x="886" y="65"/>
			<point x="749" y="18"/>
			<point x="624" y="18" type="curve" smooth="yes"/>
			<point x="440" y="18"/>
			<point x="316" y="159"/>
			<point x="191" y="159" type="curve" smooth="yes"/>
			<point x="143" y="159"/>
			<point x="108" y="131"/>
			<point x="110" y="83" type="curve" smooth="yes"/>
			<point x="113" y="3"/>
			<point x="226" y="-11"/>
		</contour>
	</outline>
</glyph>
<glyph name="R" format="2">
	<advance width="1126"/>
	<unicode hex="0052"/>
	<guideline x="453" y="-15" angle="0"/>
	<guideline x="454" y="14" angle="0"/>
	<outline>
		<contour>
			<point x="263" y="-15" type="curve" smooth="yes"/>
			<point x="369" y="-14"/>
			<point x="464" y="141"/>
			<point x="503" y="208" type="curve" smooth="yes"/>
			<point x="538" y="268"/>
			<point x="564" y="313"/>
			<point x="632" y="431" type="curve" smooth="yes"/>
			<point x="709" y="564"/>
			<point x="781" y="699"/>
			<point x="914" y="777" type="curve" smooth="yes"/>
			<point x="1001" y="828"/>
			<point x="944" y="912"/>
			<point x="886" y="882" type="curve" smooth="yes"/>
			<point x="857" y="867"/>
			<point x="848" y="860"/>
			<point x="787" y="756" type="curve" smooth="yes"/>
			<point x="599" y="431" type="line" smooth="yes"/>
			<point x="545" y="338"/>
			<point x="516" y="289"/>
			<point x="478" y="223" type="curve" smooth="yes"/>
			<point x="446" y="168"/>
			<point x="350" y="14"/>
			<point x="266" y="13" type="curve" smooth="yes"/>
			<point x="181" y="12"/>
			<point x="138" y="102"/>
			<point x="141" y="237" type="curve" smooth="yes"/>
			<point x="145" y="452"/>
			<point x="258" y="663"/>
			<point x="425" y="807" type="curve" smooth="yes"/>
			<point x="555" y="919"/>
			<point x="692" y="1020"/>
			<point x="902" y="1020" type="curve" smooth="yes"/>
			<point x="1066" y="1020"/>
			<point x="1123" y="926"/>
			<point x="1125" y="807" type="curve" smooth="yes"/>
			<point x="1129" y="541"/>
			<point x="728" y="397"/>
			<point x="591" y="397" type="curve" smooth="yes"/>
			<point x="517" y="397"/>
			<point x="467" y="408"/>
			<point x="467" y="433" type="curve" smooth="yes"/>
			<point x="467" y="449"/>
			<point x="490" y="465"/>
			<point x="525" y="466" type="curve" smooth="yes"/>
			<point x="608" y="468"/>
			<point x="735" y="394"/>
			<point x="787" y="253" type="curve" smooth="yes"/>
			<point x="852" y="77"/>
			<point x="862" y="-15"/>
			<point x="943" y="-15" type="curve" smooth="yes"/>
			<point x="1008" y="-15"/>
			<point x="1108" y="114"/>
			<point x="1132" y="141" type="curve" smooth="yes"/>
			<point x="1182" y="197"/>
			<point x="1196" y="213"/>
			<point x="1249" y="270" type="curve"/>
			<point x="1229" y="290" type="line"/>
			<point x="1200" y="258"/>
			<point x="1159" y="210"/>
			<point x="1117" y="165" type="curve" smooth="yes"/>
			<point x="1085" y="131"/>
			<point x="994" y="15"/>
			<point x="942" y="14" type="curve" smooth="yes"/>
			<point x="895" y="13"/>
			<point x="880" y="67"/>
			<point x="816" y="255" type="curve" smooth="yes"/>
			<point x="765" y="406"/>
			<point x="633" y="496"/>
			<point x="527" y="496" type="curve" smooth="yes"/>
			<point x="471" y="496"/>
			<point x="437" y="469"/>
			<point x="437" y="432" type="curve" smooth="yes"/>
			<point x="437" y="378"/>
			<point x="528" y="367"/>
			<point x="588" y="367" type="curve" smooth="yes"/>
			<point x="733" y="367"/>
			<point x="1154" y="506"/>
			<point x="1154" y="810" type="curve" smooth="yes"/>
			<point x="1154" y="951"/>
			<point x="1069" y="1050"/>
			<point x="902" y="1050" type="curve" smooth="yes"/>
			<point x="692" y="1050"/>
			<point x="545" y="948"/>
			<point x="407" y="829" type="curve" smooth="yes"/>
			<point x="236" y="680"/>
			<point x="117" y="460"/>
			<point x="110" y="244" type="curve" smooth="yes"/>
			<point x="105" y="89"/>
			<point x="161" y="-16"/>
		</contour>
	</outline>
</glyph>
<glyph name="T" format="2">
	<advance width="861"/>
	<unicode hex="0054"/>
	<guideline x="673" y="15" angle="60"/>
	<guideline x="641" y="15" angle="60"/>
	<outline>
		<contour>
			<point x="341" y="-10" type="curve" smooth="yes"/>
			<point x="571" y="-15"/>
			<point x="785" y="208"/>
			<point x="954" y="500" type="curve" smooth="yes"/>
			<point x="1048" y="662" type="line" smooth="yes"/>
			<point x="1247" y="1006"/>
			<point x="1401" y="1030"/>
			<point x="1485" y="1030" type="curve" smooth="yes"/>
			<point x="1509" y="1030"/>
			<point x="1524" y="1020"/>
			<point x="1524" y="1008" type="curve" smooth="yes"/>
			<point x="1524" y="980"/>
			<point x="1465" y="951"/>
			<point x="1318" y="951" type="curve" smooth="yes"/>
			<point x="1098" y="951"/>
			<point x="893" y="1019"/>
			<point x="671" y="1018" type="curve" smooth="yes"/>
			<point x="439" y="1017"/>
			<point x="327" y="857"/>
			<point x="326" y="718" type="curve" smooth="yes"/>
			<point x="325" y="580"/>
			<point x="417" y="468"/>
			<point x="589" y="468" type="curve" smooth="yes"/>
			<point x="745" y="468"/>
			<point x="856" y="602"/>
			<point x="849" y="738" type="curve"/>
			<point x="822" y="737" type="line"/>
			<point x="827" y="600"/>
			<point x="718" y="493"/>
			<point x="589" y="493" type="curve" smooth="yes"/>
			<point x="432" y="493"/>
			<point x="353" y="592"/>
			<point x="353" y="718" type="curve" smooth="yes"/>
			<point x="353" y="835"/>
			<point x="448" y="993"/>
			<point x="671" y="993" type="curve" smooth="yes"/>
			<point x="893" y="993"/>
			<point x="1091" y="923"/>
			<point x="1318" y="923" type="curve" smooth="yes"/>
			<point x="1489" y="923"/>
			<point x="1558" y="964"/>
			<point x="1558" y="1007" type="curve" smooth="yes"/>
			<point x="1558" y="1036"/>
			<point x="1530" y="1059"/>
			<point x="1485" y="1059" type="curve" smooth="yes"/>
			<point x="1417" y="1059"/>
			<point x="1237" y="1048"/>
			<point x="1017" y="666" type="curve" smooth="yes"/>
			<point x="921" y="500" type="line" smooth="yes"/>
			<point x="755" y="211"/>
			<point x="559" y="19"/>
			<point x="341" y="19" type="curve" smooth="yes"/>
			<point x="220" y="19"/>
			<point x="141" y="115"/>
			<point x="141" y="205" type="curve" smooth="yes"/>
			<point x="141" y="309"/>
			<point x="201" y="344"/>
			<point x="224" y="345" type="curve" smooth="yes"/>
			<point x="275" y="347"/>
			<point x="317" y="321"/>
			<point x="360" y="321" type="curve" smooth="yes"/>
			<point x="399" y="321"/>
			<point x="435" y="347"/>
			<point x="435" y="385" type="curve" smooth="yes"/>
			<point x="435" y="436"/>
			<point x="389" y="464"/>
			<point x="333" y="464" type="curve" smooth="yes"/>
			<point x="229" y="464"/>
			<point x="110" y="380"/>
			<point x="110" y="206" type="curve" smooth="yes"/>
			<point x="110" y="96"/>
			<point x="208" y="-7"/>
		</contour>
	</outline>
</glyph>
<glyph name="U" format="2">
	<advance width="1001"/>
	<unicode hex="0055"/>
	<guideline x="302" y="0" angle="60"/>
	<guideline x="269" y="0" angle="60"/>
	<guideline x="659" y="0" angle="60"/>
	<guideline x="626" y="0" angle="60"/>
	<guideline x="194" y="-10" angle="0"/>
	<guideline x="194" y="19" angle="0"/>
	<outline>
		<contour>
			<point x="481" y="-10" type="curve" smooth="yes"/>
			<point x="556" y="-10"/>
			<point x="627" y="16"/>
			<point x="704" y="113" type="curve"/>
			<point x="691" y="73"/>
			<point x="683" y="-10"/>
			<point x="772" y="-10" type="curve" smooth="yes"/>
			<point x="910" y="-10"/>
			<point x="1037" y="185"/>
			<point x="1124" y="270" type="curve"/>
			<point x="1104" y="290" type="line"/>
			<point x="1015" y="192"/>
			<point x="880" y="19"/>
			<point x="776" y="19" type="curve" smooth="yes"/>
			<point x="722" y="19"/>
			<point x="708" y="76"/>
			<point x="751" y="159" type="curve"/>
			<point x="1241" y="1006" type="line"/>
			<point x="1215" y="1021" type="line"/>
			<point x="809" y="318" type="line"/>
			<point x="704" y="130"/>
			<point x="591" y="19"/>
			<point x="482" y="19" type="curve" smooth="yes"/>
			<point x="367" y="19"/>
			<point x="411" y="195"/>
			<point x="475" y="299" type="curve" smooth="yes"/>
			<point x="492" y="328"/>
			<point x="649" y="603"/>
			<point x="684" y="662" type="curve" smooth="yes"/>
			<point x="849" y="941"/>
			<point x="866" y="991"/>
			<point x="898" y="991" type="curve" smooth="yes"/>
			<point x="916" y="991"/>
			<point x="919" y="983"/>
			<point x="919" y="971" type="curve" smooth="yes"/>
			<point x="919" y="941"/>
			<point x="890" y="893"/>
			<point x="800" y="893" type="curve" smooth="yes"/>
			<point x="620" y="893"/>
			<point x="566" y="1018"/>
			<point x="364" y="1018" type="curve" smooth="yes"/>
			<point x="176" y="1018"/>
			<point x="110" y="876"/>
			<point x="110" y="770" type="curve" smooth="yes"/>
			<point x="110" y="643"/>
			<point x="196" y="560"/>
			<point x="318" y="560" type="curve" smooth="yes"/>
			<point x="403" y="560"/>
			<point x="482" y="610"/>
			<point x="521" y="709" type="curve"/>
			<point x="491" y="720" type="line"/>
			<point x="453" y="625"/>
			<point x="386" y="591"/>
			<point x="318" y="591" type="curve" smooth="yes"/>
			<point x="218" y="591"/>
			<point x="144" y="657"/>
			<point x="144" y="770" type="curve" smooth="yes"/>
			<point x="144" y="872"/>
			<point x="210" y="993"/>
			<point x="364" y="993" type="curve" smooth="yes"/>
			<point x="566" y="993"/>
			<point x="613" y="865"/>
			<point x="800" y="865" type="curve" smooth="yes"/>
			<point x="908" y="865"/>
			<point x="949" y="931"/>
			<point x="949" y="970" type="curve" smooth="yes"/>
			<point x="949" y="999"/>
			<point x="932" y="1020"/>
			<point x="905" y="1020" type="curve" smooth="yes"/>
			<point x="847" y="1020"/>
			<point x="846" y="999"/>
			<point x="652" y="666" type="curve" smooth="yes"/>
			<point x="616" y="605"/>
			<point x="463" y="341"/>
			<point x="448" y="315" type="curve" smooth="yes"/>
			<point x="358" y="156"/>
			<point x="342" y="-10"/>
		</contour>
	</outline>
</glyph>
<glyph name="V" format="2">
	<advance width="687"/>
	<unicode hex="0056"/>
	<guideline x="475" y="-50" angle="60"/>
	<guideline x="442" y="-50" angle="60"/>
	<outline>
		<contour>
			<point x="503" y="-5" type="line"/>
			<point x="842" y="582" type="line" smooth="yes"/>
			<point x="969" y="802"/>
			<point x="1163" y="1018"/>
			<point x="1316" y="1017" type="curve" smooth="yes"/>
			<point x="1423" y="1016"/>
			<point x="1467" y="950"/>
			<point x="1467" y="882" type="curve" smooth="yes"/>
			<point x="1467" y="767"/>
			<point x="1351" y="712"/>
			<point x="1260" y="706" type="curve"/>
			<point x="1263" y="678" type="line"/>
			<point x="1369" y="678"/>
			<point x="1499" y="748"/>
			<point x="1499" y="884" type="curve" smooth="yes"/>
			<point x="1499" y="965"/>
			<point x="1440" y="1047"/>
			<point x="1315" y="1047" type="curve" smooth="yes"/>
			<point x="1140" y="1047"/>
			<point x="946" y="822"/>
			<point x="807" y="581" type="curve" smooth="yes"/>
			<point x="513" y="75" type="line"/>
			<point x="543.564" y="276.129"/>
			<point x="593" y="580"/>
			<point x="679" y="822" type="curve"/>
			<point x="787" y="894"/>
			<point x="857" y="939"/>
			<point x="857" y="998" type="curve" smooth="yes"/>
			<point x="857" y="1020"/>
			<point x="845" y="1042"/>
			<point x="812" y="1042" type="curve" smooth="yes"/>
			<point x="758" y="1042"/>
			<point x="714" y="980"/>
			<point x="658" y="840" type="curve"/>
			<point x="607" y="826"/>
			<point x="544" y="809"/>
			<point x="462" y="792" type="curve" smooth="yes"/>
			<point x="363" y="771"/>
			<point x="170" y="702"/>
			<point x="166" y="517" type="curve" smooth="yes"/>
			<point x="164" y="429"/>
			<point x="216" y="334"/>
			<point x="334" y="334" type="curve" smooth="yes"/>
			<point x="440" y="334"/>
			<point x="512" y="429"/>
			<point x="513" y="517" type="curve" smooth="yes"/>
			<point x="514" y="610"/>
			<point x="472" y="649"/>
			<point x="357" y="648" type="curve"/>
			<point x="359" y="622" type="line"/>
			<point x="461" y="619"/>
			<point x="487" y="588"/>
			<point x="487" y="517" type="curve" smooth="yes"/>
			<point x="487" y="441"/>
			<point x="422" y="358"/>
			<point x="334" y="358" type="curve" smooth="yes"/>
			<point x="243" y="358"/>
			<point x="189" y="441"/>
			<point x="192" y="517" type="curve" smooth="yes"/>
			<point x="200" y="708"/>
			<point x="403" y="752"/>
			<point x="481" y="771" type="curve" smooth="yes"/>
			<point x="537" y="785"/>
			<point x="593" y="799"/>
			<point x="647" y="812" type="curve"/>
			<point x="585" y="643"/>
			<point x="504.628" y="258.966"/>
			<point x="473" y="1" type="curve"/>
		</contour>
	</outline>
</glyph>
<glyph name="W" format="2">
	<advance width="1016"/>
	<unicode hex="0057"/>
	<guideline x="757" y="-30" angle="60"/>
	<guideline x="724" y="-30" angle="60"/>
	<guideline x="396" y="-67" angle="60"/>
	<guideline x="363" y="-67" angle="60"/>
	<outline>
		<contour>
			<point x="433" y="0" type="line"/>
			<point x="717" y="486" type="line" smooth="yes"/>
			<point x="777" y="588"/>
			<point x="834" y="674"/>
			<point x="891" y="747" type="curve" smooth="yes"/>
			<point x="897" y="755"/>
			<point x="903" y="763"/>
			<point x="909" y="770" type="curve" smooth="yes"/>
			<point x="906" y="762"/>
			<point x="904" y="753"/>
			<point x="901" y="744" type="curve" smooth="yes"/>
			<point x="839" y="541"/>
			<point x="766" y="225"/>
			<point x="743" y="13" type="curve"/>
			<point x="773" y="0" type="line"/>
			<point x="1057" y="486" type="line" smooth="yes"/>
			<point x="1271" y="853"/>
			<point x="1465" y="1051"/>
			<point x="1666" y="1051" type="curve" smooth="yes"/>
			<point x="1773" y="1051"/>
			<point x="1819" y="984"/>
			<point x="1799" y="902" type="curve"/>
			<point x="1832" y="902" type="line"/>
			<point x="1853" y="989"/>
			<point x="1795" y="1081"/>
			<point x="1666" y="1081" type="curve" smooth="yes"/>
			<point x="1444" y="1081"/>
			<point x="1239" y="859"/>
			<point x="1022" y="486" type="curve" smooth="yes"/>
			<point x="783" y="75" type="line"/>
			<point x="807" y="250"/>
			<point x="857" y="513"/>
			<point x="928" y="738" type="curve" smooth="yes"/>
			<point x="943" y="784"/>
			<point x="945" y="801"/>
			<point x="931" y="809" type="curve" smooth="yes"/>
			<point x="913" y="819"/>
			<point x="896" y="801"/>
			<point x="868" y="764" type="curve" smooth="yes"/>
			<point x="806" y="686"/>
			<point x="745" y="594"/>
			<point x="682" y="486" type="curve" smooth="yes"/>
			<point x="443" y="75" type="line"/>
			<point x="488" y="276"/>
			<point x="537" y="580"/>
			<point x="623" y="822" type="curve"/>
			<point x="731" y="894"/>
			<point x="801" y="939"/>
			<point x="801" y="998" type="curve" smooth="yes"/>
			<point x="801" y="1020"/>
			<point x="789" y="1042"/>
			<point x="756" y="1042" type="curve" smooth="yes"/>
			<point x="702" y="1042"/>
			<point x="658" y="980"/>
			<point x="602" y="840" type="curve"/>
			<point x="551" y="826"/>
			<point x="488" y="809"/>
			<point x="406" y="792" type="curve" smooth="yes"/>
			<point x="307" y="771"/>
			<point x="114" y="702"/>
			<point x="110" y="517" type="curve" smooth="yes"/>
			<point x="108" y="429"/>
			<point x="160" y="334"/>
			<point x="278" y="334" type="curve" smooth="yes"/>
			<point x="384" y="334"/>
			<point x="456" y="429"/>
			<point x="457" y="517" type="curve" smooth="yes"/>
			<point x="458" y="610"/>
			<point x="416" y="649"/>
			<point x="301" y="648" type="curve"/>
			<point x="303" y="622" type="line"/>
			<point x="405" y="619"/>
			<point x="431" y="588"/>
			<point x="431" y="517" type="curve" smooth="yes"/>
			<point x="431" y="441"/>
			<point x="366" y="358"/>
			<point x="278" y="358" type="curve" smooth="yes"/>
			<point x="187" y="358"/>
			<point x="133" y="441"/>
			<point x="136" y="517" type="curve" smooth="yes"/>
			<point x="144" y="708"/>
			<point x="347" y="752"/>
			<point x="425" y="771" type="curve" smooth="yes"/>
			<point x="481" y="785"/>
			<point x="537" y="799"/>
			<point x="591" y="812" type="curve"/>
			<point x="529" y="643"/>
			<point x="449" y="271"/>
			<point x="403" y="13" type="curve"/>
		</contour>
	</outline>
</glyph>
<glyph name="X" format="2">
	<advance width="1343"/>
	<unicode hex="0058"/>
	<outline>
		<contour>
			<point x="390" y="-11" type="curve" smooth="yes"/>
			<point x="574" y="-12"/>
			<point x="734" y="67"/>
			<point x="875" y="207" type="curve"/>
			<point x="889" y="132"/>
			<point x="955" y="-11"/>
			<point x="1090" y="-11" type="curve" smooth="yes"/>
			<point x="1208" y="-11"/>
			<point x="1304" y="84"/>
			<point x="1466" y="270" type="curve"/>
			<point x="1446" y="290" type="line"/>
			<point x="1304" y="124"/>
			<point x="1203" y="18"/>
			<point x="1090" y="18" type="curve" smooth="yes"/>
			<point x="967" y="18"/>
			<point x="899" y="165"/>
			<point x="900" y="234" type="curve"/>
			<point x="957" y="306"/>
			<point x="1006" y="392"/>
			<point x="1036" y="481" type="curve"/>
			<point x="1172" y="519"/>
			<point x="1314" y="594"/>
			<point x="1396" y="659" type="curve"/>
			<point x="1418" y="643"/>
			<point x="1455" y="626"/>
			<point x="1499" y="626" type="curve" smooth="yes"/>
			<point x="1567" y="626"/>
			<point x="1688" y="678"/>
			<point x="1684" y="831" type="curve" smooth="yes"/>
			<point x="1681" y="942"/>
			<point x="1587" y="1014"/>
			<point x="1463" y="1015" type="curve" smooth="yes"/>
			<point x="1342" y="1016"/>
			<point x="1191" y="959"/>
			<point x="1047" y="769" type="curve"/>
			<point x="1019" y="881"/>
			<point x="916" y="1009"/>
			<point x="735" y="1013" type="curve" smooth="yes"/>
			<point x="598" y="1016"/>
			<point x="409" y="910"/>
			<point x="409" y="719" type="curve" smooth="yes"/>
			<point x="409" y="631"/>
			<point x="463" y="532"/>
			<point x="582" y="516" type="curve" smooth="yes"/>
			<point x="724" y="497"/>
			<point x="853" y="607"/>
			<point x="853" y="699" type="curve" smooth="yes"/>
			<point x="853" y="738"/>
			<point x="836" y="756"/>
			<point x="805" y="756" type="curve" smooth="yes"/>
			<point x="778" y="756"/>
			<point x="752" y="737"/>
			<point x="752" y="698" type="curve" smooth="yes"/>
			<point x="752" y="615"/>
			<point x="704" y="528"/>
			<point x="586" y="544" type="curve" smooth="yes"/>
			<point x="490" y="557"/>
			<point x="440" y="633"/>
			<point x="440" y="721" type="curve" smooth="yes"/>
			<point x="440" y="893"/>
			<point x="613" y="986"/>
			<point x="734" y="986" type="curve" smooth="yes"/>
			<point x="909" y="986"/>
			<point x="999" y="865"/>
			<point x="1028" y="745" type="curve"/>
			<point x="1007" y="715"/>
			<point x="938" y="611"/>
			<point x="896" y="474" type="curve"/>
			<point x="724" y="442"/>
			<point x="600" y="431"/>
			<point x="461" y="376" type="curve"/>
			<point x="446" y="401"/>
			<point x="405" y="445"/>
			<point x="341" y="447" type="curve" smooth="yes"/>
			<point x="196" y="451"/>
			<point x="121" y="344"/>
			<point x="121" y="233" type="curve" smooth="yes"/>
			<point x="121" y="113"/>
			<point x="208" y="-10"/>
		</contour>
		<contour>
			<point x="355" y="182" type="curve" smooth="yes"/>
			<point x="329" y="190"/>
			<point x="312" y="227"/>
			<point x="338" y="269" type="curve" smooth="yes"/>
			<point x="358" y="301"/>
			<point x="399" y="325"/>
			<point x="448" y="343" type="curve"/>
			<point x="461" y="309"/>
			<point x="461" y="280"/>
			<point x="446" y="239" type="curve" smooth="yes"/>
			<point x="429" y="192"/>
			<point x="384" y="173"/>
		</contour>
		<contour>
			<point x="391" y="16" type="curve" smooth="yes"/>
			<point x="226" y="18"/>
			<point x="151" y="130"/>
			<point x="152" y="234" type="curve" smooth="yes"/>
			<point x="154" y="332"/>
			<point x="221" y="425"/>
			<point x="341" y="419" type="curve" smooth="yes"/>
			<point x="390" y="416"/>
			<point x="421" y="393"/>
			<point x="437" y="365" type="curve"/>
			<point x="374" y="342"/>
			<point x="329" y="311"/>
			<point x="311" y="272" type="curve" smooth="yes"/>
			<point x="281" y="207"/>
			<point x="319" y="162"/>
			<point x="356" y="156" type="curve" smooth="yes"/>
			<point x="400" y="149"/>
			<point x="448" y="175"/>
			<point x="469" y="232" type="curve" smooth="yes"/>
			<point x="481" y="264"/>
			<point x="486" y="299"/>
			<point x="473" y="349" type="curve"/>
			<point x="588" y="401"/>
			<point x="720" y="410"/>
			<point x="887" y="441" type="curve"/>
			<point x="870" y="356"/>
			<point x="866" y="323"/>
			<point x="870" y="245" type="curve"/>
			<point x="746" y="107"/>
			<point x="580" y="14"/>
		</contour>
		<contour>
			<point x="893" y="268" type="curve"/>
			<point x="894" y="356"/>
			<point x="902" y="396"/>
			<point x="916" y="448" type="curve"/>
			<point x="1004" y="472" type="line"/>
			<point x="971" y="375"/>
			<point x="930" y="319"/>
		</contour>
		<contour>
			<point x="924" y="482" type="line"/>
			<point x="965" y="608"/>
			<point x="1019" y="686"/>
			<point x="1034" y="708" type="curve"/>
			<point x="1041" y="642"/>
			<point x="1028" y="538"/>
			<point x="1013" y="504" type="curve"/>
		</contour>
		<contour>
			<point x="1042" y="511" type="curve"/>
			<point x="1064" y="611"/>
			<point x="1063" y="673"/>
			<point x="1056" y="734" type="curve"/>
			<point x="1192" y="926"/>
			<point x="1342" y="992"/>
			<point x="1470" y="987" type="curve" smooth="yes"/>
			<point x="1574" y="983"/>
			<point x="1654" y="921"/>
			<point x="1657" y="831" type="curve" smooth="yes"/>
			<point x="1661" y="714"/>
			<point x="1574" y="652"/>
			<point x="1498" y="652" type="curve" smooth="yes"/>
			<point x="1464" y="652"/>
			<point x="1429" y="665"/>
			<point x="1416" y="678" type="curve"/>
			<point x="1455" y="716"/>
			<point x="1485" y="750"/>
			<point x="1485" y="797" type="curve" smooth="yes"/>
			<point x="1485" y="849"/>
			<point x="1456" y="875"/>
			<point x="1423" y="875" type="curve" smooth="yes"/>
			<point x="1379" y="875"/>
			<point x="1339" y="836"/>
			<point x="1339" y="771" type="curve" smooth="yes"/>
			<point x="1339" y="738"/>
			<point x="1359" y="698"/>
			<point x="1378" y="680" type="curve"/>
			<point x="1296" y="610"/>
			<point x="1168" y="547"/>
		</contour>
		<contour>
			<point x="1398" y="696" type="curve"/>
			<point x="1381" y="709"/>
			<point x="1364" y="745"/>
			<point x="1364" y="772" type="curve" smooth="yes"/>
			<point x="1364" y="826"/>
			<point x="1400" y="850"/>
			<point x="1421" y="850" type="curve" smooth="yes"/>
			<point x="1439" y="850"/>
			<point x="1460" y="834"/>
			<point x="1460" y="798" type="curve" smooth="yes"/>
			<point x="1460" y="757"/>
			<point x="1428" y="722"/>
		</contour>
	</outline>
</glyph>
<glyph name="Y" format="2">
	<advance width="763"/>
	<unicode hex="0059"/>
	<guideline x="141" y="-34" angle="60.029"/>
	<guideline x="108" y="-34" angle="60"/>
	<guideline x="476" y="-70" angle="60"/>
	<guideline x="443" y="-70" angle="60"/>
	<guideline x="174" y="-290" angle="0"/>
	<outline>
		<contour>
			<point x="334" y="-363" type="curve" smooth="yes"/>
			<point x="369" y="-374"/>
			<point x="393" y="-357"/>
			<point x="412" y="-324" type="curve" smooth="yes"/>
			<point x="533" y="-113" type="line"/>
			<point x="710" y="151"/>
			<point x="757" y="124"/>
			<point x="886" y="270" type="curve"/>
			<point x="866" y="290" type="line"/>
			<point x="692" y="107"/>
			<point x="683" y="164"/>
			<point x="504" y="-103" type="curve"/>
			<point x="377" y="-324" type="line" smooth="yes"/>
			<point x="370" y="-337"/>
			<point x="358" y="-339"/>
			<point x="350" y="-336" type="curve" smooth="yes"/>
			<point x="342" y="-333"/>
			<point x="331" y="-326"/>
			<point x="338" y="-313" type="curve" smooth="yes"/>
			<point x="490" y="-46" type="line" smooth="yes"/>
			<point x="502" y="-26"/>
			<point x="589" y="125"/>
			<point x="609" y="159" type="curve"/>
			<point x="1076" y="968" type="line"/>
			<point x="1050" y="983" type="line"/>
			<point x="667" y="318" type="line"/>
			<point x="562" y="130"/>
			<point x="469" y="47"/>
			<point x="370" y="47" type="curve" smooth="yes"/>
			<point x="264" y="47"/>
			<point x="277" y="194"/>
			<point x="326" y="283" type="curve" smooth="yes"/>
			<point x="342" y="312"/>
			<point x="507" y="603"/>
			<point x="542" y="662" type="curve" smooth="yes"/>
			<point x="707" y="941"/>
			<point x="722" y="991"/>
			<point x="758" y="991" type="curve" smooth="yes"/>
			<point x="771" y="991"/>
			<point x="777" y="983"/>
			<point x="777" y="971" type="curve" smooth="yes"/>
			<point x="777" y="941"/>
			<point x="748" y="893"/>
			<point x="658" y="893" type="curve" smooth="yes"/>
			<point x="478" y="893"/>
			<point x="413" y="1018"/>
			<point x="211" y="1018" type="curve" smooth="yes"/>
			<point x="20" y="1018"/>
			<point x="-32" y="878"/>
			<point x="-32" y="770" type="curve" smooth="yes"/>
			<point x="-32" y="643"/>
			<point x="54" y="560"/>
			<point x="176" y="560" type="curve" smooth="yes"/>
			<point x="261" y="560"/>
			<point x="340" y="610"/>
			<point x="379" y="709" type="curve"/>
			<point x="349" y="720" type="line"/>
			<point x="311" y="625"/>
			<point x="244" y="591"/>
			<point x="176" y="591" type="curve" smooth="yes"/>
			<point x="76" y="591"/>
			<point x="0" y="657"/>
			<point x="0" y="770" type="curve" smooth="yes"/>
			<point x="0" y="877"/>
			<point x="57" y="993"/>
			<point x="211" y="993" type="curve" smooth="yes"/>
			<point x="410" y="993"/>
			<point x="471" y="865"/>
			<point x="658" y="865" type="curve" smooth="yes"/>
			<point x="766" y="865"/>
			<point x="807" y="931"/>
			<point x="807" y="970" type="curve" smooth="yes"/>
			<point x="807" y="999"/>
			<point x="790" y="1020"/>
			<point x="763" y="1020" type="curve" smooth="yes"/>
			<point x="705" y="1020"/>
			<point x="704" y="999"/>
			<point x="510" y="666" type="curve" smooth="yes"/>
			<point x="474" y="605"/>
			<point x="314" y="325"/>
			<point x="299" y="299" type="curve" smooth="yes"/>
			<point x="225" y="171"/>
			<point x="255" y="19"/>
			<point x="354" y="19" type="curve" smooth="yes"/>
			<point x="416" y="19"/>
			<point x="484" y="27"/>
			<point x="555" y="124" type="curve"/>
			<point x="519" y="63"/>
			<point x="483" y="0"/>
			<point x="464" y="-33" type="curve" smooth="yes"/>
			<point x="315" y="-293" type="line" smooth="yes"/>
			<point x="291" y="-334"/>
			<point x="320" y="-358"/>
		</contour>
	</outline>
</glyph>
<glyph name="Z" format="2">
	<advance width="1156"/>
	<unicode hex="005A"/>
	<guideline x="245" y="0" angle="60"/>
	<guideline x="340" y="-10" angle="44.9202"/>
	<guideline x="381" y="-14" angle="44.9202"/>
	<outline>
		<contour>
			<point x="533" y="-297" type="curve" smooth="yes"/>
			<point x="812" y="-295"/>
			<point x="1101" y="-99"/>
			<point x="1101" y="169" type="curve" smooth="yes"/>
			<point x="1101" y="292"/>
			<point x="1010" y="382"/>
			<point x="900" y="382" type="curve" smooth="yes"/>
			<point x="839" y="382"/>
			<point x="799" y="373"/>
			<point x="732" y="336" type="curve"/>
			<point x="1395" y="997" type="line"/>
			<point x="1372" y="1019" type="line"/>
			<point x="1109" y="917"/>
			<point x="1026" y="1030"/>
			<point x="784" y="1030" type="curve" smooth="yes"/>
			<point x="603" y="1030"/>
			<point x="501" y="895"/>
			<point x="501" y="782" type="curve" smooth="yes"/>
			<point x="501" y="651"/>
			<point x="587" y="572"/>
			<point x="709" y="572" type="curve" smooth="yes"/>
			<point x="792" y="572"/>
			<point x="873" y="625"/>
			<point x="912" y="721" type="curve"/>
			<point x="882" y="732" type="line"/>
			<point x="842" y="637"/>
			<point x="777" y="603"/>
			<point x="709" y="603" type="curve" smooth="yes"/>
			<point x="609" y="603"/>
			<point x="533" y="669"/>
			<point x="533" y="782" type="curve" smooth="yes"/>
			<point x="533" y="889"/>
			<point x="637" y="1001"/>
			<point x="781" y="1001" type="curve" smooth="yes"/>
			<point x="940" y="1001"/>
			<point x="1122" y="896"/>
			<point x="1317" y="964" type="curve"/>
			<point x="634" y="283" type="line"/>
			<point x="519" y="213" type="line" smooth="yes"/>
			<point x="424" y="155"/>
			<point x="397" y="115"/>
			<point x="433" y="85" type="curve" smooth="yes"/>
			<point x="466" y="58"/>
			<point x="505" y="74"/>
			<point x="605" y="182" type="curve" smooth="yes"/>
			<point x="710" y="296"/>
			<point x="783" y="349"/>
			<point x="899" y="349" type="curve" smooth="yes"/>
			<point x="1003" y="349"/>
			<point x="1069" y="272"/>
			<point x="1070" y="168" type="curve" smooth="yes"/>
			<point x="1072" y="-78"/>
			<point x="792" y="-262"/>
			<point x="535" y="-264" type="curve" smooth="yes"/>
			<point x="419" y="-265"/>
			<point x="357" y="-207"/>
			<point x="357" y="-138" type="curve" smooth="yes"/>
			<point x="357" y="-58"/>
			<point x="421" y="-1"/>
			<point x="669" y="16" type="curve" smooth="yes"/>
			<point x="973" y="37"/>
			<point x="1139" y="96"/>
			<point x="1279" y="270" type="curve"/>
			<point x="1259" y="290" type="line"/>
			<point x="1112" y="117"/>
			<point x="943" y="68"/>
			<point x="667" y="48" type="curve" smooth="yes"/>
			<point x="389" y="28"/>
			<point x="322" y="-42"/>
			<point x="324" y="-142" type="curve" smooth="yes"/>
			<point x="326" y="-235"/>
			<point x="414" y="-298"/>
		</contour>
	</outline>
</glyph>
<glyph name="bracketleft" format="2">
	<advance width="408"/>
	<unicode hex="005B"/>
	<outline>
		<contour>
			<point x="65" y="-91" type="line"/>
			<point x="100" y="-91" type="line"/>
			<point x="584" y="764" type="line"/>
			<point x="553" y="769" type="line"/>
		</contour>
		<contour>
			<point x="65" y="-91" type="line"/>
			<point x="230" y="-90" type="line"/>
			<point x="230" y="-59" type="line"/>
			<point x="85" y="-58" type="line"/>
		</contour>
		<contour>
			<point x="535" y="737" type="line"/>
			<point x="698" y="737" type="line"/>
			<point x="698" y="768" type="line"/>
			<point x="553" y="769" type="line"/>
		</contour>
	</outline>
</glyph>
<glyph name="backslash" format="2">
	<advance width="382"/>
	<unicode hex="005C"/>
	<outline>
		<contour>
			<point x="232" y="0" type="line"/>
			<point x="524" y="996" type="line"/>
			<point x="495" y="1005" type="line"/>
			<point x="201" y="9" type="line"/>
		</contour>
	</outline>
</glyph>
<glyph name="bracketright" format="2">
	<advance width="501"/>
	<unicode hex="005D"/>
	<outline>
		<contour>
			<point x="161" y="-90" type="line"/>
			<point x="649" y="770" type="line"/>
			<point x="614" y="770" type="line"/>
			<point x="130" y="-85" type="line"/>
		</contour>
		<contour>
			<point x="161" y="-90" type="line"/>
			<point x="179" y="-58" type="line"/>
			<point x="16" y="-58" type="line"/>
			<point x="16" y="-89" type="line"/>
		</contour>
		<contour>
			<point x="629" y="737" type="line"/>
			<point x="649" y="770" type="line"/>
			<point x="484" y="769" type="line"/>
			<point x="484" y="738" type="line"/>
		</contour>
	</outline>
</glyph>
<glyph name="asciicircum" format="2">
	<advance width="597"/>
	<unicode hex="005E"/>
	<outline>
		<contour>
			<point x="530" y="428" type="line"/>
			<point x="546" y="437" type="line"/>
			<point x="485" y="655" type="line" smooth="yes"/>
			<point x="478" y="679"/>
			<point x="465" y="694"/>
			<point x="450" y="697" type="curve" smooth="yes"/>
			<point x="437" y="700"/>
			<point x="419" y="703"/>
			<point x="398" y="684" type="curve" smooth="yes"/>
			<point x="210" y="510" type="line"/>
			<point x="217" y="494" type="line"/>
			<point x="421" y="607" type="line"/>
		</contour>
	</outline>
</glyph>
<glyph name="underscore" format="2">
	<advance width="256"/>
	<unicode hex="005F"/>
	<guideline x="289" y="-114" angle="0"/>
	<guideline x="381" y="-33" angle="90"/>
	<guideline x="-77" y="-39" angle="90"/>
	<outline>
		<contour>
			<point x="-60" y="-39" type="line"/>
			<point x="249" y="-39" type="line"/>
			<point x="249" y="-13" type="line"/>
			<point x="-60" y="-13" type="line"/>
		</contour>
	</outline>
</glyph>
<glyph name="grave" format="2">
	<advance width="600"/>
	<unicode hex="0060"/>
	<outline>
		<contour>
			<point x="582" y="622" type="line"/>
			<point x="597" y="631" type="line"/>
			<point x="482" y="860" type="line" smooth="yes"/>
			<point x="463" y="898"/>
			<point x="434" y="907"/>
			<point x="414" y="894" type="curve" smooth="yes"/>
			<point x="387" y="877"/>
			<point x="390" y="843"/>
			<point x="413" y="817" type="curve" smooth="yes"/>
		</contour>
	</outline>
</glyph>
<glyph name="a" format="2">
	<advance width="417"/>
	<unicode hex="0061"/>
	<guideline x="175" y="0" angle="60"/>
	<guideline x="142" y="0" angle="60"/>
	<anchor x="412" y="500" name="top"/>
	<outline>
		<contour>
			<point x="74" y="-13" type="curve" smooth="yes"/>
			<point x="123" y="-13"/>
			<point x="168" y="20"/>
			<point x="209" y="81" type="curve"/>
			<point x="193" y="28"/>
			<point x="203" y="-13"/>
			<point x="243" y="-13" type="curve" smooth="yes"/>
			<point x="267" y="-13"/>
			<point x="296" y="-3"/>
			<point x="336" y="42" type="curve" smooth="yes"/>
			<point x="540" y="270" type="line"/>
			<point x="520" y="290" type="line"/>
			<point x="308" y="54" type="line" smooth="yes"/>
			<point x="281" y="24"/>
			<point x="265" y="15"/>
			<point x="249" y="15" type="curve" smooth="yes"/>
			<point x="203" y="15"/>
			<point x="260" y="152"/>
			<point x="284" y="189" type="curve" smooth="yes"/>
			<point x="407" y="401" type="line"/>
			<point x="429" y="409"/>
			<point x="442" y="426"/>
			<point x="442" y="452" type="curve" smooth="yes"/>
			<point x="442" y="483"/>
			<point x="414" y="500"/>
			<point x="379" y="500" type="curve" smooth="yes"/>
			<point x="239" y="500"/>
			<point x="126" y="364"/>
			<point x="31" y="157" type="curve" smooth="yes"/>
			<point x="-1" y="86"/>
			<point x="-12" y="-13"/>
		</contour>
		<contour>
			<point x="78" y="15" type="curve" smooth="yes"/>
			<point x="17" y="15"/>
			<point x="34" y="97"/>
			<point x="62" y="157" type="curve" smooth="yes"/>
			<point x="118" y="277"/>
			<point x="214" y="395"/>
			<point x="370" y="396" type="curve"/>
			<point x="256" y="197" type="line" smooth="yes"/>
			<point x="196" y="92"/>
			<point x="129" y="15"/>
		</contour>
	</outline>
</glyph>
<glyph name="b" format="2">
	<advance width="441"/>
	<unicode hex="0062"/>
	<guideline x="10" y="-12" angle="60"/>
	<guideline x="40" y="-21" angle="60"/>
	<outline>
		<contour>
			<point x="160" y="-12" type="curve" smooth="yes"/>
			<point x="261" y="-12"/>
			<point x="394" y="143"/>
			<point x="435" y="220" type="curve"/>
			<point x="474" y="199"/>
			<point x="525" y="221"/>
			<point x="564" y="270" type="curve"/>
			<point x="544" y="290" type="line"/>
			<point x="504" y="240"/>
			<point x="474" y="234"/>
			<point x="446" y="245" type="curve"/>
			<point x="466" y="361"/>
			<point x="461" y="393"/>
			<point x="452" y="440" type="curve" smooth="yes"/>
			<point x="446" y="472"/>
			<point x="428" y="493"/>
			<point x="398" y="493" type="curve" smooth="yes"/>
			<point x="371" y="493"/>
			<point x="349" y="465"/>
			<point x="347" y="425" type="curve" smooth="yes"/>
			<point x="344" y="371"/>
			<point x="371" y="287"/>
			<point x="410" y="234" type="curve"/>
			<point x="368" y="155"/>
			<point x="247" y="17"/>
			<point x="162" y="18" type="curve" smooth="yes"/>
			<point x="101" y="19"/>
			<point x="111" y="102"/>
			<point x="137" y="147" type="curve" smooth="yes"/>
			<point x="362" y="537" type="line"/>
			<point x="667" y="875" type="line" smooth="yes"/>
			<point x="694" y="905"/>
			<point x="713" y="930"/>
			<point x="713" y="964" type="curve" smooth="yes"/>
			<point x="713" y="997"/>
			<point x="683" y="1020"/>
			<point x="649" y="1019" type="curve" smooth="yes"/>
			<point x="620" y="1018"/>
			<point x="592" y="997"/>
			<point x="560" y="941" type="curve" smooth="yes"/>
			<point x="330" y="542" type="line"/>
			<point x="246" y="449"/>
			<point x="140" y="332"/>
			<point x="103" y="290" type="curve"/>
			<point x="123" y="270" type="line"/>
			<point x="265" y="429" type="line"/>
			<point x="115" y="170" type="line" smooth="yes"/>
			<point x="56" y="68"/>
			<point x="90" y="-12"/>
		</contour>
	</outline>
</glyph>
<glyph name="c" format="2">
	<advance width="375"/>
	<unicode hex="0063"/>
	<outline>
		<contour>
			<point x="134" y="-17" type="curve" smooth="yes"/>
			<point x="241" y="-17"/>
			<point x="295" y="48"/>
			<point x="394" y="157" type="curve" smooth="yes"/>
			<point x="500" y="273" type="line"/>
			<point x="480" y="293" type="line"/>
			<point x="375" y="179" type="line" smooth="yes"/>
			<point x="284" y="80"/>
			<point x="225" y="13"/>
			<point x="139" y="12" type="curve" smooth="yes"/>
			<point x="76" y="11"/>
			<point x="41" y="104"/>
			<point x="89" y="205" type="curve"/>
			<point x="199" y="436"/>
			<point x="346" y="401"/>
			<point x="398" y="401" type="curve" smooth="yes"/>
			<point x="432" y="401"/>
			<point x="462" y="423"/>
			<point x="462" y="452" type="curve" smooth="yes"/>
			<point x="462" y="483"/>
			<point x="443" y="501"/>
			<point x="399" y="500" type="curve" smooth="yes"/>
			<point x="307" y="498"/>
			<point x="178" y="460"/>
			<point x="58" y="205" type="curve" smooth="yes"/>
			<point x="18" y="120"/>
			<point x="34" y="-17"/>
		</contour>
	</outline>
</glyph>
<glyph name="d" format="2">
	<advance width="444"/>
	<unicode hex="0064"/>
	<guideline x="142" y="-12" angle="60"/>
	<guideline x="172" y="-21" angle="60"/>
	<outline>
		<contour>
			<point x="81" y="-13" type="curve" smooth="yes"/>
			<point x="137" y="-13"/>
			<point x="209" y="25"/>
			<point x="293" y="189" type="curve"/>
			<point x="415" y="400" type="line" smooth="yes"/>
			<point x="417.906" y="405.328"/>
			<point x="422.689" y="412.532"/>
			<point x="427" y="421" type="curve"/>
			<point x="798" y="875" type="line" smooth="yes"/>
			<point x="823" y="906"/>
			<point x="844" y="930"/>
			<point x="844" y="964" type="curve" smooth="yes"/>
			<point x="844" y="997"/>
			<point x="812" y="1020"/>
			<point x="778" y="1019" type="curve" smooth="yes"/>
			<point x="749" y="1018"/>
			<point x="723" y="997"/>
			<point x="691" y="941" type="curve" smooth="yes"/>
			<point x="424.729" y="478.529" type="line"/>
			<point x="410.52" y="492.553"/>
			<point x="385.165" y="500"/>
			<point x="362" y="500" type="curve" smooth="yes"/>
			<point x="241" y="500"/>
			<point x="122" y="333"/>
			<point x="84" y="258" type="curve" smooth="yes"/>
			<point x="-9" y="75"/>
			<point x="-2" y="-13"/>
		</contour>
		<contour>
			<point x="87" y="14" type="curve" smooth="yes"/>
			<point x="23" y="14"/>
			<point x="38" y="97"/>
			<point x="103" y="231" type="curve" smooth="yes"/>
			<point x="164" y="357"/>
			<point x="321" y="518"/>
			<point x="406" y="446" type="curve"/>
			<point x="263" y="197" type="line" smooth="yes"/>
			<point x="203" y="92"/>
			<point x="140" y="14"/>
		</contour>
		<contour>
			<point x="250" y="-14" type="curve" smooth="yes"/>
			<point x="310" y="-14"/>
			<point x="339" y="20"/>
			<point x="395" y="81" type="curve" smooth="yes"/>
			<point x="567" y="270" type="line"/>
			<point x="547" y="290" type="line"/>
			<point x="371" y="95" type="line" smooth="yes"/>
			<point x="336" y="56"/>
			<point x="298" y="16"/>
			<point x="259" y="16" type="curve" smooth="yes"/>
			<point x="209" y="16"/>
			<point x="251" y="115"/>
			<point x="281" y="170" type="curve"/>
			<point x="224" y="125" type="line"/>
			<point x="192" y="43"/>
			<point x="202" y="-14"/>
		</contour>
	</outline>
</glyph>
<glyph name="e" format="2">
	<advance width="335"/>
	<unicode hex="0065"/>
	<anchor x="412" y="500" name="top"/>
	<outline>
		<contour>
			<point x="115" y="-11" type="curve" smooth="yes"/>
			<point x="186" y="-11"/>
			<point x="246" y="35"/>
			<point x="329" y="127" type="curve" smooth="yes"/>
			<point x="458" y="270" type="line"/>
			<point x="438" y="290" type="line"/>
			<point x="307" y="145" type="line" smooth="yes"/>
			<point x="237" y="67"/>
			<point x="177" y="19"/>
			<point x="114" y="19" type="curve" smooth="yes"/>
			<point x="85" y="19"/>
			<point x="65" y="50"/>
			<point x="64" y="88" type="curve" smooth="yes"/>
			<point x="63" y="139"/>
			<point x="86" y="229"/>
			<point x="148" y="298" type="curve" smooth="yes"/>
			<point x="270" y="434"/>
			<point x="330" y="467"/>
			<point x="357" y="467" type="curve" smooth="yes"/>
			<point x="372" y="467"/>
			<point x="388" y="460"/>
			<point x="388" y="436" type="curve" smooth="yes"/>
			<point x="388" y="369"/>
			<point x="196" y="321"/>
			<point x="105" y="292" type="curve"/>
			<point x="93" y="258" type="line"/>
			<point x="196" y="291"/>
			<point x="416" y="328"/>
			<point x="419" y="436" type="curve" smooth="yes"/>
			<point x="420" y="478"/>
			<point x="389" y="500"/>
			<point x="355" y="500" type="curve" smooth="yes"/>
			<point x="295" y="500"/>
			<point x="212" y="429"/>
			<point x="105" y="294" type="curve" smooth="yes"/>
			<point x="62" y="239"/>
			<point x="34" y="159"/>
			<point x="34" y="83" type="curve" smooth="yes"/>
			<point x="34" y="36"/>
			<point x="61" y="-11"/>
		</contour>
	</outline>
</glyph>
<glyph name="f" format="2">
	<advance width="284"/>
	<unicode hex="0066"/>
	<guideline x="158" y="-291" angle="0"/>
	<guideline x="51" y="0" angle="60"/>
	<guideline x="17" y="0" angle="60"/>
	<outline>
		<contour>
			<point x="-331" y="-297" type="curve" smooth="yes"/>
			<point x="-243" y="-297"/>
			<point x="-90" y="-246"/>
			<point x="61" y="16" type="curve" smooth="yes"/>
			<point x="358" y="532" type="line"/>
			<point x="666" y="875" type="line" smooth="yes"/>
			<point x="693" y="905"/>
			<point x="712" y="930"/>
			<point x="712" y="964" type="curve" smooth="yes"/>
			<point x="712" y="997"/>
			<point x="680" y="1020"/>
			<point x="646" y="1019" type="curve" smooth="yes"/>
			<point x="617" y="1018"/>
			<point x="591" y="997"/>
			<point x="559" y="941" type="curve" smooth="yes"/>
			<point x="330" y="542" type="line"/>
			<point x="103" y="290" type="line"/>
			<point x="123" y="270" type="line"/>
			<point x="263" y="426" type="line"/>
			<point x="25" y="12" type="line" smooth="yes"/>
			<point x="-90" y="-188"/>
			<point x="-225" y="-267"/>
			<point x="-331" y="-267" type="curve" smooth="yes"/>
			<point x="-385" y="-267"/>
			<point x="-434" y="-253"/>
			<point x="-434" y="-201" type="curve" smooth="yes"/>
			<point x="-434" y="-162"/>
			<point x="-376" y="-134"/>
			<point x="-306" y="-113" type="curve" smooth="yes"/>
			<point x="-227" y="-89"/>
			<point x="-128" y="-63"/>
			<point x="-79" y="-47" type="curve" smooth="yes"/>
			<point x="94" y="10"/>
			<point x="124" y="37"/>
			<point x="180" y="69" type="curve" smooth="yes"/>
			<point x="284" y="129"/>
			<point x="315" y="171"/>
			<point x="407" y="270" type="curve"/>
			<point x="387" y="290" type="line"/>
			<point x="310" y="207"/>
			<point x="253" y="149"/>
			<point x="171" y="101" type="curve" smooth="yes"/>
			<point x="98" y="58"/>
			<point x="72" y="38"/>
			<point x="-88" y="-17" type="curve" smooth="yes"/>
			<point x="-137" y="-34"/>
			<point x="-233" y="-58"/>
			<point x="-314" y="-84" type="curve" smooth="yes"/>
			<point x="-395" y="-110"/>
			<point x="-464" y="-147"/>
			<point x="-464" y="-201" type="curve" smooth="yes"/>
			<point x="-464" y="-279"/>
			<point x="-402" y="-297"/>
		</contour>
	</outline>
</glyph>
<glyph name="g" format="2">
	<advance width="400"/>
	<unicode hex="0067"/>
	<guideline x="274" y="-290" angle="0"/>
	<guideline x="176" y="0" angle="60"/>
	<guideline x="143" y="0" angle="60"/>
	<outline>
		<contour>
			<point x="-183" y="-297" type="curve" smooth="yes"/>
			<point x="-115" y="-297"/>
			<point x="-34" y="-274"/>
			<point x="38" y="-206" type="curve" smooth="yes"/>
			<point x="83" y="-163"/>
			<point x="119" y="-100"/>
			<point x="170" y="-10" type="curve" smooth="yes"/>
			<point x="213" y="65"/>
			<point x="257" y="141"/>
			<point x="285" y="189" type="curve"/>
			<point x="292" y="200"/>
			<point x="331" y="270"/>
			<point x="339" y="283" type="curve" smooth="yes"/>
			<point x="407" y="401" type="line"/>
			<point x="429" y="409"/>
			<point x="446" y="426"/>
			<point x="446" y="452" type="curve" smooth="yes"/>
			<point x="446" y="483"/>
			<point x="414" y="500"/>
			<point x="379" y="500" type="curve" smooth="yes"/>
			<point x="239" y="500"/>
			<point x="126" y="364"/>
			<point x="31" y="157" type="curve" smooth="yes"/>
			<point x="-1" y="86"/>
			<point x="-14" y="0"/>
			<point x="72" y="0" type="curve" smooth="yes"/>
			<point x="121" y="0"/>
			<point x="158" y="26"/>
			<point x="171" y="48" type="curve"/>
			<point x="166" y="40" type="line"/>
			<point x="138" y="-8" type="line" smooth="yes"/>
			<point x="119" y="-41"/>
			<point x="66" y="-133"/>
			<point x="20" y="-181" type="curve" smooth="yes"/>
			<point x="-37" y="-240"/>
			<point x="-136" y="-267"/>
			<point x="-186" y="-267" type="curve" smooth="yes"/>
			<point x="-236" y="-267"/>
			<point x="-313" y="-262"/>
			<point x="-313" y="-205" type="curve" smooth="yes"/>
			<point x="-313" y="-167"/>
			<point x="-255" y="-144"/>
			<point x="-169" y="-126" type="curve" smooth="yes"/>
			<point x="-106" y="-113"/>
			<point x="45" y="-77"/>
			<point x="111" y="-55" type="curve" smooth="yes"/>
			<point x="169" y="-36"/>
			<point x="261" y="8"/>
			<point x="295" y="35" type="curve" smooth="yes"/>
			<point x="319" y="54"/>
			<point x="367" y="97"/>
			<point x="437" y="175" type="curve" smooth="yes"/>
			<point x="523" y="270" type="line"/>
			<point x="503" y="290" type="line"/>
			<point x="409" y="187" type="line" smooth="yes"/>
			<point x="327" y="98"/>
			<point x="303" y="76"/>
			<point x="281" y="60" type="curve" smooth="yes"/>
			<point x="210" y="9"/>
			<point x="147" y="-14"/>
			<point x="98" y="-29" type="curve" smooth="yes"/>
			<point x="33" y="-49"/>
			<point x="-112" y="-82"/>
			<point x="-177" y="-97" type="curve" smooth="yes"/>
			<point x="-274" y="-119"/>
			<point x="-343" y="-150"/>
			<point x="-343" y="-205" type="curve" smooth="yes"/>
			<point x="-343" y="-286"/>
			<point x="-256" y="-297"/>
		</contour>
		<contour>
			<point x="76" y="27" type="curve" smooth="yes"/>
			<point x="12" y="29"/>
			<point x="35" y="101"/>
			<point x="63" y="157" type="curve" smooth="yes"/>
			<point x="123" y="277"/>
			<point x="215" y="395"/>
			<point x="371" y="396" type="curve"/>
			<point x="311" y="292" type="line"/>
			<point x="303" y="277"/>
			<point x="276" y="230"/>
			<point x="257" y="197" type="curve" smooth="yes"/>
			<point x="197" y="91"/>
			<point x="128" y="25"/>
		</contour>
	</outline>
</glyph>
<glyph name="h" format="2">
	<advance width="467"/>
	<unicode hex="0068"/>
	<guideline x="211" y="15" angle="60"/>
	<guideline x="179" y="15" angle="60"/>
	<guideline x="453" y="1019" angle="0"/>
	<guideline x="47" y="0" angle="60"/>
	<guideline x="15" y="0" angle="60"/>
	<outline>
		<contour>
			<point x="272" y="-13" type="curve" smooth="yes"/>
			<point x="319" y="-13"/>
			<point x="363" y="21"/>
			<point x="419" y="82" type="curve" smooth="yes"/>
			<point x="590" y="271" type="line"/>
			<point x="570" y="290" type="line"/>
			<point x="396" y="96" type="line" smooth="yes"/>
			<point x="361" y="57"/>
			<point x="315" y="16"/>
			<point x="276" y="16" type="curve" smooth="yes"/>
			<point x="241" y="16"/>
			<point x="231" y="48"/>
			<point x="262" y="101" type="curve" smooth="yes"/>
			<point x="424" y="381" type="line" smooth="yes"/>
			<point x="462" y="447"/>
			<point x="428" y="502"/>
			<point x="376" y="502" type="curve" smooth="yes"/>
			<point x="368" y="502"/>
			<point x="339" y="502"/>
			<point x="331" y="492" type="curve"/>
			<point x="662" y="875" type="line" smooth="yes"/>
			<point x="688" y="905"/>
			<point x="708" y="930"/>
			<point x="708" y="964" type="curve" smooth="yes"/>
			<point x="708" y="997"/>
			<point x="676" y="1020"/>
			<point x="642" y="1019" type="curve" smooth="yes"/>
			<point x="613" y="1018"/>
			<point x="587" y="997"/>
			<point x="555" y="941" type="curve" smooth="yes"/>
			<point x="324" y="535" type="line"/>
			<point x="103" y="290" type="line"/>
			<point x="123" y="270" type="line"/>
			<point x="258" y="420" type="line"/>
			<point x="24" y="16" type="line"/>
			<point x="47" y="0" type="line"/>
			<point x="284" y="410" type="line" smooth="yes"/>
			<point x="307" y="450"/>
			<point x="333" y="470"/>
			<point x="369" y="470" type="curve" smooth="yes"/>
			<point x="399" y="470"/>
			<point x="426" y="440"/>
			<point x="396" y="389" type="curve" smooth="yes"/>
			<point x="233" y="110" type="line" smooth="yes"/>
			<point x="192" y="40"/>
			<point x="215" y="-13"/>
		</contour>
	</outline>
</glyph>
<glyph name="i" format="2">
	<advance width="307"/>
	<unicode hex="0069"/>
	<guideline x="36" y="0" angle="60"/>
	<guideline x="4" y="0" angle="60"/>
	<outline>
		<contour>
			<point x="125" y="-12" type="curve" smooth="yes"/>
			<point x="186" y="-12"/>
			<point x="234" y="50"/>
			<point x="372" y="205" type="curve"/>
			<point x="430" y="270" type="line"/>
			<point x="410" y="290" type="line"/>
			<point x="344" y="216" type="line"/>
			<point x="223" y="82"/>
			<point x="175" y="18"/>
			<point x="125" y="18" type="curve" smooth="yes"/>
			<point x="88" y="18"/>
			<point x="83" y="81"/>
			<point x="128" y="159" type="curve" smooth="yes"/>
			<point x="317" y="487" type="line"/>
			<point x="292" y="500" type="line"/>
			<point x="103" y="290" type="line"/>
			<point x="123" y="271" type="line"/>
			<point x="226" y="385" type="line"/>
			<point x="101" y="169" type="line"/>
			<point x="47" y="77"/>
			<point x="56" y="-12"/>
		</contour>
		<contour>
			<point x="353" y="580" type="curve" smooth="yes"/>
			<point x="372" y="565"/>
			<point x="402" y="571"/>
			<point x="419" y="593" type="curve" smooth="yes"/>
			<point x="436" y="614"/>
			<point x="432" y="643"/>
			<point x="412" y="658" type="curve" smooth="yes"/>
			<point x="391" y="673"/>
			<point x="362" y="669"/>
			<point x="345" y="647" type="curve" smooth="yes"/>
			<point x="329" y="626"/>
			<point x="331" y="596"/>
		</contour>
	</outline>
</glyph>
<glyph name="j" format="2">
	<advance width="272"/>
	<unicode hex="006A"/>
	<guideline x="274" y="-290" angle="0"/>
	<guideline x="470" y="332" angle="136.4974"/>
	<guideline x="-2" y="-12" angle="60"/>
	<guideline x="28" y="-21" angle="60"/>
	<outline>
		<contour>
			<point x="-343" y="-297" type="curve" smooth="yes"/>
			<point x="-255" y="-297"/>
			<point x="-102" y="-246"/>
			<point x="49" y="16" type="curve" smooth="yes"/>
			<point x="77" y="62"/>
			<point x="102" y="107"/>
			<point x="129" y="154" type="curve" smooth="yes"/>
			<point x="318" y="481" type="line"/>
			<point x="292" y="500" type="line"/>
			<point x="103" y="290" type="line"/>
			<point x="123" y="270" type="line"/>
			<point x="230" y="390" type="line"/>
			<point x="103" y="169" type="line"/>
			<point x="15" y="16" type="line" smooth="yes"/>
			<point x="-100" y="-184"/>
			<point x="-237" y="-267"/>
			<point x="-343" y="-267" type="curve" smooth="yes"/>
			<point x="-397" y="-267"/>
			<point x="-446" y="-253"/>
			<point x="-446" y="-201" type="curve" smooth="yes"/>
			<point x="-446" y="-162"/>
			<point x="-388" y="-134"/>
			<point x="-318" y="-113" type="curve" smooth="yes"/>
			<point x="-239" y="-89"/>
			<point x="-140" y="-59"/>
			<point x="-20" y="-18" type="curve" smooth="yes"/>
			<point x="113" y="27"/>
			<point x="274" y="139"/>
			<point x="395" y="270" type="curve"/>
			<point x="375" y="290" type="line"/>
			<point x="253" y="158"/>
			<point x="98" y="55"/>
			<point x="-29" y="11" type="curve" smooth="yes"/>
			<point x="-148" y="-30"/>
			<point x="-245" y="-58"/>
			<point x="-326" y="-84" type="curve" smooth="yes"/>
			<point x="-407" y="-110"/>
			<point x="-476" y="-147"/>
			<point x="-476" y="-201" type="curve" smooth="yes"/>
			<point x="-476" y="-279"/>
			<point x="-414" y="-297"/>
		</contour>
		<contour>
			<point x="353" y="580" type="curve" smooth="yes"/>
			<point x="372" y="565"/>
			<point x="402" y="571"/>
			<point x="419" y="593" type="curve" smooth="yes"/>
			<point x="436" y="614"/>
			<point x="432" y="643"/>
			<point x="412" y="658" type="curve" smooth="yes"/>
			<point x="391" y="673"/>
			<point x="362" y="669"/>
			<point x="345" y="647" type="curve" smooth="yes"/>
			<point x="329" y="626"/>
			<point x="331" y="596"/>
		</contour>
	</outline>
</glyph>
<glyph name="k" format="2">
	<advance width="453"/>
	<unicode hex="006B"/>
	<guideline x="48" y="0" angle="60"/>
	<guideline x="16" y="0" angle="60"/>
	<guideline x="569" y="1019" angle="0"/>
	<guideline x="80" y="-31" angle="136.4974"/>
	<outline>
		<contour>
			<point x="48" y="0" type="line"/>
			<point x="198" y="261" type="line"/>
			<point x="220" y="264"/>
			<point x="248" y="266"/>
			<point x="268" y="263" type="curve" smooth="yes"/>
			<point x="296" y="259"/>
			<point x="316" y="233"/>
			<point x="263" y="162" type="curve" smooth="yes"/>
			<point x="209" y="90" type="line"/>
			<point x="175" y="28"/>
			<point x="217" y="-12"/>
			<point x="263" y="-12" type="curve" smooth="yes"/>
			<point x="321" y="-12"/>
			<point x="360" y="31"/>
			<point x="439" y="119" type="curve" smooth="yes"/>
			<point x="576" y="271" type="line"/>
			<point x="556" y="290" type="line"/>
			<point x="418" y="136" type="line" smooth="yes"/>
			<point x="381" y="94"/>
			<point x="323" y="17"/>
			<point x="268" y="15" type="curve" smooth="yes"/>
			<point x="233" y="14"/>
			<point x="213" y="39"/>
			<point x="234" y="73" type="curve"/>
			<point x="287" y="146" type="line"/>
			<point x="342" y="212"/>
			<point x="333" y="263"/>
			<point x="303" y="283" type="curve"/>
			<point x="353" y="303"/>
			<point x="398" y="336"/>
			<point x="427" y="379" type="curve"/>
			<point x="468" y="449"/>
			<point x="450" y="504"/>
			<point x="392" y="504" type="curve" smooth="yes"/>
			<point x="366" y="504"/>
			<point x="342" y="491"/>
			<point x="321" y="473" type="curve"/>
			<point x="352" y="527" type="line"/>
			<point x="667" y="875" type="line" smooth="yes"/>
			<point x="694" y="905"/>
			<point x="713" y="930"/>
			<point x="713" y="964" type="curve" smooth="yes"/>
			<point x="713" y="997"/>
			<point x="681" y="1020"/>
			<point x="647" y="1019" type="curve" smooth="yes"/>
			<point x="618" y="1018"/>
			<point x="592" y="997"/>
			<point x="560" y="941" type="curve" smooth="yes"/>
			<point x="327" y="539" type="line"/>
			<point x="241" y="445"/>
			<point x="140" y="332"/>
			<point x="103" y="290" type="curve"/>
			<point x="123" y="270" type="line"/>
			<point x="264" y="428" type="line"/>
			<point x="27" y="19" type="line"/>
		</contour>
		<contour>
			<point x="216" y="291" type="curve"/>
			<point x="252" y="354" type="line" smooth="yes"/>
			<point x="288" y="412"/>
			<point x="337" y="473"/>
			<point x="384" y="473" type="curve" smooth="yes"/>
			<point x="417" y="473"/>
			<point x="431" y="441"/>
			<point x="401" y="390" type="curve" smooth="yes"/>
			<point x="371" y="339"/>
			<point x="299" y="301"/>
		</contour>
	</outline>
</glyph>
<glyph name="l" format="2">
	<advance width="332"/>
	<unicode hex="006C"/>
	<guideline x="453" y="1019" angle="0"/>
	<guideline x="51" y="0" angle="60"/>
	<guideline x="17" y="0" angle="60"/>
	<outline>
		<contour>
			<point x="131" y="-12" type="curve" smooth="yes"/>
			<point x="182" y="-12"/>
			<point x="224" y="12"/>
			<point x="288" y="83" type="curve" smooth="yes"/>
			<point x="455" y="270" type="line"/>
			<point x="435" y="290" type="line"/>
			<point x="262" y="97" type="line" smooth="yes"/>
			<point x="223" y="54"/>
			<point x="177" y="18"/>
			<point x="138" y="18" type="curve" smooth="yes"/>
			<point x="96" y="18"/>
			<point x="92" y="72"/>
			<point x="121" y="120" type="curve" smooth="yes"/>
			<point x="161" y="187"/>
			<point x="265" y="370"/>
			<point x="358" y="533" type="curve"/>
			<point x="667" y="875" type="line" smooth="yes"/>
			<point x="694" y="905"/>
			<point x="713" y="930"/>
			<point x="713" y="964" type="curve" smooth="yes"/>
			<point x="713" y="997"/>
			<point x="681" y="1020"/>
			<point x="647" y="1019" type="curve" smooth="yes"/>
			<point x="618" y="1018"/>
			<point x="592" y="997"/>
			<point x="560" y="941" type="curve" smooth="yes"/>
			<point x="328" y="539" type="line"/>
			<point x="242" y="445"/>
			<point x="141" y="332"/>
			<point x="103" y="290" type="curve"/>
			<point x="123" y="270" type="line"/>
			<point x="264" y="428" type="line"/>
			<point x="120" y="180"/>
			<point x="114" y="170"/>
			<point x="91" y="129" type="curve" smooth="yes"/>
			<point x="52" y="59"/>
			<point x="77" y="-12"/>
		</contour>
	</outline>
</glyph>
<glyph name="m" format="2">
	<advance width="663"/>
	<unicode hex="006D"/>
	<guideline x="392" y="469" angle="0"/>
	<guideline x="353" y="-30" angle="60"/>
	<guideline x="383" y="-39" angle="60"/>
	<guideline x="227" y="0" angle="60"/>
	<guideline x="257" y="-9" angle="60"/>
	<outline>
		<contour>
			<point x="479" y="-12" type="curve" smooth="yes"/>
			<point x="529" y="-12"/>
			<point x="562" y="24"/>
			<point x="616" y="83" type="curve" smooth="yes"/>
			<point x="786" y="271" type="line"/>
			<point x="766" y="290" type="line"/>
			<point x="592" y="97" type="line" smooth="yes"/>
			<point x="557" y="58"/>
			<point x="523" y="18"/>
			<point x="484" y="18" type="curve" smooth="yes"/>
			<point x="439" y="18"/>
			<point x="442" y="64"/>
			<point x="464" y="102" type="curve" smooth="yes"/>
			<point x="624" y="379" type="line" smooth="yes"/>
			<point x="664" y="449"/>
			<point x="638" y="499"/>
			<point x="589" y="500" type="curve" smooth="yes"/>
			<point x="555" y="501"/>
			<point x="525" y="483"/>
			<point x="495" y="453" type="curve"/>
			<point x="480" y="379" type="line"/>
			<point x="512" y="438"/>
			<point x="549" y="469"/>
			<point x="581" y="469" type="curve" smooth="yes"/>
			<point x="610" y="469"/>
			<point x="625" y="441"/>
			<point x="595" y="390" type="curve" smooth="yes"/>
			<point x="434" y="111" type="line" smooth="yes"/>
			<point x="400" y="51"/>
			<point x="425" y="-12"/>
		</contour>
		<contour>
			<point x="114" y="0" type="line"/>
			<point x="348" y="405" type="line" smooth="yes"/>
			<point x="381" y="463"/>
			<point x="362" y="500"/>
			<point x="321" y="500" type="curve" smooth="yes"/>
			<point x="288" y="500"/>
			<point x="261" y="466"/>
			<point x="220" y="420" type="curve" smooth="yes"/>
			<point x="103" y="290" type="line"/>
			<point x="123" y="270" type="line"/>
			<point x="247" y="407" type="line" smooth="yes"/>
			<point x="285" y="449"/>
			<point x="298" y="469"/>
			<point x="316" y="469" type="curve" smooth="yes"/>
			<point x="335" y="469"/>
			<point x="338" y="447"/>
			<point x="319" y="415" type="curve" smooth="yes"/>
			<point x="89" y="17" type="line"/>
		</contour>
		<contour>
			<point x="262" y="0" type="line"/>
			<point x="480" y="379" type="line" smooth="yes"/>
			<point x="517" y="443"/>
			<point x="494" y="499"/>
			<point x="446" y="500" type="curve" smooth="yes"/>
			<point x="412" y="501"/>
			<point x="391" y="493"/>
			<point x="361" y="465" type="curve"/>
			<point x="333" y="379" type="line"/>
			<point x="365" y="438"/>
			<point x="401" y="469"/>
			<point x="433" y="469" type="curve" smooth="yes"/>
			<point x="458" y="469"/>
			<point x="481" y="441"/>
			<point x="452" y="390" type="curve" smooth="yes"/>
			<point x="237" y="17" type="line"/>
		</contour>
	</outline>
</glyph>
<glyph name="n" format="2">
	<advance width="532"/>
	<unicode hex="006E"/>
	<guideline x="72" y="-73" angle="60"/>
	<guideline x="36" y="-73" angle="60"/>
	<guideline x="226" y="-84" angle="60"/>
	<guideline x="190" y="-84" angle="60"/>
	<outline>
		<contour>
			<point x="341" y="-11" type="curve" smooth="yes"/>
			<point x="391" y="-11"/>
			<point x="428" y="17"/>
			<point x="487" y="83" type="curve" smooth="yes"/>
			<point x="655" y="270" type="line"/>
			<point x="635" y="290" type="line"/>
			<point x="463" y="99" type="line" smooth="yes"/>
			<point x="428" y="60"/>
			<point x="386" y="19"/>
			<point x="347" y="19" type="curve" smooth="yes"/>
			<point x="310" y="19"/>
			<point x="312" y="65"/>
			<point x="334" y="103" type="curve" smooth="yes"/>
			<point x="495" y="382" type="line" smooth="yes"/>
			<point x="528" y="439"/>
			<point x="502" y="498"/>
			<point x="445" y="500" type="curve" smooth="yes"/>
			<point x="411" y="501"/>
			<point x="385" y="488"/>
			<point x="355" y="458" type="curve"/>
			<point x="346" y="402" type="line"/>
			<point x="376" y="458"/>
			<point x="407" y="470"/>
			<point x="439" y="470" type="curve" smooth="yes"/>
			<point x="471" y="470"/>
			<point x="493" y="441"/>
			<point x="466" y="394" type="curve" smooth="yes"/>
			<point x="303" y="112" type="line" smooth="yes"/>
			<point x="272" y="58"/>
			<point x="285" y="-11"/>
		</contour>
		<contour>
			<point x="114" y="0" type="line"/>
			<point x="348" y="405" type="line" smooth="yes"/>
			<point x="381" y="463"/>
			<point x="365" y="500"/>
			<point x="321" y="500" type="curve" smooth="yes"/>
			<point x="286" y="500"/>
			<point x="260" y="465"/>
			<point x="220" y="420" type="curve" smooth="yes"/>
			<point x="103" y="290" type="line"/>
			<point x="123" y="271" type="line"/>
			<point x="246" y="407" type="line" smooth="yes"/>
			<point x="283" y="448"/>
			<point x="300" y="469"/>
			<point x="318" y="469" type="curve" smooth="yes"/>
			<point x="337" y="469"/>
			<point x="337" y="447"/>
			<point x="318" y="415" type="curve" smooth="yes"/>
			<point x="87" y="16" type="line"/>
		</contour>
	</outline>
</glyph>
<glyph name="p" format="2">
	<advance width="462"/>
	<unicode hex="0070"/>
	<guideline x="274" y="-290" angle="0"/>
	<guideline x="11" y="-13" angle="0"/>
	<guideline x="65" y="15" angle="60"/>
	<guideline x="95" y="6" angle="60"/>
	<guideline x="-2" y="15" angle="60"/>
	<guideline x="28" y="6" angle="60"/>
	<guideline x="402" y="270" angle="0"/>
	<outline>
		<contour>
			<point x="-152" y="-306" type="line"/>
			<point x="277" y="437" type="line"/>
			<point x="340" y="501"/>
			<point x="437" y="566"/>
			<point x="437" y="627" type="curve" smooth="yes"/>
			<point x="437" y="650"/>
			<point x="419" y="676"/>
			<point x="391" y="675" type="curve" smooth="yes"/>
			<point x="331" y="672"/>
			<point x="310" y="626"/>
			<point x="253" y="456" type="curve"/>
			<point x="215" y="415"/>
			<point x="122" y="311"/>
			<point x="103" y="290" type="curve"/>
			<point x="123" y="270" type="line"/>
			<point x="134" y="283"/>
			<point x="163" y="315"/>
			<point x="187" y="341" type="curve"/>
			<point x="-179" y="-293" type="line"/>
		</contour>
		<contour>
			<point x="173" y="-13" type="curve" smooth="yes"/>
			<point x="214" y="-13"/>
			<point x="273" y="6"/>
			<point x="321" y="36" type="curve" smooth="yes"/>
			<point x="391" y="80"/>
			<point x="461" y="131"/>
			<point x="503" y="178" type="curve" smooth="yes"/>
			<point x="585" y="270" type="line"/>
			<point x="565" y="290" type="line"/>
			<point x="482" y="198" type="line" smooth="yes"/>
			<point x="439" y="150"/>
			<point x="379" y="105"/>
			<point x="325" y="71" type="curve" smooth="yes"/>
			<point x="268" y="35"/>
			<point x="213" y="14"/>
			<point x="175" y="14" type="curve" smooth="yes"/>
			<point x="160" y="14"/>
			<point x="149" y="23"/>
			<point x="149" y="34" type="curve" smooth="yes"/>
			<point x="149" y="55"/>
			<point x="185" y="72"/>
			<point x="226" y="93" type="curve" smooth="yes"/>
			<point x="261" y="111"/>
			<point x="305" y="135"/>
			<point x="371" y="189" type="curve" smooth="yes"/>
			<point x="439" y="245"/>
			<point x="466" y="291"/>
			<point x="485" y="333" type="curve" smooth="yes"/>
			<point x="521" y="412"/>
			<point x="506" y="500"/>
			<point x="426" y="500" type="curve" smooth="yes"/>
			<point x="368" y="500"/>
			<point x="253" y="415"/>
			<point x="131" y="223" type="curve" smooth="yes"/>
			<point x="124" y="213"/>
			<point x="63" y="125"/>
			<point x="57" y="115" type="curve"/>
			<point x="78" y="93" type="line"/>
			<point x="83" y="102"/>
			<point x="76" y="90"/>
			<point x="81" y="98" type="curve" smooth="yes"/>
			<point x="211" y="327"/>
			<point x="362" y="468"/>
			<point x="425" y="468" type="curve" smooth="yes"/>
			<point x="482" y="468"/>
			<point x="480" y="401"/>
			<point x="456" y="343" type="curve" smooth="yes"/>
			<point x="441" y="307"/>
			<point x="417" y="269"/>
			<point x="356" y="215" type="curve" smooth="yes"/>
			<point x="293" y="160"/>
			<point x="253" y="141"/>
			<point x="217" y="121" type="curve" smooth="yes"/>
			<point x="167" y="93"/>
			<point x="119" y="70"/>
			<point x="119" y="33" type="curve" smooth="yes"/>
			<point x="119" y="6"/>
			<point x="145" y="-13"/>
		</contour>
	</outline>
</glyph>
<glyph name="q" format="2">
	<advance width="415"/>
	<unicode hex="0071"/>
	<guideline x="272" y="-290" angle="0"/>
	<guideline x="142" y="5" angle="60"/>
	<guideline x="172" y="-4" angle="60"/>
	<outline>
		<contour>
			<point x="61" y="-263" type="curve"/>
			<point x="538" y="270" type="line"/>
			<point x="518" y="290" type="line"/>
			<point x="39" y="-242" type="line"/>
			<point x="28" y="-254"/>
			<point x="24" y="-259"/>
			<point x="30" y="-249" type="curve" smooth="yes"/>
			<point x="78" y="-167"/>
			<point x="110" y="-111"/>
			<point x="257" y="144" type="curve"/>
			<point x="197" y="101" type="line"/>
			<point x="-2" y="-245" type="line" smooth="yes"/>
			<point x="-24" y="-284"/>
			<point x="18" y="-312"/>
		</contour>
		<contour>
			<point x="83" y="14" type="curve" smooth="yes"/>
			<point x="11" y="17"/>
			<point x="35" y="101"/>
			<point x="63" y="157" type="curve" smooth="yes"/>
			<point x="123" y="277"/>
			<point x="212" y="395"/>
			<point x="368" y="396" type="curve"/>
			<point x="308" y="292" type="line"/>
			<point x="300" y="277"/>
			<point x="272" y="229"/>
			<point x="253" y="197" type="curve" smooth="yes"/>
			<point x="209" y="123"/>
			<point x="125" y="12"/>
		</contour>
		<contour>
			<point x="73" y="-13" type="curve" smooth="yes"/>
			<point x="125" y="-16"/>
			<point x="195" y="48"/>
			<point x="237" y="108" type="curve"/>
			<point x="244" y="119"/>
			<point x="331" y="270"/>
			<point x="338" y="283" type="curve" smooth="yes"/>
			<point x="406" y="401" type="line"/>
			<point x="428" y="409"/>
			<point x="443" y="426"/>
			<point x="443" y="452" type="curve" smooth="yes"/>
			<point x="443" y="483"/>
			<point x="412" y="500"/>
			<point x="377" y="500" type="curve" smooth="yes"/>
			<point x="237" y="500"/>
			<point x="129" y="361"/>
			<point x="30" y="157" type="curve" smooth="yes"/>
			<point x="-4" y="87"/>
			<point x="-18" y="-8"/>
		</contour>
	</outline>
</glyph>
<glyph name="r" format="2">
	<advance width="371"/>
	<unicode hex="0072"/>
	<outline>
		<contour>
			<point x="187" y="-12" type="curve" smooth="yes"/>
			<point x="243" y="-12"/>
			<point x="286" y="38"/>
			<point x="340" y="98" type="curve" smooth="yes"/>
			<point x="358" y="118"/>
			<point x="387" y="148"/>
			<point x="429" y="197" type="curve"/>
			<point x="494" y="270" type="line"/>
			<point x="474" y="290" type="line"/>
			<point x="393" y="200" type="line"/>
			<point x="365" y="169"/>
			<point x="345" y="147"/>
			<point x="311" y="109" type="curve" smooth="yes"/>
			<point x="267" y="60"/>
			<point x="227" y="16"/>
			<point x="188" y="16" type="curve" smooth="yes"/>
			<point x="155" y="16"/>
			<point x="122" y="36"/>
			<point x="121" y="91" type="curve" smooth="yes"/>
			<point x="119" y="194"/>
			<point x="252" y="275"/>
			<point x="321" y="318" type="curve" smooth="yes"/>
			<point x="381" y="355"/>
			<point x="422" y="385"/>
			<point x="422" y="439" type="curve" smooth="yes"/>
			<point x="422" y="470"/>
			<point x="395" y="501"/>
			<point x="356" y="501" type="curve" smooth="yes"/>
			<point x="328" y="501"/>
			<point x="291" y="498"/>
			<point x="239" y="441" type="curve" smooth="yes"/>
			<point x="103" y="290" type="line"/>
			<point x="123" y="270" type="line"/>
			<point x="254" y="416" type="line" smooth="yes"/>
			<point x="297" y="465"/>
			<point x="327" y="472"/>
			<point x="356" y="472" type="curve" smooth="yes"/>
			<point x="375" y="472"/>
			<point x="391" y="456"/>
			<point x="391" y="439" type="curve" smooth="yes"/>
			<point x="391" y="402"/>
			<point x="359" y="375"/>
			<point x="305" y="341" type="curve" smooth="yes"/>
			<point x="258" y="311"/>
			<point x="90" y="219"/>
			<point x="90" y="90" type="curve" smooth="yes"/>
			<point x="90" y="32"/>
			<point x="130" y="-12"/>
		</contour>
	</outline>
</glyph>
<glyph name="t" format="2">
	<advance width="346"/>
	<unicode hex="0074"/>
	<guideline x="53" y="-1" angle="60"/>
	<guideline x="21" y="-1" angle="60"/>
	<guideline x="664" y="543" angle="0"/>
	<guideline x="663" y="571" angle="0"/>
	<outline>
		<contour>
			<point x="147" y="-30" type="curve" smooth="yes"/>
			<point x="240" y="-30"/>
			<point x="349" y="114"/>
			<point x="349" y="246" type="curve" smooth="yes"/>
			<point x="349" y="403"/>
			<point x="234" y="482"/>
			<point x="234" y="518" type="curve" smooth="yes"/>
			<point x="234" y="534"/>
			<point x="253" y="543"/>
			<point x="309" y="543" type="curve" smooth="yes"/>
			<point x="359" y="543" type="line"/>
			<point x="360" y="571" type="line"/>
			<point x="309" y="571" type="line" smooth="yes"/>
			<point x="249" y="571"/>
			<point x="204" y="562"/>
			<point x="204" y="518" type="curve" smooth="yes"/>
			<point x="204" y="466"/>
			<point x="321" y="403"/>
			<point x="321" y="246" type="curve" smooth="yes"/>
			<point x="321" y="127"/>
			<point x="224" y="-4"/>
			<point x="146" y="-2" type="curve" smooth="yes"/>
			<point x="101" y="-1"/>
			<point x="81" y="48"/>
			<point x="139" y="148" type="curve" smooth="yes"/>
			<point x="361" y="533" type="line"/>
			<point x="427" y="621"/>
			<point x="644" y="808"/>
			<point x="646" y="870" type="curve" smooth="yes"/>
			<point x="647" y="902"/>
			<point x="630" y="922"/>
			<point x="600" y="921" type="curve" smooth="yes"/>
			<point x="564" y="920"/>
			<point x="538" y="899"/>
			<point x="513" y="855" type="curve" smooth="yes"/>
			<point x="430" y="709" type="line"/>
			<point x="342" y="555" type="line"/>
			<point x="307" y="516" type="line" smooth="yes"/>
			<point x="300" y="508"/>
			<point x="268" y="468"/>
			<point x="250" y="449" type="curve" smooth="yes"/>
			<point x="103" y="290" type="line"/>
			<point x="123" y="271" type="line"/>
			<point x="276" y="441" type="line"/>
			<point x="113" y="158" type="line" smooth="yes"/>
			<point x="51" y="51"/>
			<point x="69" y="-30"/>
		</contour>
		<contour>
			<point x="350" y="543" type="line"/>
			<point x="610" y="543" type="line"/>
			<point x="610" y="571" type="line"/>
			<point x="351" y="571" type="line"/>
		</contour>
	</outline>
</glyph>
<glyph name="u" format="2">
	<advance width="516"/>
	<unicode hex="0075"/>
	<guideline x="247" y="-12" angle="60"/>
	<guideline x="277" y="-21" angle="60"/>
	<guideline x="65" y="-12" angle="60"/>
	<guideline x="95" y="-21" angle="60"/>
	<outline>
		<contour>
			<point x="345" y="-11" type="curve" smooth="yes"/>
			<point x="382" y="-11"/>
			<point x="411" y="15"/>
			<point x="453" y="62" type="curve" smooth="yes"/>
			<point x="639" y="270" type="line"/>
			<point x="619" y="290" type="line"/>
			<point x="426" y="76" type="line" smooth="yes"/>
			<point x="387" y="32"/>
			<point x="371" y="20"/>
			<point x="347" y="20" type="curve" smooth="yes"/>
			<point x="327" y="20"/>
			<point x="321" y="55"/>
			<point x="350" y="105" type="curve" smooth="yes"/>
			<point x="570" y="486" type="line"/>
			<point x="544" y="502" type="line"/>
			<point x="312" y="100" type="line" smooth="yes"/>
			<point x="281" y="47"/>
			<point x="310" y="-11"/>
		</contour>
		<contour>
			<point x="193" y="-11" type="curve"/>
			<point x="224" y="-12"/>
			<point x="276" y="0"/>
			<point x="306" y="39" type="curve"/>
			<point x="312" y="100" type="line"/>
			<point x="280" y="41"/>
			<point x="236" y="20"/>
			<point x="200" y="20" type="curve" smooth="yes"/>
			<point x="160" y="20"/>
			<point x="151" y="76"/>
			<point x="175" y="118" type="curve" smooth="yes"/>
			<point x="341" y="405" type="line" smooth="yes"/>
			<point x="375" y="463"/>
			<point x="355" y="500"/>
			<point x="319" y="500" type="curve" smooth="yes"/>
			<point x="282" y="500"/>
			<point x="256" y="459"/>
			<point x="215" y="414" type="curve" smooth="yes"/>
			<point x="103" y="290" type="line"/>
			<point x="123" y="271" type="line"/>
			<point x="246" y="407" type="line" smooth="yes"/>
			<point x="283" y="448"/>
			<point x="298" y="469"/>
			<point x="317" y="469" type="curve" smooth="yes"/>
			<point x="331" y="469"/>
			<point x="330" y="446"/>
			<point x="311" y="414" type="curve" smooth="yes"/>
			<point x="254" y="316"/>
			<point x="204" y="230"/>
			<point x="155" y="144" type="curve" smooth="yes"/>
			<point x="106" y="58"/>
			<point x="138" y="-11"/>
		</contour>
	</outline>
</glyph>
<glyph name="v" format="2">
	<advance width="555"/>
	<unicode hex="0076"/>
	<guideline x="133" y="-12" angle="60"/>
	<guideline x="163" y="-21" angle="60"/>
	<outline>
		<contour>
			<point x="245" y="-12" type="curve" smooth="yes"/>
			<point x="327" y="-14"/>
			<point x="409" y="84"/>
			<point x="509" y="235" type="curve"/>
			<point x="520" y="209"/>
			<point x="541" y="198"/>
			<point x="568" y="199" type="curve" smooth="yes"/>
			<point x="597" y="200"/>
			<point x="630" y="216"/>
			<point x="678" y="270" type="curve"/>
			<point x="658" y="290" type="line"/>
			<point x="634" y="263"/>
			<point x="595" y="227"/>
			<point x="569" y="227" type="curve" smooth="yes"/>
			<point x="548" y="227"/>
			<point x="535" y="234"/>
			<point x="530" y="264" type="curve"/>
			<point x="589" y="343"/>
			<point x="630" y="452"/>
			<point x="630" y="530" type="curve" smooth="yes"/>
			<point x="630" y="558"/>
			<point x="612" y="578"/>
			<point x="585" y="578" type="curve" smooth="yes"/>
			<point x="557" y="578"/>
			<point x="528" y="551"/>
			<point x="511" y="489" type="curve" smooth="yes"/>
			<point x="487" y="402"/>
			<point x="490" y="355"/>
			<point x="501" y="277" type="curve"/>
			<point x="405" y="126"/>
			<point x="310" y="19"/>
			<point x="255" y="19" type="curve" smooth="yes"/>
			<point x="225" y="19"/>
			<point x="205" y="52"/>
			<point x="245" y="121" type="curve" smooth="yes"/>
			<point x="394" y="379" type="line" smooth="yes"/>
			<point x="433" y="446"/>
			<point x="421" y="501"/>
			<point x="354" y="501" type="curve" smooth="yes"/>
			<point x="304" y="501"/>
			<point x="267" y="473"/>
			<point x="212" y="411" type="curve" smooth="yes"/>
			<point x="103" y="290" type="line"/>
			<point x="123" y="270" type="line"/>
			<point x="228" y="387" type="line" smooth="yes"/>
			<point x="279" y="443"/>
			<point x="305" y="473"/>
			<point x="353" y="473" type="curve" smooth="yes"/>
			<point x="393" y="473"/>
			<point x="382" y="420"/>
			<point x="357" y="376" type="curve" smooth="yes"/>
			<point x="215" y="130" type="line" smooth="yes"/>
			<point x="165" y="44"/>
			<point x="201" y="-11"/>
		</contour>
	</outline>
</glyph>
<glyph name="w" format="2">
	<advance width="791"/>
	<unicode hex="0077"/>
	<guideline x="116" y="-12" angle="60"/>
	<guideline x="146" y="-21" angle="60"/>
	<guideline x="383" y="15" angle="60"/>
	<guideline x="413" y="6" angle="60"/>
	<guideline x="316" y="15" angle="60"/>
	<guideline x="346" y="6" angle="60"/>
	<outline>
		<contour>
			<point x="234" y="-12" type="curve" smooth="yes"/>
			<point x="311" y="-14"/>
			<point x="362" y="33"/>
			<point x="439" y="167" type="curve" smooth="yes"/>
			<point x="467" y="216"/>
			<point x="521" y="310"/>
			<point x="530" y="325" type="curve" smooth="yes"/>
			<point x="545" y="350"/>
			<point x="553" y="355"/>
			<point x="561" y="355" type="curve" smooth="yes"/>
			<point x="567" y="355"/>
			<point x="574" y="346"/>
			<point x="558" y="318" type="curve" smooth="yes"/>
			<point x="458" y="145" type="line" smooth="yes"/>
			<point x="401" y="46"/>
			<point x="456" y="-11"/>
			<point x="500" y="-12" type="curve" smooth="yes"/>
			<point x="568" y="-14"/>
			<point x="614" y="25"/>
			<point x="691" y="159" type="curve" smooth="yes"/>
			<point x="738" y="241" type="line"/>
			<point x="757" y="217"/>
			<point x="778" y="206"/>
			<point x="807" y="207" type="curve" smooth="yes"/>
			<point x="836" y="208"/>
			<point x="866" y="216"/>
			<point x="914" y="270" type="curve"/>
			<point x="894" y="290" type="line"/>
			<point x="870" y="263"/>
			<point x="834" y="235"/>
			<point x="808" y="235" type="curve" smooth="yes"/>
			<point x="787" y="235"/>
			<point x="775" y="239"/>
			<point x="756" y="264" type="curve"/>
			<point x="815" y="343"/>
			<point x="856" y="452"/>
			<point x="856" y="530" type="curve" smooth="yes"/>
			<point x="856" y="558"/>
			<point x="838" y="578"/>
			<point x="811" y="578" type="curve" smooth="yes"/>
			<point x="783" y="578"/>
			<point x="754" y="551"/>
			<point x="737" y="489" type="curve" smooth="yes"/>
			<point x="713" y="402"/>
			<point x="716" y="355"/>
			<point x="727" y="277" type="curve"/>
			<point x="668" y="174" type="line" smooth="yes"/>
			<point x="586" y="37"/>
			<point x="555" y="17"/>
			<point x="505" y="17" type="curve" smooth="yes"/>
			<point x="479" y="17"/>
			<point x="438" y="49"/>
			<point x="487" y="134" type="curve" smooth="yes"/>
			<point x="584" y="303" type="line" smooth="yes"/>
			<point x="611" y="350"/>
			<point x="595" y="384"/>
			<point x="566" y="385" type="curve" smooth="yes"/>
			<point x="539" y="386"/>
			<point x="524" y="375"/>
			<point x="506" y="344" type="curve" smooth="yes"/>
			<point x="492" y="320"/>
			<point x="489" y="314"/>
			<point x="413" y="183" type="curve" smooth="yes"/>
			<point x="333" y="45"/>
			<point x="296" y="17"/>
			<point x="245" y="17" type="curve" smooth="yes"/>
			<point x="217" y="17"/>
			<point x="186" y="48"/>
			<point x="228" y="121" type="curve" smooth="yes"/>
			<point x="376" y="378" type="line" smooth="yes"/>
			<point x="415" y="445"/>
			<point x="406" y="501"/>
			<point x="341" y="501" type="curve" smooth="yes"/>
			<point x="291" y="501"/>
			<point x="266" y="472"/>
			<point x="211" y="410" type="curve" smooth="yes"/>
			<point x="103" y="290" type="line"/>
			<point x="123" y="270" type="line"/>
			<point x="235" y="395" type="line" smooth="yes"/>
			<point x="269" y="433"/>
			<point x="296" y="473"/>
			<point x="337" y="473" type="curve" smooth="yes"/>
			<point x="383" y="473"/>
			<point x="368" y="425"/>
			<point x="346" y="387" type="curve" smooth="yes"/>
			<point x="199" y="132" type="line" smooth="yes"/>
			<point x="150" y="48"/>
			<point x="187" y="-11"/>
		</contour>
	</outline>
</glyph>
<glyph name="x" format="2">
	<advance width="582"/>
	<unicode hex="0078"/>
	<guideline x="181" y="-12" angle="60"/>
	<guideline x="211" y="-21" angle="60"/>
	<outline>
		<contour>
			<point x="88" y="-10" type="curve" smooth="yes"/>
			<point x="174" y="-10"/>
			<point x="247" y="39"/>
			<point x="341" y="205" type="curve" smooth="yes"/>
			<point x="362" y="242"/>
			<point x="409" y="329"/>
			<point x="416" y="344" type="curve" smooth="yes"/>
			<point x="455" y="427"/>
			<point x="442" y="502"/>
			<point x="357" y="502" type="curve" smooth="yes"/>
			<point x="302" y="502"/>
			<point x="269" y="474"/>
			<point x="232" y="433" type="curve" smooth="yes"/>
			<point x="103" y="290" type="line"/>
			<point x="123" y="270" type="line"/>
			<point x="252" y="414" type="line" smooth="yes"/>
			<point x="295" y="462"/>
			<point x="316" y="474"/>
			<point x="356" y="474" type="curve" smooth="yes"/>
			<point x="412" y="474"/>
			<point x="425" y="423"/>
			<point x="380" y="331" type="curve"/>
			<point x="389" y="350"/>
			<point x="353" y="288"/>
			<point x="330" y="247" type="curve" smooth="yes"/>
			<point x="251" y="106"/>
			<point x="222" y="86"/>
			<point x="87" y="86" type="curve" smooth="yes"/>
			<point x="52" y="86"/>
			<point x="19" y="67"/>
			<point x="19" y="38" type="curve" smooth="yes"/>
			<point x="19" y="9"/>
			<point x="43" y="-10"/>
		</contour>
		<contour>
			<point x="392" y="-8" type="curve" smooth="yes"/>
			<point x="459" y="-9"/>
			<point x="516" y="59"/>
			<point x="586" y="137" type="curve" smooth="yes"/>
			<point x="705" y="270" type="line"/>
			<point x="685" y="290" type="line"/>
			<point x="558" y="149" type="line" smooth="yes"/>
			<point x="513" y="99"/>
			<point x="443" y="23"/>
			<point x="397" y="23" type="curve" smooth="yes"/>
			<point x="351" y="23"/>
			<point x="339" y="60"/>
			<point x="335" y="102" type="curve"/>
			<point x="333" y="133"/>
			<point x="339" y="166"/>
			<point x="347" y="199" type="curve" smooth="yes"/>
			<point x="351" y="215"/>
			<point x="366" y="250"/>
			<point x="379" y="273" type="curve" smooth="yes"/>
			<point x="441" y="382"/>
			<point x="472" y="410"/>
			<point x="609" y="410" type="curve" smooth="yes"/>
			<point x="671" y="410"/>
			<point x="699" y="424"/>
			<point x="699" y="459" type="curve" smooth="yes"/>
			<point x="699" y="486"/>
			<point x="675" y="507"/>
			<point x="615" y="507" type="curve" smooth="yes"/>
			<point x="516" y="507"/>
			<point x="452" y="433"/>
			<point x="404" y="369" type="curve" smooth="yes"/>
			<point x="386" y="345"/>
			<point x="368" y="312"/>
			<point x="354" y="288" type="curve" smooth="yes"/>
			<point x="316" y="223"/>
			<point x="303" y="149"/>
			<point x="304" y="100" type="curve" smooth="yes"/>
			<point x="305" y="49"/>
			<point x="335" y="-7"/>
		</contour>
	</outline>
</glyph>
<glyph name="y" format="2">
	<advance width="497"/>
	<unicode hex="0079"/>
	<guideline x="274" y="-290" angle="0"/>
	<guideline x="228" y="0" angle="60"/>
	<guideline x="258" y="-9" angle="60"/>
	<guideline x="49" y="-33" angle="60"/>
	<guideline x="79" y="-42" angle="60"/>
	<outline>
		<contour>
			<point x="120" y="-290" type="curve" smooth="yes"/>
			<point x="154" y="-301"/>
			<point x="169" y="-281"/>
			<point x="188" y="-248" type="curve" smooth="yes"/>
			<point x="266" y="-113" type="line" smooth="yes"/>
			<point x="415" y="145"/>
			<point x="501" y="124"/>
			<point x="620" y="270" type="curve"/>
			<point x="600" y="290" type="line"/>
			<point x="436" y="107"/>
			<point x="388" y="158"/>
			<point x="237" y="-103" type="curve" smooth="yes"/>
			<point x="153" y="-248" type="line" smooth="yes"/>
			<point x="146" y="-261"/>
			<point x="139" y="-263"/>
			<point x="131" y="-260" type="curve" smooth="yes"/>
			<point x="123" y="-257"/>
			<point x="120" y="-250"/>
			<point x="127" y="-237" type="curve" smooth="yes"/>
			<point x="236" y="-46" type="line" smooth="yes"/>
			<point x="247" y="-26"/>
			<point x="335" y="125"/>
			<point x="355" y="159" type="curve"/>
			<point x="543" y="485" type="line"/>
			<point x="517" y="500" type="line"/>
			<point x="337" y="188" type="line"/>
			<point x="283" y="87"/>
			<point x="222" y="24"/>
			<point x="176" y="47" type="curve" smooth="yes"/>
			<point x="146" y="62"/>
			<point x="161" y="99"/>
			<point x="176" y="125" type="curve" smooth="yes"/>
			<point x="193" y="154"/>
			<point x="342" y="414"/>
			<point x="358" y="442" type="curve" smooth="yes"/>
			<point x="367" y="458"/>
			<point x="371" y="487"/>
			<point x="347" y="500" type="curve" smooth="yes"/>
			<point x="300" y="525"/>
			<point x="254" y="456"/>
			<point x="221" y="420" type="curve"/>
			<point x="103" y="290" type="line"/>
			<point x="123" y="270" type="line"/>
			<point x="246" y="407" type="line"/>
			<point x="272" y="434"/>
			<point x="310" y="487"/>
			<point x="328" y="477" type="curve" smooth="yes"/>
			<point x="340" y="470"/>
			<point x="332" y="459"/>
			<point x="326" y="448" type="curve" smooth="yes"/>
			<point x="315" y="427"/>
			<point x="164" y="168"/>
			<point x="149" y="141" type="curve" smooth="yes"/>
			<point x="128" y="104"/>
			<point x="112" y="39"/>
			<point x="160" y="19" type="curve" smooth="yes"/>
			<point x="187" y="8"/>
			<point x="228" y="18"/>
			<point x="251" y="39" type="curve"/>
			<point x="222" y="-13"/>
			<point x="229" y="1"/>
			<point x="210" y="-33" type="curve" smooth="yes"/>
			<point x="104" y="-217" type="line" smooth="yes"/>
			<point x="80" y="-258"/>
			<point x="96" y="-282"/>
		</contour>
	</outline>
</glyph>
<glyph name="z" format="2">
	<advance width="537"/>
	<unicode hex="007A"/>
	<guideline x="229" y="-13" angle="0"/>
	<guideline x="230" y="19" angle="0"/>
	<outline>
		<contour>
			<point x="367" y="-13" type="curve" smooth="yes"/>
			<point x="406" y="-13"/>
			<point x="444" y="29"/>
			<point x="475" y="63" type="curve" smooth="yes"/>
			<point x="505" y="96"/>
			<point x="523" y="117"/>
			<point x="575" y="175" type="curve" smooth="yes"/>
			<point x="660" y="270" type="line"/>
			<point x="640" y="290" type="line"/>
			<point x="550" y="190" type="line" smooth="yes"/>
			<point x="503" y="137"/>
			<point x="479" y="112"/>
			<point x="443" y="71" type="curve" smooth="yes"/>
			<point x="425" y="50"/>
			<point x="394" y="17"/>
			<point x="369" y="17" type="curve" smooth="yes"/>
			<point x="316" y="17"/>
			<point x="259" y="71"/>
			<point x="189" y="71" type="curve" smooth="yes"/>
			<point x="169" y="71"/>
			<point x="142" y="59"/>
			<point x="130" y="51" type="curve" smooth="yes"/>
			<point x="74" y="15" type="line" smooth="yes"/>
			<point x="57" y="4"/>
			<point x="41" y="2"/>
			<point x="41" y="16" type="curve" smooth="yes"/>
			<point x="41" y="22"/>
			<point x="42" y="28"/>
			<point x="66" y="48" type="curve" smooth="yes"/>
			<point x="365" y="297" type="line" smooth="yes"/>
			<point x="415" y="338"/>
			<point x="458" y="381"/>
			<point x="458" y="423" type="curve" smooth="yes"/>
			<point x="458" y="461"/>
			<point x="435" y="501"/>
			<point x="356" y="501" type="curve" smooth="yes"/>
			<point x="307" y="501"/>
			<point x="287" y="494"/>
			<point x="203" y="401" type="curve" smooth="yes"/>
			<point x="103" y="290" type="line"/>
			<point x="123" y="270" type="line"/>
			<point x="244" y="405" type="line" smooth="yes"/>
			<point x="294" y="460"/>
			<point x="308" y="472"/>
			<point x="356" y="472" type="curve" smooth="yes"/>
			<point x="407" y="472"/>
			<point x="427" y="448"/>
			<point x="427" y="423" type="curve" smooth="yes"/>
			<point x="427" y="397"/>
			<point x="389" y="356"/>
			<point x="347" y="321" type="curve" smooth="yes"/>
			<point x="53" y="74" type="line" smooth="yes"/>
			<point x="29" y="54"/>
			<point x="12" y="40"/>
			<point x="12" y="16" type="curve" smooth="yes"/>
			<point x="12" y="-22"/>
			<point x="53" y="-30"/>
			<point x="91" y="-6" type="curve" smooth="yes"/>
			<point x="146" y="29" type="line" smooth="yes"/>
			<point x="153" y="33"/>
			<point x="174" y="42"/>
			<point x="187" y="42" type="curve" smooth="yes"/>
			<point x="248" y="42"/>
			<point x="309" y="-13"/>
		</contour>
	</outline>
</glyph>
<glyph name="braceleft" format="2">
	<advance width="385"/>
	<unicode hex="007B"/>
	<guideline x="534" y="805" angle="0"/>
	<guideline x="566" y="706" angle="0"/>
	<outline>
		<contour>
			<point x="195" y="-31" type="curve"/>
			<point x="213" y="-9" type="line"/>
			<point x="144" y="28"/>
			<point x="142" y="145"/>
			<point x="262" y="273" type="curve" smooth="yes"/>
			<point x="335" y="350"/>
			<point x="415" y="427"/>
			<point x="426" y="520" type="curve"/>
			<point x="519" y="544"/>
			<point x="557" y="698"/>
			<point x="584" y="795" type="curve" smooth="yes"/>
			<point x="632" y="964"/>
			<point x="740" y="1023"/>
			<point x="807" y="969" type="curve"/>
			<point x="825" y="988" type="line"/>
			<point x="744" y="1062"/>
			<point x="611" y="996"/>
			<point x="555" y="796" type="curve" smooth="yes"/>
			<point x="533" y="716"/>
			<point x="488" y="569"/>
			<point x="428" y="558" type="curve"/>
			<point x="419" y="653"/>
			<point x="294" y="710"/>
			<point x="264" y="643" type="curve" smooth="yes"/>
			<point x="241" y="591"/>
			<point x="317" y="517"/>
			<point x="390" y="518" type="curve"/>
			<point x="402" y="464"/>
			<point x="307" y="356"/>
			<point x="243" y="293" type="curve" smooth="yes"/>
			<point x="113" y="162"/>
			<point x="110" y="16"/>
		</contour>
	</outline>
</glyph>
<glyph name="bar" format="2">
	<advance width="620"/>
	<unicode hex="007C"/>
	<outline>
		<contour>
			<point x="109" y="-173" type="line"/>
			<point x="193" y="-29"/>
			<point x="628" y="713"/>
			<point x="693" y="827" type="curve"/>
			<point x="667" y="843" type="line"/>
			<point x="667" y="842" type="line"/>
			<point x="539" y="622"/>
			<point x="162" y="-21"/>
			<point x="82" y="-159" type="curve"/>
		</contour>
	</outline>
</glyph>
<glyph name="braceright" format="2">
	<advance width="448"/>
	<unicode hex="007D"/>
	<guideline x="504" y="-111" angle="0"/>
	<guideline x="534" y="795" angle="0"/>
	<outline>
		<contour>
			<point x="55" y="-30" type="line"/>
			<point x="142" y="-97"/>
			<point x="271" y="-20"/>
			<point x="308" y="184" type="curve" smooth="yes"/>
			<point x="323" y="266"/>
			<point x="356" y="416"/>
			<point x="414" y="432" type="curve"/>
			<point x="431" y="338"/>
			<point x="561" y="292"/>
			<point x="585" y="361" type="curve" smooth="yes"/>
			<point x="604" y="415"/>
			<point x="522" y="482"/>
			<point x="449" y="475" type="curve"/>
			<point x="432" y="528"/>
			<point x="520" y="641"/>
			<point x="577" y="711" type="curve" smooth="yes"/>
			<point x="694" y="854"/>
			<point x="686" y="998"/>
			<point x="597" y="1038" type="curve"/>
			<point x="581" y="1015" type="line"/>
			<point x="653" y="984"/>
			<point x="665" y="867"/>
			<point x="556" y="730" type="curve" smooth="yes"/>
			<point x="490" y="647"/>
			<point x="416" y="563"/>
			<point x="413" y="470" type="curve"/>
			<point x="323" y="438"/>
			<point x="299" y="282"/>
			<point x="279" y="183" type="curve" smooth="yes"/>
			<point x="244" y="10"/>
			<point x="142" y="-58"/>
			<point x="71" y="-9" type="curve"/>
		</contour>
	</outline>
</glyph>
<glyph name="asciitilde" format="2">
	<advance width="607"/>
	<unicode hex="007E"/>
	<outline>
		<contour>
			<point x="475" y="227" type="curve" smooth="yes"/>
			<point x="549" y="225"/>
			<point x="594" y="272"/>
			<point x="626" y="306" type="curve"/>
			<point x="609" y="324" type="line"/>
			<point x="590" y="303"/>
			<point x="549" y="250"/>
			<point x="475" y="254" type="curve" smooth="yes"/>
			<point x="414" y="257"/>
			<point x="380" y="330"/>
			<point x="311" y="330" type="curve" smooth="yes"/>
			<point x="256" y="330"/>
			<point x="216" y="292"/>
			<point x="192" y="265" type="curve"/>
			<point x="209" y="246" type="line"/>
			<point x="229" y="263"/>
			<point x="265" y="304"/>
			<point x="313" y="304" type="curve" smooth="yes"/>
			<point x="360" y="304"/>
			<point x="408" y="229"/>
		</contour>
	</outline>
</glyph>
<glyph name="exclamdown" format="2">
	<advance width="600"/>
	<unicode hex="00A1"/>
	<outline>
		<contour>
			<point x="276" y="-173" type="curve" smooth="yes"/>
			<point x="306" y="-167"/>
			<point x="326" y="-144"/>
			<point x="353" y="-85" type="curve" smooth="yes"/>
			<point x="679" y="634" type="line"/>
			<point x="656" y="647" type="line"/>
			<point x="238" y="-32" type="line" smooth="yes"/>
			<point x="217" y="-66"/>
			<point x="199" y="-93"/>
			<point x="204" y="-126" type="curve" smooth="yes"/>
			<point x="209" y="-160"/>
			<point x="243" y="-180"/>
		</contour>
		<contour>
			<point x="750" y="764" type="curve" smooth="yes"/>
			<point x="781" y="768"/>
			<point x="795" y="793"/>
			<point x="790" y="816" type="curve" smooth="yes"/>
			<point x="785" y="839"/>
			<point x="765" y="859"/>
			<point x="738" y="856" type="curve" smooth="yes"/>
			<point x="711" y="853"/>
			<point x="697" y="828"/>
			<point x="698" y="804" type="curve" smooth="yes"/>
			<point x="699" y="781"/>
			<point x="721" y="760"/>
		</contour>
	</outline>
</glyph>
<glyph name="cent" format="2">
	<advance width="434"/>
	<unicode hex="00A2"/>
	<guideline x="-302" y="-17" angle="0"/>
	<outline>
		<contour>
			<point x="66" y="-38" type="line"/>
			<point x="84" y="-6"/>
			<point x="422" y="570"/>
			<point x="465" y="646" type="curve"/>
			<point x="441" y="662" type="line"/>
			<point x="399" y="588"/>
			<point x="58" y="8"/>
			<point x="39" y="-25" type="curve"/>
		</contour>
		<contour>
			<point x="175" y="66" type="curve" smooth="yes"/>
			<point x="237" y="66"/>
			<point x="309" y="124"/>
			<point x="370" y="194" type="curve"/>
			<point x="350" y="214" type="line"/>
			<point x="300" y="161"/>
			<point x="234" y="97"/>
			<point x="175" y="98" type="curve" smooth="yes"/>
			<point x="129" y="99"/>
			<point x="104" y="130"/>
			<point x="104" y="182" type="curve" smooth="yes"/>
			<point x="104" y="313"/>
			<point x="249" y="499"/>
			<point x="376" y="499" type="curve" smooth="yes"/>
			<point x="406" y="499"/>
			<point x="436" y="487"/>
			<point x="436" y="444" type="curve" smooth="yes"/>
			<point x="436" y="417"/>
			<point x="420" y="403"/>
			<point x="392" y="382" type="curve" smooth="yes"/>
			<point x="368" y="364"/>
			<point x="374" y="338"/>
			<point x="386" y="330" type="curve" smooth="yes"/>
			<point x="406" y="316"/>
			<point x="430" y="331"/>
			<point x="443" y="352" type="curve" smooth="yes"/>
			<point x="457" y="374"/>
			<point x="467" y="407"/>
			<point x="466" y="443" type="curve" smooth="yes"/>
			<point x="465" y="492"/>
			<point x="427" y="529"/>
			<point x="376" y="529" type="curve" smooth="yes"/>
			<point x="231" y="529"/>
			<point x="73" y="331"/>
			<point x="71" y="185" type="curve" smooth="yes"/>
			<point x="70" y="114"/>
			<point x="112" y="66"/>
		</contour>
	</outline>
</glyph>
<glyph name="sterling" format="2">
	<advance width="810"/>
	<unicode hex="00A3"/>
	<outline>
		<contour>
			<point x="203" y="22" type="line"/>
			<point x="333" y="64"/>
			<point x="411" y="192"/>
			<point x="468" y="358" type="curve" smooth="yes"/>
			<point x="544" y="578"/>
			<point x="656" y="682"/>
			<point x="774" y="686" type="curve" smooth="yes"/>
			<point x="845" y="688"/>
			<point x="876" y="636"/>
			<point x="876" y="587" type="curve" smooth="yes"/>
			<point x="876" y="571"/>
			<point x="872" y="553"/>
			<point x="865" y="536" type="curve"/>
			<point x="890" y="527" type="line"/>
			<point x="897" y="548"/>
			<point x="901" y="568"/>
			<point x="901" y="588" type="curve" smooth="yes"/>
			<point x="901" y="659"/>
			<point x="851" y="712"/>
			<point x="774" y="710" type="curve" smooth="yes"/>
			<point x="649" y="707"/>
			<point x="529" y="615"/>
			<point x="442" y="366" type="curve" smooth="yes"/>
			<point x="390" y="217"/>
			<point x="303" y="61"/>
			<point x="153" y="30" type="curve"/>
		</contour>
		<contour>
			<point x="323" y="-3" type="line" smooth="yes"/>
			<point x="489" y="-5"/>
			<point x="616" y="41"/>
			<point x="729" y="165" type="curve" smooth="yes"/>
			<point x="785" y="226" type="line"/>
			<point x="768" y="243" type="line"/>
			<point x="711" y="180" type="line" smooth="yes"/>
			<point x="601" y="58"/>
			<point x="404" y="-17"/>
			<point x="229" y="43" type="curve" smooth="yes"/>
			<point x="69" y="98" type="line" smooth="yes"/>
			<point x="29" y="112"/>
			<point x="-2" y="84"/>
			<point x="-2" y="54" type="curve" smooth="yes"/>
			<point x="-2" y="25"/>
			<point x="21" y="0"/>
			<point x="56" y="0" type="curve" smooth="yes"/>
		</contour>
		<contour>
			<point x="277" y="297" type="line"/>
			<point x="293" y="315"/>
			<point x="319" y="335"/>
			<point x="359" y="340" type="curve" smooth="yes"/>
			<point x="418" y="347"/>
			<point x="476" y="296"/>
			<point x="549" y="303" type="curve" smooth="yes"/>
			<point x="589" y="307"/>
			<point x="618" y="330"/>
			<point x="640" y="356" type="curve"/>
			<point x="620" y="373" type="line"/>
			<point x="603" y="353"/>
			<point x="578" y="334"/>
			<point x="547" y="329" type="curve" smooth="yes"/>
			<point x="488" y="320"/>
			<point x="426" y="374"/>
			<point x="352" y="366" type="curve" smooth="yes"/>
			<point x="308" y="361"/>
			<point x="278" y="339"/>
			<point x="258" y="316" type="curve"/>
		</contour>
	</outline>
</glyph>
<glyph name="yen" format="2">
	<advance width="647"/>
	<unicode hex="00A5"/>
	<outline>
		<contour>
			<point x="234" y="-70" type="line"/>
			<point x="649" y="644" type="line"/>
			<point x="675" y="689"/>
			<point x="665" y="707"/>
			<point x="643" y="707" type="curve" smooth="yes"/>
			<point x="610" y="707"/>
			<point x="567" y="632"/>
			<point x="531" y="569" type="curve" smooth="yes"/>
			<point x="473" y="467"/>
			<point x="425" y="405"/>
			<point x="366" y="405" type="curve" smooth="yes"/>
			<point x="283" y="405"/>
			<point x="286" y="556"/>
			<point x="286" y="648" type="curve" smooth="yes"/>
			<point x="286" y="679"/>
			<point x="283" y="709"/>
			<point x="246" y="709" type="curve" smooth="yes"/>
			<point x="217" y="709"/>
			<point x="175" y="662"/>
			<point x="143" y="614" type="curve"/>
			<point x="161" y="598" type="line"/>
			<point x="179" y="622"/>
			<point x="221" y="685"/>
			<point x="245" y="685" type="curve" smooth="yes"/>
			<point x="261" y="685"/>
			<point x="262" y="667"/>
			<point x="262" y="648" type="curve" smooth="yes"/>
			<point x="262" y="535"/>
			<point x="260" y="380"/>
			<point x="365" y="380" type="curve" smooth="yes"/>
			<point x="446" y="380"/>
			<point x="499" y="465"/>
			<point x="542" y="540" type="curve" smooth="yes"/>
			<point x="573" y="594"/>
			<point x="628" y="679"/>
			<point x="637" y="679" type="curve" smooth="yes"/>
			<point x="638" y="679"/>
			<point x="648" y="685"/>
			<point x="622" y="640" type="curve"/>
			<point x="210" y="-54" type="line"/>
		</contour>
		<contour>
			<point x="230" y="180" type="line"/>
			<point x="520" y="180" type="line"/>
			<point x="520" y="206" type="line"/>
			<point x="230" y="206" type="line"/>
		</contour>
		<contour>
			<point x="287" y="286" type="line"/>
			<point x="577" y="286" type="line"/>
			<point x="577" y="313" type="line"/>
			<point x="287" y="313" type="line"/>
		</contour>
	</outline>
</glyph>
<glyph name="brokenbar" format="2">
	<advance width="627"/>
	<unicode hex="00A6"/>
	<outline>
		<contour>
			<point x="437" y="388" type="line"/>
			<point x="557" y="594"/>
			<point x="662" y="774"/>
			<point x="693" y="828" type="curve"/>
			<point x="667" y="844" type="line"/>
			<point x="611" y="747"/>
			<point x="516" y="584"/>
			<point x="411" y="404" type="curve"/>
		</contour>
		<contour>
			<point x="109" y="-173" type="line"/>
			<point x="146" y="-110"/>
			<point x="254" y="76"/>
			<point x="365" y="264" type="curve"/>
			<point x="339" y="280" type="line"/>
			<point x="227" y="90"/>
			<point x="119" y="-94"/>
			<point x="82" y="-159" type="curve"/>
		</contour>
	</outline>
</glyph>
<glyph name="section" format="2">
	<advance width="600"/>
	<unicode hex="00A7"/>
	<outline>
		<contour>
			<point x="398" y="155" type="curve" smooth="yes"/>
			<point x="487" y="153"/>
			<point x="531" y="219"/>
			<point x="533" y="282" type="curve" smooth="yes"/>
			<point x="537" y="403"/>
			<point x="424" y="461"/>
			<point x="425" y="562" type="curve" smooth="yes"/>
			<point x="426" y="636"/>
			<point x="487" y="673"/>
			<point x="548" y="666" type="curve" smooth="yes"/>
			<point x="594" y="663"/>
			<point x="631" y="628"/>
			<point x="630" y="580" type="curve" smooth="yes"/>
			<point x="629" y="526"/>
			<point x="588" y="517"/>
			<point x="553" y="529" type="curve" smooth="yes"/>
			<point x="505" y="545"/>
			<point x="484" y="481"/>
			<point x="547" y="468" type="curve" smooth="yes"/>
			<point x="606" y="456"/>
			<point x="659" y="512"/>
			<point x="659" y="579" type="curve" smooth="yes"/>
			<point x="659" y="644"/>
			<point x="607" y="696"/>
			<point x="538" y="697" type="curve" smooth="yes"/>
			<point x="471" y="698"/>
			<point x="396" y="651"/>
			<point x="395" y="563" type="curve" smooth="yes"/>
			<point x="394" y="456"/>
			<point x="503" y="389"/>
			<point x="503" y="289" type="curve" smooth="yes"/>
			<point x="503" y="231"/>
			<point x="460" y="183"/>
			<point x="401" y="184" type="curve" smooth="yes"/>
			<point x="344" y="185"/>
			<point x="314" y="250"/>
			<point x="314" y="309" type="curve"/>
			<point x="284" y="309" type="line"/>
			<point x="284" y="257"/>
			<point x="311" y="157"/>
		</contour>
		<contour>
			<point x="279" y="-104" type="curve" smooth="yes"/>
			<point x="346" y="-105"/>
			<point x="421" y="-58"/>
			<point x="422" y="30" type="curve" smooth="yes"/>
			<point x="423" y="137"/>
			<point x="314" y="204"/>
			<point x="314" y="304" type="curve" smooth="yes"/>
			<point x="314" y="362"/>
			<point x="357" y="410"/>
			<point x="416" y="409" type="curve" smooth="yes"/>
			<point x="473" y="408"/>
			<point x="503" y="343"/>
			<point x="503" y="284" type="curve"/>
			<point x="533" y="284" type="line"/>
			<point x="533" y="336"/>
			<point x="506" y="436"/>
			<point x="419" y="438" type="curve" smooth="yes"/>
			<point x="330" y="440"/>
			<point x="286" y="374"/>
			<point x="284" y="311" type="curve" smooth="yes"/>
			<point x="280" y="190"/>
			<point x="393" y="132"/>
			<point x="392" y="31" type="curve" smooth="yes"/>
			<point x="391" y="-43"/>
			<point x="330" y="-79"/>
			<point x="269" y="-74" type="curve" smooth="yes"/>
			<point x="223" y="-70"/>
			<point x="186" y="-35"/>
			<point x="187" y="13" type="curve" smooth="yes"/>
			<point x="188" y="67"/>
			<point x="229" y="76"/>
			<point x="264" y="64" type="curve" smooth="yes"/>
			<point x="312" y="48"/>
			<point x="333" y="112"/>
			<point x="270" y="125" type="curve" smooth="yes"/>
			<point x="211" y="137"/>
			<point x="158" y="81"/>
			<point x="158" y="14" type="curve" smooth="yes"/>
			<point x="158" y="-51"/>
			<point x="210" y="-103"/>
		</contour>
	</outline>
</glyph>
<glyph name="dieresis" format="2">
	<advance width="600"/>
	<unicode hex="00A8"/>
	<outline>
		<contour>
			<point x="559" y="568" type="curve"/>
			<point x="582" y="568"/>
			<point x="601" y="587"/>
			<point x="601" y="612" type="curve"/>
			<point x="601" y="636"/>
			<point x="582" y="655"/>
			<point x="559" y="655" type="curve"/>
			<point x="535" y="655"/>
			<point x="516" y="636"/>
			<point x="515" y="612" type="curve"/>
			<point x="514" y="587"/>
			<point x="535" y="568"/>
		</contour>
		<contour>
			<point x="411" y="568" type="curve"/>
			<point x="435" y="568"/>
			<point x="454" y="587"/>
			<point x="454" y="612" type="curve"/>
			<point x="454" y="636"/>
			<point x="435" y="655"/>
			<point x="411" y="655" type="curve"/>
			<point x="387" y="655"/>
			<point x="368" y="636"/>
			<point x="368" y="612" type="curve"/>
			<point x="368" y="587"/>
			<point x="387" y="568"/>
		</contour>
	</outline>
</glyph>
<glyph name="copyright" format="2">
	<advance width="1081"/>
	<unicode hex="00A9"/>
	<outline>
		<contour>
			<point x="439" y="-49" type="curve" smooth="yes"/>
			<point x="593" y="-147"/>
			<point x="850" y="-70"/>
			<point x="984" y="142" type="curve" smooth="yes"/>
			<point x="1117" y="353"/>
			<point x="1080" y="615"/>
			<point x="922" y="715" type="curve" smooth="yes"/>
			<point x="752" y="823"/>
			<point x="507" y="738"/>
			<point x="374" y="527" type="curve" smooth="yes"/>
			<point x="240" y="315"/>
			<point x="269" y="59"/>
		</contour>
		<contour>
			<point x="545" y="64" type="curve" smooth="yes"/>
			<point x="633" y="64"/>
			<point x="703" y="126"/>
			<point x="801" y="236" type="curve" smooth="yes"/>
			<point x="863" y="306" type="line"/>
			<point x="842" y="325" type="line"/>
			<point x="782" y="258" type="line" smooth="yes"/>
			<point x="702" y="168"/>
			<point x="633" y="91"/>
			<point x="547" y="91" type="curve" smooth="yes"/>
			<point x="488" y="91"/>
			<point x="448" y="174"/>
			<point x="496" y="284" type="curve"/>
			<point x="587" y="502"/>
			<point x="753" y="480"/>
			<point x="805" y="480" type="curve" smooth="yes"/>
			<point x="839" y="480"/>
			<point x="869" y="502"/>
			<point x="869" y="531" type="curve" smooth="yes"/>
			<point x="869" y="562"/>
			<point x="850" y="580"/>
			<point x="806" y="579" type="curve" smooth="yes"/>
			<point x="713" y="577"/>
			<point x="553" y="515"/>
			<point x="465" y="284" type="curve" smooth="yes"/>
			<point x="425" y="179"/>
			<point x="459" y="64"/>
		</contour>
		<contour>
			<point x="460" y="-28" type="curve" smooth="yes"/>
			<point x="298" y="67"/>
			<point x="274" y="316"/>
			<point x="398" y="513" type="curve" smooth="yes"/>
			<point x="522" y="710"/>
			<point x="752" y="788"/>
			<point x="909" y="689" type="curve" smooth="yes"/>
			<point x="1053" y="598"/>
			<point x="1079" y="348"/>
			<point x="961" y="159" type="curve" smooth="yes"/>
			<point x="837" y="-39"/>
			<point x="605" y="-113"/>
		</contour>
	</outline>
</glyph>
<glyph name="guillemetleft" format="2">
	<advance width="433"/>
	<unicode hex="00AB"/>
	<guideline x="669" y="622" angle="0"/>
	<outline>
		<contour>
			<point x="196" y="141" type="line"/>
			<point x="210" y="150" type="line"/>
			<point x="93" y="331" type="line"/>
			<point x="275" y="535" type="line"/>
			<point x="264" y="547" type="line"/>
			<point x="39" y="386" type="line" smooth="yes"/>
			<point x="18" y="371"/>
			<point x="11" y="353"/>
			<point x="11" y="332" type="curve" smooth="yes"/>
			<point x="11" y="315"/>
			<point x="28" y="295"/>
			<point x="48" y="276" type="curve" smooth="yes"/>
		</contour>
		<contour>
			<point x="358" y="143" type="line"/>
			<point x="372" y="152" type="line"/>
			<point x="255" y="333" type="line"/>
			<point x="411" y="517" type="line"/>
			<point x="400" y="531" type="line"/>
			<point x="201" y="388" type="line" smooth="yes"/>
			<point x="178" y="372"/>
			<point x="171" y="356"/>
			<point x="172" y="334" type="curve" smooth="yes"/>
			<point x="173" y="317"/>
			<point x="188" y="295"/>
			<point x="209" y="277" type="curve" smooth="yes"/>
		</contour>
	</outline>
</glyph>
<glyph name="logicalnot" format="2">
	<advance width="706"/>
	<unicode hex="00AC"/>
	<outline>
		<contour>
			<point x="494" y="0" type="line"/>
			<point x="565" y="77"/>
			<point x="641" y="156"/>
			<point x="641" y="220" type="curve" smooth="yes"/>
			<point x="641" y="255"/>
			<point x="621" y="292"/>
			<point x="558" y="292" type="curve"/>
			<point x="172" y="292" type="line"/>
			<point x="172" y="260" type="line"/>
			<point x="558" y="260" type="line"/>
			<point x="589" y="260"/>
			<point x="606" y="248"/>
			<point x="606" y="217" type="curve" smooth="yes"/>
			<point x="606" y="172"/>
			<point x="554" y="107"/>
			<point x="471" y="22" type="curve"/>
		</contour>
	</outline>
</glyph>
<glyph name="registered" format="2">
	<advance width="760"/>
	<unicode hex="00AE"/>
	<outline>
		<contour>
			<point x="425" y="321" type="curve" smooth="yes"/>
			<point x="505" y="270"/>
			<point x="639" y="312"/>
			<point x="708" y="420" type="curve" smooth="yes"/>
			<point x="779" y="531"/>
			<point x="759" y="667"/>
			<point x="676" y="719" type="curve" smooth="yes"/>
			<point x="588" y="774"/>
			<point x="460" y="732"/>
			<point x="390" y="621" type="curve" smooth="yes"/>
			<point x="321" y="512"/>
			<point x="337" y="377"/>
		</contour>
		<contour>
			<point x="422" y="375" type="line"/>
			<point x="452" y="397"/>
			<point x="483" y="444"/>
			<point x="517" y="497" type="curve"/>
			<point x="594" y="624" type="line"/>
			<point x="574" y="637" type="line"/>
			<point x="489" y="497" type="line" smooth="yes"/>
			<point x="466" y="459"/>
			<point x="436" y="414"/>
			<point x="409" y="394" type="curve"/>
		</contour>
		<contour>
			<point x="440" y="337" type="curve" smooth="yes"/>
			<point x="365" y="375"/>
			<point x="342" y="511"/>
			<point x="408" y="612" type="curve" smooth="yes"/>
			<point x="472" y="710"/>
			<point x="590" y="750"/>
			<point x="668" y="698" type="curve" smooth="yes"/>
			<point x="737" y="652"/>
			<point x="761" y="532"/>
			<point x="692" y="433" type="curve" smooth="yes"/>
			<point x="626" y="338"/>
			<point x="519" y="297"/>
		</contour>
		<contour>
			<point x="583" y="375" type="curve" smooth="yes"/>
			<point x="607" y="373"/>
			<point x="632" y="401"/>
			<point x="675" y="446" type="curve"/>
			<point x="661" y="462" type="line"/>
			<point x="631" y="428"/>
			<point x="605" y="402"/>
			<point x="588" y="402" type="curve" smooth="yes"/>
			<point x="576" y="402"/>
			<point x="570" y="427"/>
			<point x="565" y="447" type="curve" smooth="yes"/>
			<point x="554" y="491"/>
			<point x="512" y="534"/>
			<point x="470" y="531" type="curve" smooth="yes"/>
			<point x="455" y="530"/>
			<point x="425" y="518"/>
			<point x="425" y="493" type="curve" smooth="yes"/>
			<point x="425" y="477"/>
			<point x="433" y="449"/>
			<point x="488" y="448" type="curve" smooth="yes"/>
			<point x="557" y="447"/>
			<point x="683" y="518"/>
			<point x="683" y="612" type="curve" smooth="yes"/>
			<point x="683" y="648"/>
			<point x="666" y="690"/>
			<point x="598" y="690" type="curve" smooth="yes"/>
			<point x="542" y="690"/>
			<point x="476" y="648"/>
			<point x="441" y="619" type="curve"/>
			<point x="456" y="600" type="line"/>
			<point x="488" y="627"/>
			<point x="542" y="666"/>
			<point x="598" y="666" type="curve" smooth="yes"/>
			<point x="643" y="666"/>
			<point x="660" y="642"/>
			<point x="660" y="611" type="curve" smooth="yes"/>
			<point x="660" y="536"/>
			<point x="552" y="470"/>
			<point x="489" y="470" type="curve" smooth="yes"/>
			<point x="450" y="470"/>
			<point x="451" y="483"/>
			<point x="451" y="491" type="curve" smooth="yes"/>
			<point x="451" y="499"/>
			<point x="458" y="506"/>
			<point x="470" y="506" type="curve" smooth="yes"/>
			<point x="495" y="506"/>
			<point x="528" y="484"/>
			<point x="541" y="448" type="curve" smooth="yes"/>
			<point x="559" y="397"/>
			<point x="562" y="377"/>
		</contour>
	</outline>
</glyph>
<glyph name="macron" format="2">
	<advance width="600"/>
	<unicode hex="00AF"/>
	<outline>
		<contour>
			<point x="191" y="542" type="line"/>
			<point x="410" y="542" type="line"/>
			<point x="410" y="572" type="line"/>
			<point x="192" y="572" type="line"/>
		</contour>
	</outline>
</glyph>
<glyph name="degree" format="2">
	<advance width="299"/>
	<unicode hex="00B0"/>
	<outline>
		<contour>
			<point x="198" y="649" type="curve" smooth="yes"/>
			<point x="248" y="616"/>
			<point x="334" y="643"/>
			<point x="378" y="712" type="curve" smooth="yes"/>
			<point x="423" y="782"/>
			<point x="410" y="869"/>
			<point x="358" y="902" type="curve" smooth="yes"/>
			<point x="303" y="937"/>
			<point x="221" y="910"/>
			<point x="176" y="839" type="curve" smooth="yes"/>
			<point x="132" y="770"/>
			<point x="143" y="685"/>
		</contour>
		<contour>
			<point x="215" y="674" type="curve" smooth="yes"/>
			<point x="175" y="694"/>
			<point x="164" y="768"/>
			<point x="200" y="823" type="curve" smooth="yes"/>
			<point x="234" y="875"/>
			<point x="298" y="900"/>
			<point x="342" y="873" type="curve" smooth="yes"/>
			<point x="381" y="849"/>
			<point x="391" y="780"/>
			<point x="351" y="726" type="curve" smooth="yes"/>
			<point x="313" y="675"/>
			<point x="259" y="652"/>
		</contour>
	</outline>
</glyph>
<glyph name="plusminus" format="2">
	<advance width="672"/>
	<unicode hex="00B1"/>
	<guideline x="699" y="35" angle="0"/>
	<guideline x="651" y="307" angle="0"/>
	<guideline x="400" y="512" angle="270"/>
	<outline>
		<contour>
			<point x="309" y="116" type="line"/>
			<point x="515" y="479" type="line"/>
			<point x="492" y="492" type="line"/>
			<point x="286" y="127" type="line"/>
		</contour>
		<contour>
			<point x="68" y="35" type="line"/>
			<point x="524" y="35" type="line"/>
			<point x="524" y="61" type="line"/>
			<point x="68" y="61" type="line"/>
		</contour>
		<contour>
			<point x="186" y="306" type="line"/>
			<point x="642" y="306" type="line"/>
			<point x="642" y="332" type="line"/>
			<point x="186" y="332" type="line"/>
		</contour>
	</outline>
</glyph>
<glyph name="twosuperior" format="2">
	<advance width="533"/>
	<unicode hex="00B2"/>
	<outline>
		<contour>
			<point x="264" y="365" type="curve"/>
			<point x="291" y="365" type="line"/>
			<point x="299" y="400"/>
			<point x="354" y="454"/>
			<point x="433" y="497" type="curve" smooth="yes"/>
			<point x="482" y="524"/>
			<point x="565" y="552"/>
			<point x="565" y="635" type="curve" smooth="yes"/>
			<point x="565" y="665"/>
			<point x="541" y="706"/>
			<point x="489" y="706" type="curve" smooth="yes"/>
			<point x="417" y="706"/>
			<point x="373" y="658"/>
			<point x="373" y="621" type="curve" smooth="yes"/>
			<point x="373" y="604"/>
			<point x="385" y="593"/>
			<point x="397" y="593" type="curve" smooth="yes"/>
			<point x="410" y="593"/>
			<point x="423" y="604"/>
			<point x="423" y="621" type="curve" smooth="yes"/>
			<point x="423" y="652"/>
			<point x="440" y="682"/>
			<point x="490" y="682" type="curve" smooth="yes"/>
			<point x="523" y="682"/>
			<point x="539" y="656"/>
			<point x="539" y="634" type="curve" smooth="yes"/>
			<point x="539" y="568"/>
			<point x="473" y="545"/>
			<point x="417" y="515" type="curve" smooth="yes"/>
			<point x="329" y="468"/>
			<point x="264" y="400"/>
		</contour>
		<contour>
			<point x="450" y="362" type="curve" smooth="yes"/>
			<point x="476" y="362"/>
			<point x="528" y="404"/>
			<point x="561" y="436" type="curve"/>
			<point x="546" y="453" type="line"/>
			<point x="518" y="425"/>
			<point x="473" y="389"/>
			<point x="451" y="389" type="curve" smooth="yes"/>
			<point x="435" y="389"/>
			<point x="429" y="430"/>
			<point x="382" y="430" type="curve" smooth="yes"/>
			<point x="349" y="430"/>
			<point x="282" y="396"/>
			<point x="264" y="365" type="curve"/>
			<point x="291" y="365" type="line"/>
			<point x="308" y="377"/>
			<point x="350" y="405"/>
			<point x="381" y="404" type="curve" smooth="yes"/>
			<point x="421" y="403"/>
			<point x="416" y="362"/>
		</contour>
	</outline>
</glyph>
<glyph name="threesuperior" format="2">
	<advance width="603"/>
	<unicode hex="00B3"/>
	<outline>
		<contour>
			<point x="283" y="330" type="line"/>
			<point x="382" y="346"/>
			<point x="484" y="390"/>
			<point x="488" y="470" type="curve" smooth="yes"/>
			<point x="490" y="507"/>
			<point x="461" y="544"/>
			<point x="419" y="544" type="curve"/>
			<point x="488" y="560"/>
			<point x="523" y="596"/>
			<point x="523" y="642" type="curve" smooth="yes"/>
			<point x="523" y="688"/>
			<point x="487" y="714"/>
			<point x="443" y="714" type="curve" smooth="yes"/>
			<point x="370" y="714"/>
			<point x="344" y="670"/>
			<point x="344" y="640" type="curve" smooth="yes"/>
			<point x="344" y="626"/>
			<point x="351" y="612"/>
			<point x="365" y="610" type="curve" smooth="yes"/>
			<point x="379" y="608"/>
			<point x="392" y="619"/>
			<point x="393" y="633" type="curve" smooth="yes"/>
			<point x="395" y="657"/>
			<point x="400" y="694"/>
			<point x="442" y="694" type="curve" smooth="yes"/>
			<point x="475" y="694"/>
			<point x="502" y="676"/>
			<point x="502" y="641" type="curve" smooth="yes"/>
			<point x="502" y="596"/>
			<point x="465" y="574"/>
			<point x="368" y="553" type="curve"/>
			<point x="371" y="522" type="line"/>
			<point x="445" y="533"/>
			<point x="467" y="505"/>
			<point x="467" y="470" type="curve" smooth="yes"/>
			<point x="467" y="405"/>
			<point x="364" y="362"/>
			<point x="280" y="351" type="curve"/>
		</contour>
	</outline>
</glyph>
<glyph name="acute" format="2">
	<advance width="600"/>
	<unicode hex="00B4"/>
	<anchor x="343" y="500" name="_top"/>
	<outline>
		<contour>
			<point x="374" y="622" type="line"/>
			<point x="593" y="759" type="line" smooth="yes"/>
			<point x="626" y="779"/>
			<point x="635" y="809"/>
			<point x="615" y="833" type="curve" smooth="yes"/>
			<point x="596" y="856"/>
			<point x="572" y="854"/>
			<point x="539" y="820" type="curve" smooth="yes"/>
			<point x="362" y="635" type="line"/>
		</contour>
	</outline>
</glyph>
<glyph name="micro" format="2">
	<advance width="766"/>
	<unicode hex="00B5"/>
	<outline>
		<contour>
			<point x="-84" y="-311" type="curve" smooth="yes"/>
			<point x="-42" y="-339"/>
			<point x="-5" y="-297"/>
			<point x="8" y="-273" type="curve" smooth="yes"/>
			<point x="22" y="-247"/>
			<point x="111" y="-26"/>
			<point x="226" y="175" type="curve"/>
			<point x="354" y="387" type="line" smooth="yes"/>
			<point x="383" y="436"/>
			<point x="403" y="475"/>
			<point x="422" y="475" type="curve" smooth="yes"/>
			<point x="436" y="475"/>
			<point x="432" y="458"/>
			<point x="414" y="426" type="curve" smooth="yes"/>
			<point x="393" y="387"/>
			<point x="314" y="254"/>
			<point x="252" y="144" type="curve" smooth="yes"/>
			<point x="203" y="58"/>
			<point x="235" y="-11"/>
			<point x="290" y="-11" type="curve" smooth="yes"/>
			<point x="321" y="-12"/>
			<point x="373" y="0"/>
			<point x="403" y="39" type="curve"/>
			<point x="409" y="100" type="line"/>
			<point x="377" y="41"/>
			<point x="333" y="20"/>
			<point x="297" y="20" type="curve" smooth="yes"/>
			<point x="257" y="20"/>
			<point x="248" y="76"/>
			<point x="272" y="118" type="curve" smooth="yes"/>
			<point x="443" y="416" type="line" smooth="yes"/>
			<point x="477" y="474"/>
			<point x="461" y="511"/>
			<point x="425" y="511" type="curve" smooth="yes"/>
			<point x="388" y="511"/>
			<point x="353" y="450"/>
			<point x="328" y="408" type="curve" smooth="yes"/>
			<point x="225" y="236" type="line"/>
			<point x="-80" y="-206" type="line" smooth="yes"/>
			<point x="-101" y="-236"/>
			<point x="-114" y="-291"/>
		</contour>
		<contour>
			<point x="442" y="-11" type="curve" smooth="yes"/>
			<point x="479" y="-11"/>
			<point x="508" y="15"/>
			<point x="550" y="62" type="curve" smooth="yes"/>
			<point x="736" y="270" type="line"/>
			<point x="716" y="290" type="line"/>
			<point x="523" y="76" type="line" smooth="yes"/>
			<point x="484" y="32"/>
			<point x="468" y="20"/>
			<point x="444" y="20" type="curve" smooth="yes"/>
			<point x="424" y="20"/>
			<point x="418" y="55"/>
			<point x="447" y="105" type="curve" smooth="yes"/>
			<point x="667" y="486" type="line"/>
			<point x="641" y="502" type="line"/>
			<point x="409" y="100" type="line" smooth="yes"/>
			<point x="378" y="47"/>
			<point x="407" y="-11"/>
		</contour>
	</outline>
</glyph>
